<svg xmlns="http://www.w3.org/2000/svg" width="127.41" height="127.41" viewBox="0 0 127.41 127.41"><defs><style>.a{fill:#fbd617;}</style></defs><g transform="translate(0)"><path class="a" d="M.294,272.059a2.489,2.489,0,0,0,2.194,1.314H14.931V309.7a2.489,2.489,0,0,0,2.488,2.488H109.99a2.489,2.489,0,0,0,2.488-2.488V273.373h12.442a2.488,2.488,0,0,0,2.07-3.869l-14.931-22.4A2.488,2.488,0,0,0,109.99,246h-9.456a2.488,2.488,0,0,0,0,4.977h8.124L120.272,268.4h-40.3L68.355,250.977h9.783a2.488,2.488,0,1,0,0-4.977H17.419a2.488,2.488,0,0,0-2.07,1.108L.418,269.5a2.489,2.489,0,0,0-.124,2.555Zm19.613,1.314H48.774a2.488,2.488,0,0,0,2.07-1.108l10.372-15.558v50.509H19.908Zm56.657-1.108a2.488,2.488,0,0,0,2.07,1.108H107.5v33.843H66.193V256.707ZM18.751,250.977h40.3L47.442,268.4H7.138Z" transform="translate(0 -184.784)"/><path class="a" d="M120.885,6.229A13.228,13.228,0,0,0,109.687,0C101.712,0,96,6.426,96,14.177c0,8.6,6.964,14.256,17.506,22.811,1.847,1.5,3.757,3.049,5.786,4.74a2.489,2.489,0,0,0,3.186,0c2.029-1.691,3.939-3.241,5.786-4.74,10.542-8.554,17.506-14.206,17.506-22.811C145.769,6.42,140.051,0,132.083,0A13.228,13.228,0,0,0,120.885,6.229Zm19.908,7.948c0,6.234-6.232,11.291-15.665,18.946-1.371,1.112-2.776,2.253-4.243,3.461-1.467-1.208-2.872-2.349-4.243-3.461-9.433-7.655-15.665-12.712-15.665-18.946,0-5.245,3.744-9.2,8.71-9.2,6.5,0,8.718,7.233,8.807,7.532a2.488,2.488,0,0,0,4.782,0c.022-.075,2.245-7.532,8.807-7.532C137.048,4.977,140.792,8.932,140.792,14.177Z" transform="translate(-72.111)"/><path class="a" d="M323.419,106.106a2.483,2.483,0,0,0,1.639-.616c1.352-1.183,2.626-2.269,3.858-3.319,6.922-5.9,11.923-10.161,11.923-16.5,0-5.984-4.372-10.671-9.954-10.671a9.259,9.259,0,0,0-7.465,3.741A9.259,9.259,0,0,0,315.954,75C310.372,75,306,79.687,306,85.671c0,6.34,5,10.6,11.923,16.5,1.232,1.05,2.506,2.136,3.858,3.319A2.483,2.483,0,0,0,323.419,106.106ZM310.977,85.671c0-2.76,1.744-5.694,4.977-5.694,3.668,0,5.007,4.5,5.069,4.713a2.486,2.486,0,0,0,4.793,0c.055-.192,1.391-4.715,5.069-4.715,3.233,0,4.977,2.933,4.977,5.694,0,4.042-3.829,7.306-10.174,12.713-.738.629-1.491,1.27-2.268,1.94-.778-.669-1.53-1.311-2.268-1.94C314.806,92.976,310.977,89.713,310.977,85.671Z" transform="translate(-229.853 -56.336)"/><ellipse class="a" cx="2.5" cy="2" rx="2.5" ry="2" transform="translate(86.379 61.933)"/></g></svg>