<svg xmlns="http://www.w3.org/2000/svg" width="154.085" height="118.093" viewBox="0 0 154.085 118.093"><defs><style>.a{fill:#fbd617;}</style></defs><g transform="translate(0 -59.798)"><g transform="translate(28.841 88.689)"><path class="a" d="M105.683,176.224l-5.251-5.186-.085-13a2.257,2.257,0,0,0-2.257-2.242h-.015a2.257,2.257,0,0,0-2.242,2.272L95.925,172a2.257,2.257,0,0,0,.671,1.591l5.915,5.842a2.257,2.257,0,0,0,3.172-3.211Z" transform="translate(-95.834 -155.798)"/></g><g transform="translate(59.437 113.31)"><g transform="translate(0 0)"><path class="a" d="M237.578,250.842c0-.019-.006-.037-.009-.056-.008-.062-.018-.123-.031-.183,0-.021-.011-.042-.016-.063-.014-.057-.03-.113-.048-.168-.008-.022-.016-.044-.024-.066-.02-.053-.04-.1-.064-.155l-.033-.068q-.036-.072-.077-.141c-.014-.023-.027-.046-.042-.069-.029-.045-.059-.088-.091-.13-.016-.021-.031-.043-.048-.064-.037-.046-.076-.089-.116-.132-.014-.015-.026-.03-.041-.045a2.2,2.2,0,0,0-.177-.161l0,0L223,238.119a2.257,2.257,0,0,0-2.853,3.5l8.844,7.211H199.757a2.257,2.257,0,0,0,0,4.514h29.236l-8.844,7.21a2.257,2.257,0,1,0,2.852,3.5l13.758-11.217,0,0a2.305,2.305,0,0,0,.177-.161c.014-.014.027-.03.041-.045.04-.043.079-.086.116-.132.017-.021.032-.042.048-.064.032-.042.062-.085.091-.13.014-.023.028-.046.042-.069q.041-.069.077-.141l.033-.068c.023-.051.044-.1.064-.155.008-.022.017-.044.024-.066.018-.055.034-.112.048-.169.005-.021.011-.042.016-.063.013-.06.023-.122.031-.183,0-.019.007-.037.009-.056a2.265,2.265,0,0,0,.014-.244A2.325,2.325,0,0,0,237.578,250.842Z" transform="translate(-197.501 -237.611)"/></g></g><g transform="translate(0 59.798)"><path class="a" d="M53.136,82.72a31.65,31.65,0,0,0-3.327-2.866l3.216-3.9a2.257,2.257,0,0,0-3.482-2.873L45.977,77.4a30.922,30.922,0,0,0-12.532-3.634V71.736h4.54a4.19,4.19,0,0,0,4.185-4.185V63.983A4.19,4.19,0,0,0,37.985,59.8H24.21a4.19,4.19,0,0,0-4.185,4.185v3.568a4.19,4.19,0,0,0,4.185,4.185h4.722v2.037a30.933,30.933,0,0,0-12.658,3.7l-3.621-4.389A2.257,2.257,0,1,0,9.17,75.956l3.285,3.981a31.654,31.654,0,0,0-3.426,2.994,31.188,31.188,0,0,0,22.154,53.136h.155a31.189,31.189,0,0,0,21.8-53.347Zm-28.6-15.5V64.312H37.656v2.909Zm25.6,56.428a26.5,26.5,0,0,1-18.824,7.9h-.132A26.674,26.674,0,0,1,31.06,78.2h.132a26.674,26.674,0,0,1,18.949,45.445Z" transform="translate(0 -59.798)"/></g><g transform="translate(7.245 80.935)"><path class="a" d="M48.018,130.033H47.9a23.944,23.944,0,0,0,.112,47.887h.119a23.944,23.944,0,0,0-.114-47.887Zm13.8,37.616a19.3,19.3,0,0,1-13.711,5.757h-.1a19.43,19.43,0,0,1-.09-38.859h.094a19.43,19.43,0,0,1,13.8,33.1Z" transform="translate(-24.073 -130.033)"/></g><g transform="translate(15.28 93.942)"><g transform="translate(0 0)"><path class="a" d="M188.138,203.481h0c-3.306-3.744-6.719-7.647-10.433-11.932a5.971,5.971,0,0,0-4.527-2.012l-18.972-.026c.576-3.569,1.133-7.122,1.645-10.6a4.859,4.859,0,0,0-4.887-5.631c-15.8,0-24.228-.01-37.615-.019l-8.523-.006h0a2.257,2.257,0,0,0,0,4.514l8.523.006c13.387.008,21.817.014,37.616.019a.463.463,0,0,1,.353.119.454.454,0,0,1,.069.35c-1.1,7.45-2.4,15.261-3.675,22.86-1.86,10.968-3.763,22.218-5.2,33.189-.006.044-.012.089-.018.133h-4.757l-3.417,0-2.1,0-3.972,0-1.563,0-4.625-.007-.944,0-10.84-.021h-.46l-11.2-.024-11.428-.025a13.115,13.115,0,0,0-4.589-4.815c-.06-.037-.12-.075-.181-.111-.1-.06-.2-.118-.308-.175s-.177-.1-.267-.144-.179-.093-.269-.138c-.115-.057-.232-.112-.349-.165-.072-.033-.144-.067-.216-.1-.194-.085-.39-.166-.589-.241s-.41-.149-.617-.215c-.113-.036-.227-.068-.341-.1-.089-.026-.178-.054-.267-.077-.157-.042-.315-.079-.473-.116l-.126-.029c-.19-.042-.38-.078-.571-.11l-.018,0a13.08,13.08,0,0,0-6.181.451l-.017.005c-.162.052-.324.108-.485.166l-.187.068c-.125.047-.251.1-.376.148-.053.021-.106.041-.159.063s-.1.046-.153.068l-.227.1q-.227.1-.449.215c-.035.017-.071.033-.106.051l-.027.015q-.276.141-.547.295c-.076.043-.149.088-.224.132-.1.059-.2.119-.3.18s-.2.127-.3.193l-.177.118a15.326,15.326,0,0,0-4.191,4.239l-2.386,0-5.337-.006c.418-2.579,1.112-6.863,1.934-11.941a2.257,2.257,0,0,0-4.456-.721C52.3,230,51.291,236.2,51.291,236.2s0,.011,0,.017,0,.011,0,.017l-.451,3.07a5.813,5.813,0,0,0,5.749,6.66l4.867,0a14.892,14.892,0,0,0,.79,2.76,13.173,13.173,0,0,0,7.6,7.634,12.766,12.766,0,0,0,4.536.83,14.91,14.91,0,0,0,13.628-9.9c.163-.429.3-.863.429-1.3,15.908.018,33.586.042,49.106.062l6.109.008h.006c1.453,0,2.912,0,4.367,0h.4a14.876,14.876,0,0,0,.771,2.661,13.173,13.173,0,0,0,7.6,7.634,12.855,12.855,0,0,0,4.564.838,13.625,13.625,0,0,0,6.187-1.52,15.494,15.494,0,0,0,7.413-8.389c.149-.394.28-.792.4-1.192h.122q1.345,0,2.691,0a6.745,6.745,0,0,0,6.559-5.572c1.668-10.849,3.412-22.283,4.789-32.343A5.9,5.9,0,0,0,188.138,203.481ZM61.8,238.883c-.026.09-.048.181-.072.271-.035.133-.071.266-.1.4-.027.113-.05.227-.075.341s-.046.214-.067.321c-.028.142-.051.285-.075.428-.012.073-.025.147-.036.22-.026.175-.049.351-.07.526,0,.022-.006.043-.009.065l-4.713,0a1.3,1.3,0,0,1-1.284-1.489l.168-1.14q3.017,0,6.034.005h.314C61.812,238.847,61.808,238.865,61.8,238.883Zm22.593,4.5c0,.012,0,.025,0,.037a11.714,11.714,0,0,1-.608,2.274c-2.033,5.364-7.569,8.258-12.344,6.449a8.712,8.712,0,0,1-5-5.07,10.49,10.49,0,0,1-.714-3.362c0-.028,0-.057,0-.085a11.229,11.229,0,0,1,.063-1.7v-.011c.019-.169.043-.336.07-.5.005-.034.011-.068.017-.1.023-.138.05-.275.079-.412.011-.053.021-.106.033-.158.027-.121.057-.242.088-.363.016-.061.03-.122.047-.184.033-.12.07-.239.107-.358.018-.058.034-.116.053-.174.057-.175.118-.35.184-.523l0-.008c.085-.225.18-.447.279-.666l.063-.139c.1-.223.213-.443.33-.657l.028-.048a10.033,10.033,0,0,1,9.818-5.385c.074.01.149.018.223.03.1.015.19.034.284.052.182.037.364.076.544.125.043.011.086.025.129.038.215.062.43.13.641.21q.208.079.409.168c.084.037.167.078.25.118.048.023.1.044.143.068.114.057.226.119.337.181l.041.022A8.852,8.852,0,0,1,83.7,237.5,10.7,10.7,0,0,1,84.4,243.383Zm57.235-1.835-4.084-.006c-15.32-.02-32.748-.044-48.5-.061a15.236,15.236,0,0,0-.248-2.61l9.795.021c6.677.015,13.458.03,20.269.042l1.638,0,3.159.005,2.665,0,2.456,0,3.384,0,2.008,0,3.745,0h4Q141.775,240.257,141.631,241.547Zm29.708,1.925c0,.009,0,.018,0,.027a11.736,11.736,0,0,1-.595,2.2,10.986,10.986,0,0,1-5.239,5.965,8.539,8.539,0,0,1-12.106-4.586,10.481,10.481,0,0,1-.711-3.315c0-.016,0-.032,0-.049a11.185,11.185,0,0,1,.051-1.707c0-.029.007-.057.01-.085q.025-.22.06-.439.014-.086.028-.171c.02-.119.043-.237.067-.355.014-.07.029-.141.044-.211.024-.109.051-.217.079-.325.019-.073.036-.147.057-.22.031-.114.066-.228.1-.342.02-.064.038-.129.059-.192.058-.177.119-.353.185-.528a10.987,10.987,0,0,1,5.239-5.965c.157-.08.315-.154.474-.225.051-.023.1-.043.154-.065.108-.046.217-.091.326-.132l.182-.067q.152-.055.3-.1l.189-.058c.1-.03.2-.058.307-.085l.185-.047c.11-.026.219-.049.329-.071l.162-.033q.217-.039.435-.067l.056-.008c.165-.02.33-.035.495-.045l.133-.005c.119-.006.239-.01.358-.011l.125,0c.224,0,.447.01.67.03h.018c.225.02.449.052.671.091l.121.021q.322.061.641.147l.116.034c.219.063.438.132.653.214.132.05.261.1.389.16.079.035.156.072.233.109l.129.061C170.07,234.788,172.074,239.045,171.339,243.472Zm13.71-35.892c-1.372,10.023-3.113,21.436-4.778,32.264a2.259,2.259,0,0,1-2.1,1.746l-2.162,0a15.04,15.04,0,0,0-1.042-5.49,13.24,13.24,0,0,0-6.531-7.169q-.13-.064-.263-.124c-.082-.037-.163-.075-.245-.111-.185-.08-.372-.158-.562-.23a13.036,13.036,0,0,0-9.44.094q-.663.258-1.311.588a15.493,15.493,0,0,0-7.413,8.389c-.11.291-.209.584-.3.878-.027.085-.052.171-.078.256q-.107.358-.2.717c-.016.063-.033.126-.048.189q-.105.446-.183.895c-.011.063-.02.126-.03.188q-.067.41-.113.822c0,.025-.008.05-.01.075h-.213l-1.854,0c.175-1.532.36-3.077.464-3.938.037-.3.073-.6.11-.9,1.4-10.942,3.334-22.479,5.208-33.641l.188-1.124.064-.377q.646-3.81,1.276-7.553l19.685.026a1.449,1.449,0,0,1,1.122.455c3.723,4.3,7.145,8.208,10.46,11.963A1.368,1.368,0,0,1,185.049,207.58Z" transform="translate(-50.773 -173.254)"/></g></g><g transform="translate(116.995 117.833)"><path class="a" d="M417.223,263.129c-2.72-3.1-5.412-6.19-8-9.185a3.8,3.8,0,0,0-2.876-1.291l-10.746-.015h0a4.394,4.394,0,0,0-4.256,3.6l-.324,1.99c-.732,4.5-1.489,9.148-2.212,13.729h0a3.733,3.733,0,0,0,.831,3.012,3.809,3.809,0,0,0,2.909,1.31l20.354.015h0a4.36,4.36,0,0,0,4.261-3.643c.379-2.607.567-3.91.94-6.515A3.749,3.749,0,0,0,417.223,263.129Zm-4.5,8.655-19.322-.014c.678-4.28,1.383-8.613,2.067-12.813l.294-1.8,10.277.014c2.446,2.828,4.982,5.739,7.544,8.66C413.253,268.143,413.066,269.435,412.725,271.784Z" transform="translate(-388.755 -252.638)"/></g><ellipse class="a" cx="2.5" cy="3" rx="2.5" ry="3" transform="translate(37.803 158.898) rotate(14)"/><ellipse class="a" cx="2.5" cy="3" rx="2.5" ry="3" transform="translate(124.803 158.898) rotate(14)"/></g></svg>