<svg xmlns="http://www.w3.org/2000/svg" width="66.877" height="69.076" viewBox="0 0 66.877 69.076"><defs><style>.a{fill:#f2d649;}</style></defs><g transform="translate(0 0)"><g transform="translate(2.534)"><g transform="translate(0)"><path class="a" d="M192.6,108.7h.054a4.531,4.531,0,0,0,4.477-4.583L197,92.981a4.53,4.53,0,0,0-9.059.106l.131,11.135A4.529,4.529,0,0,0,192.6,108.7Z" transform="translate(-187.94 -88.505)"/></g><g transform="translate(26.111 5.983)"><path class="a" d="M161.124,111.816a4.525,4.525,0,0,0,3.8-2.066l5.361-8.268a4.53,4.53,0,1,0-7.6-4.928l-5.361,8.267a4.531,4.531,0,0,0,3.8,7Z" transform="translate(-156.598 -94.488)"/></g><g transform="translate(44.461 29.497)"><path class="a" d="M138.857,130.648a4.494,4.494,0,0,0,1.63-.306l9.283-3.584a4.53,4.53,0,0,0-3.263-8.451l-9.283,3.584a4.531,4.531,0,0,0,1.633,8.757Z" transform="translate(-134.325 -118.002)"/></g><g transform="translate(44.839 57.572)"><path class="a" d="M147.764,157.581a4.531,4.531,0,0,0,1.028-8.942L138.351,146.2a4.53,4.53,0,1,0-2.064,8.821l10.442,2.443A4.544,4.544,0,0,0,147.764,157.581Z" transform="translate(-132.788 -146.077)"/></g></g><g transform="translate(0 27.657)"><path class="a" d="M193.79,153.616a4.532,4.532,0,0,0,4.24-2.933A25.53,25.53,0,0,0,163.678,118.4a4.53,4.53,0,1,0,3.72,8.261,16.472,16.472,0,0,1,22.155,20.824,4.533,4.533,0,0,0,4.237,6.129Z" transform="translate(-161.007 -116.162)"/></g></g></svg>