<svg xmlns="http://www.w3.org/2000/svg" width="1693.341" height="790.211" viewBox="0 0 1693.341 790.211"><defs><style>.a{fill:#3776b8;}</style></defs><g transform="translate(-100.523 -36.576)"><path class="a" d="M192.471,108.7h-.054a4.531,4.531,0,0,1-4.477-4.583l.131-11.134a4.53,4.53,0,0,1,9.059.106L197,104.222A4.529,4.529,0,0,1,192.471,108.7Z"/><path class="a" d="M166.493,111.816a4.525,4.525,0,0,1-3.8-2.066l-5.361-8.268a4.53,4.53,0,0,1,7.6-4.928l5.361,8.267a4.531,4.531,0,0,1-3.8,7Z"/><path class="a" d="M148.137,130.648a4.494,4.494,0,0,1-1.63-.306l-9.283-3.584a4.53,4.53,0,0,1,3.263-8.451l9.283,3.584a4.531,4.531,0,0,1-1.633,8.757Z"/><path class="a" d="M137.315,157.581a4.531,4.531,0,0,1-1.028-8.942l10.441-2.442a4.53,4.53,0,1,1,2.064,8.821l-10.442,2.443A4.544,4.544,0,0,1,137.315,157.581Z"/><path class="a" d="M166.881,153.616a4.532,4.532,0,0,1-4.24-2.933A25.53,25.53,0,0,1,196.993,118.4a4.53,4.53,0,1,1-3.72,8.261,16.472,16.472,0,0,0-22.155,20.824,4.533,4.533,0,0,1-4.237,6.129Z"/><path class="a" d="M363.8,645.473h-.054a4.529,4.529,0,0,1-4.476-4.583l.131-11.134a4.53,4.53,0,1,1,9.059.107L368.324,641A4.531,4.531,0,0,1,363.8,645.473Z"/><path class="a" d="M337.818,648.59a4.528,4.528,0,0,1-3.806-2.066l-5.36-8.267a4.53,4.53,0,1,1,7.6-4.929l5.36,8.268a4.529,4.529,0,0,1-3.8,6.994Z"/><path class="a" d="M319.462,667.422a4.524,4.524,0,0,1-1.631-.3l-9.283-3.584a4.53,4.53,0,0,1,3.264-8.452l9.282,3.584a4.531,4.531,0,0,1-1.632,8.757Z"/><path class="a" d="M308.639,694.355a4.53,4.53,0,0,1-1.028-8.941l10.442-2.443a4.53,4.53,0,0,1,2.063,8.822l-10.441,2.442A4.553,4.553,0,0,1,308.639,694.355Z"/><path class="a" d="M338.2,690.39a4.531,4.531,0,0,1-4.239-2.932,25.529,25.529,0,0,1,34.352-32.281,4.53,4.53,0,0,1-3.72,8.261,16.471,16.471,0,0,0-22.155,20.823,4.531,4.531,0,0,1-4.238,6.129Z"/><path class="a" d="M612.132,200.485h-.055A4.53,4.53,0,0,1,607.6,195.9l.131-11.134a4.53,4.53,0,0,1,9.059.107l-.131,11.134A4.53,4.53,0,0,1,612.132,200.485Z"/><path class="a" d="M586.154,203.6a4.525,4.525,0,0,1-3.8-2.066l-5.361-8.267a4.53,4.53,0,1,1,7.6-4.929l5.361,8.268a4.53,4.53,0,0,1-3.8,6.994Z"/><path class="a" d="M567.8,222.434a4.523,4.523,0,0,1-1.631-.305l-9.282-3.584a4.53,4.53,0,0,1,3.263-8.452l9.283,3.584a4.531,4.531,0,0,1-1.633,8.757Z"/><path class="a" d="M556.976,249.367a4.53,4.53,0,0,1-1.028-8.941l10.441-2.443a4.53,4.53,0,0,1,2.064,8.822l-10.442,2.442A4.55,4.55,0,0,1,556.976,249.367Z"/><path class="a" d="M586.541,245.4a4.531,4.531,0,0,1-4.239-2.932,25.53,25.53,0,0,1,34.352-32.281,4.53,4.53,0,0,1-3.72,8.261,16.471,16.471,0,0,0-22.155,20.823,4.531,4.531,0,0,1-4.238,6.129Z"/><path class="a" d="M1013.683,590.416h-.055a4.53,4.53,0,0,1-4.476-4.583l.131-11.134a4.53,4.53,0,1,1,9.059.107l-.131,11.134A4.53,4.53,0,0,1,1013.683,590.416Z"/><path class="a" d="M987.705,593.533a4.525,4.525,0,0,1-3.8-2.066l-5.361-8.267a4.53,4.53,0,1,1,7.6-4.929l5.361,8.268a4.53,4.53,0,0,1-3.8,6.994Z"/><path class="a" d="M969.349,612.365a4.514,4.514,0,0,1-1.63-.3l-9.283-3.584a4.53,4.53,0,0,1,3.263-8.452l9.283,3.584a4.531,4.531,0,0,1-1.633,8.757Z"/><path class="a" d="M958.527,639.3a4.53,4.53,0,0,1-1.028-8.941l10.441-2.443A4.53,4.53,0,1,1,970,636.735l-10.442,2.443A4.545,4.545,0,0,1,958.527,639.3Z"/><path class="a" d="M988.093,635.333a4.531,4.531,0,0,1-4.24-2.933,25.529,25.529,0,0,1,34.352-32.28,4.53,4.53,0,1,1-3.72,8.261A16.471,16.471,0,0,0,992.33,629.2a4.531,4.531,0,0,1-4.237,6.129Z"/><path class="a" d="M1259.25,86.287h-.054a4.53,4.53,0,0,1-4.476-4.583l.131-11.134a4.53,4.53,0,0,1,9.059.106l-.131,11.135A4.53,4.53,0,0,1,1259.25,86.287Z"/><path class="a" d="M1233.273,89.4a4.527,4.527,0,0,1-3.806-2.066l-5.36-8.268a4.53,4.53,0,1,1,7.6-4.928l5.36,8.267a4.53,4.53,0,0,1-3.8,6.995Z"/><path class="a" d="M1214.917,108.237a4.5,4.5,0,0,1-1.631-.306L1204,104.347a4.53,4.53,0,1,1,3.264-8.451l9.282,3.584a4.531,4.531,0,0,1-1.632,8.757Z"/><path class="a" d="M1204.094,135.17a4.531,4.531,0,0,1-1.028-8.942l10.442-2.442a4.53,4.53,0,0,1,2.063,8.821l-10.441,2.443A4.553,4.553,0,0,1,1204.094,135.17Z"/><path class="a" d="M1233.66,131.205a4.53,4.53,0,0,1-4.239-2.933,25.53,25.53,0,0,1,34.352-32.281,4.53,4.53,0,0,1-3.72,8.261,16.472,16.472,0,0,0-22.155,20.824,4.533,4.533,0,0,1-4.238,6.129Z"/><path class="a" d="M660.4,410.8l-.054.006a4.53,4.53,0,0,1-4.975-4.035l-1.157-11.075a4.53,4.53,0,0,1,9.011-.941l1.156,11.075A4.53,4.53,0,0,1,660.4,410.8Z"/><path class="a" d="M634.954,416.893a4.525,4.525,0,0,1-4.018-1.612l-6.28-7.594a4.53,4.53,0,0,1,6.982-5.773l6.28,7.593a4.53,4.53,0,0,1-2.964,7.386Z"/><path class="a" d="M618.9,437.719a4.507,4.507,0,0,1-1.655-.115l-9.634-2.488a4.53,4.53,0,0,1,2.265-8.772l9.635,2.488a4.531,4.531,0,0,1-.611,8.887Z"/><path class="a" d="M611.257,465.722a4.531,4.531,0,0,1-2.054-8.763l10.09-3.632a4.53,4.53,0,1,1,3.068,8.524l-10.089,3.632A4.489,4.489,0,0,1,611.257,465.722Z"/><path class="a" d="M640.167,458.368a4.53,4.53,0,0,1-4.549-2.423,25.529,25.529,0,0,1,30.393-36.032,4.53,4.53,0,1,1-2.741,8.635,16.471,16.471,0,0,0-19.6,23.243,4.531,4.531,0,0,1-3.5,6.577Z"/><path class="a" d="M434.393,118.891v-.054a4.53,4.53,0,0,1,4.454-4.6l11.133-.185a4.53,4.53,0,0,1,.15,9.059L439,123.291A4.53,4.53,0,0,1,434.393,118.891Z"/><path class="a" d="M430.54,93.012A4.523,4.523,0,0,1,432.5,89.15l8.112-5.593a4.53,4.53,0,0,1,5.143,7.459l-8.113,5.593a4.53,4.53,0,0,1-7.1-3.6Z"/><path class="a" d="M411.2,75.2a4.52,4.52,0,0,1,.259-1.638l3.319-9.381a4.53,4.53,0,0,1,8.541,3.022l-3.319,9.381a4.531,4.531,0,0,1-8.8-1.384Z"/><path class="a" d="M383.966,65.143a4.531,4.531,0,0,1,8.909-1.281l2.737,10.368a4.53,4.53,0,0,1-8.759,2.313l-2.738-10.368A4.568,4.568,0,0,1,383.966,65.143Z"/><path class="a" d="M388.768,94.584a4.529,4.529,0,0,1,2.811-4.32,25.53,25.53,0,0,1,33.242,33.423,4.53,4.53,0,1,1-8.363-3.485,16.47,16.47,0,0,0-21.443-21.555,4.531,4.531,0,0,1-6.247-4.063Z"/><path class="a" d="M373.848,489.8v-.054a4.53,4.53,0,0,1,4.454-4.6l11.134-.185a4.53,4.53,0,1,1,.15,9.058l-11.133.185A4.532,4.532,0,0,1,373.848,489.8Z"/><path class="a" d="M369.995,463.926a4.526,4.526,0,0,1,1.958-3.862l8.112-5.593a4.53,4.53,0,1,1,5.142,7.459l-8.112,5.593a4.531,4.531,0,0,1-7.1-3.6Z"/><path class="a" d="M350.651,446.112a4.522,4.522,0,0,1,.259-1.639l3.319-9.38a4.53,4.53,0,1,1,8.541,3.022l-3.32,9.38a4.53,4.53,0,0,1-8.8-1.383Z"/><path class="a" d="M323.422,436.057a4.53,4.53,0,0,1,8.908-1.281l2.738,10.368a4.53,4.53,0,0,1-8.759,2.313l-2.738-10.368A4.5,4.5,0,0,1,323.422,436.057Z"/><path class="a" d="M328.223,465.5a4.531,4.531,0,0,1,2.812-4.321A25.529,25.529,0,0,1,364.276,494.6a4.53,4.53,0,0,1-8.363-3.484,16.472,16.472,0,0,0-21.443-21.556,4.534,4.534,0,0,1-6.247-4.062Z"/><path class="a" d="M178.241,796.909v-.054a4.53,4.53,0,0,1,4.454-4.6l11.133-.185a4.53,4.53,0,0,1,.151,9.059l-11.134.185A4.53,4.53,0,0,1,178.241,796.909Z"/><path class="a" d="M174.388,771.03a4.528,4.528,0,0,1,1.957-3.862l8.113-5.593a4.53,4.53,0,0,1,5.142,7.459l-8.113,5.593a4.53,4.53,0,0,1-7.1-3.6Z"/><path class="a" d="M155.044,753.215a4.5,4.5,0,0,1,.258-1.638l3.32-9.381a4.53,4.53,0,1,1,8.54,3.023l-3.319,9.38a4.53,4.53,0,0,1-8.8-1.384Z"/><path class="a" d="M127.814,743.161a4.531,4.531,0,0,1,8.909-1.281l2.738,10.368a4.53,4.53,0,0,1-8.76,2.313l-2.737-10.368A4.569,4.569,0,0,1,127.814,743.161Z"/><path class="a" d="M132.616,772.6a4.531,4.531,0,0,1,2.811-4.321,25.529,25.529,0,0,1,33.242,33.423,4.53,4.53,0,0,1-8.363-3.485,16.47,16.47,0,0,0-21.443-21.555,4.532,4.532,0,0,1-6.247-4.062Z"/><path class="a" d="M522.829,348.934l-.039-.037a4.531,4.531,0,0,1-.107-6.406l7.742-8a4.53,4.53,0,0,1,6.512,6.3l-7.742,8A4.529,4.529,0,0,1,522.829,348.934Z"/><path class="a" d="M501.8,333.36a4.528,4.528,0,0,1-1.347-4.115l1.782-9.691a4.53,4.53,0,1,1,8.91,1.638l-1.781,9.691a4.531,4.531,0,0,1-7.564,2.477Z"/><path class="a" d="M475.53,334.441a4.5,4.5,0,0,1-.976-1.341l-4.286-8.98a4.53,4.53,0,1,1,8.176-3.9l4.286,8.98a4.53,4.53,0,0,1-7.2,5.243Z"/><path class="a" d="M449.166,346.586a4.53,4.53,0,0,1,5.394-7.2l9.267,5.395a4.53,4.53,0,1,1-4.559,7.829L450,347.21A4.543,4.543,0,0,1,449.166,346.586Z"/><path class="a" d="M473.38,364.009a4.533,4.533,0,0,1-1.068-5.043,25.529,25.529,0,0,1,47.139.128,4.53,4.53,0,0,1-8.377,3.45,16.471,16.471,0,0,0-30.4-.08,4.531,4.531,0,0,1-7.289,1.545Z"/><path class="a" d="M175.6,304.649l-.039-.038a4.53,4.53,0,0,1-.107-6.4l7.742-8a4.53,4.53,0,0,1,6.512,6.3l-7.742,8A4.53,4.53,0,0,1,175.6,304.649Z"/><path class="a" d="M154.578,289.074a4.528,4.528,0,0,1-1.347-4.115l1.782-9.691a4.53,4.53,0,1,1,8.91,1.638l-1.781,9.692a4.53,4.53,0,0,1-7.564,2.476Z"/><path class="a" d="M128.3,290.156a4.52,4.52,0,0,1-.976-1.342l-4.286-8.98a4.53,4.53,0,0,1,8.177-3.9l4.285,8.98a4.53,4.53,0,0,1-7.2,5.244Z"/><path class="a" d="M101.939,302.3a4.53,4.53,0,0,1,5.394-7.2l9.267,5.395a4.53,4.53,0,0,1-4.558,7.83l-9.267-5.4A4.54,4.54,0,0,1,101.939,302.3Z"/><path class="a" d="M126.153,319.723a4.531,4.531,0,0,1-1.067-5.043,25.53,25.53,0,0,1,47.139.128,4.53,4.53,0,0,1-8.378,3.45,16.469,16.469,0,0,0-30.4-.079,4.532,4.532,0,0,1-7.29,1.544Z"/><path class="a" d="M1566.781,400.963h-.054a4.53,4.53,0,0,1-4.477-4.583l.131-11.134a4.53,4.53,0,1,1,9.059.107l-.13,11.134A4.531,4.531,0,0,1,1566.781,400.963Z"/><path class="a" d="M1540.8,404.081a4.526,4.526,0,0,1-3.8-2.066l-5.361-8.268a4.53,4.53,0,0,1,7.6-4.928l5.361,8.268a4.53,4.53,0,0,1-3.8,6.994Z"/><path class="a" d="M1522.447,422.913a4.5,4.5,0,0,1-1.63-.306l-9.283-3.583a4.53,4.53,0,0,1,3.263-8.452l9.283,3.584a4.531,4.531,0,0,1-1.633,8.757Z"/><path class="a" d="M1511.625,449.846a4.531,4.531,0,0,1-1.028-8.942l10.441-2.442a4.53,4.53,0,1,1,2.064,8.821l-10.441,2.443A4.553,4.553,0,0,1,1511.625,449.846Z"/><path class="a" d="M1541.191,445.881a4.533,4.533,0,0,1-4.24-2.933,25.529,25.529,0,0,1,34.352-32.28,4.53,4.53,0,1,1-3.72,8.26,16.472,16.472,0,0,0-22.155,20.824,4.531,4.531,0,0,1-4.237,6.129Z"/><path class="a" d="M1653.82,121.431v-.054a4.529,4.529,0,0,1,4.454-4.6l11.133-.185a4.53,4.53,0,0,1,.15,9.058l-11.133.185A4.53,4.53,0,0,1,1653.82,121.431Z"/><path class="a" d="M1649.967,95.553a4.526,4.526,0,0,1,1.957-3.863l8.112-5.593a4.53,4.53,0,0,1,5.143,7.46l-8.113,5.592a4.529,4.529,0,0,1-7.1-3.6Z"/><path class="a" d="M1630.622,77.738a4.525,4.525,0,0,1,.259-1.639l3.319-9.38a4.53,4.53,0,0,1,8.541,3.022l-3.319,9.381a4.531,4.531,0,0,1-8.8-1.384Z"/><path class="a" d="M1603.393,67.683A4.531,4.531,0,0,1,1612.3,66.4l2.737,10.368a4.53,4.53,0,1,1-8.759,2.313l-2.738-10.368A4.555,4.555,0,0,1,1603.393,67.683Z"/><path class="a" d="M1608.195,97.125a4.533,4.533,0,0,1,2.811-4.321,25.531,25.531,0,0,1,33.242,33.423,4.53,4.53,0,0,1-8.363-3.484,16.472,16.472,0,0,0-21.443-21.556,4.531,4.531,0,0,1-6.247-4.062Z"/><path class="a" d="M1764.932,471.066v-.054a4.531,4.531,0,0,1,4.454-4.6l11.134-.185a4.53,4.53,0,0,1,.15,9.059l-11.133.185A4.531,4.531,0,0,1,1764.932,471.066Z"/><path class="a" d="M1761.079,445.187a4.526,4.526,0,0,1,1.958-3.862l8.112-5.593a4.53,4.53,0,1,1,5.142,7.459l-8.112,5.593a4.531,4.531,0,0,1-7.1-3.6Z"/><path class="a" d="M1741.735,427.372a4.5,4.5,0,0,1,.259-1.638l3.319-9.381a4.53,4.53,0,0,1,8.541,3.023l-3.32,9.38a4.53,4.53,0,0,1-8.8-1.384Z"/><path class="a" d="M1714.506,417.318a4.53,4.53,0,0,1,8.908-1.281l2.738,10.368a4.53,4.53,0,0,1-8.759,2.313l-2.738-10.368A4.51,4.51,0,0,1,1714.506,417.318Z"/><path class="a" d="M1719.307,446.76a4.53,4.53,0,0,1,2.812-4.321,25.529,25.529,0,0,1,33.241,33.423,4.53,4.53,0,0,1-8.363-3.485,16.47,16.47,0,0,0-21.443-21.555,4.534,4.534,0,0,1-6.247-4.062Z"/><path class="a" d="M1529.213,241.5l-.039-.038a4.53,4.53,0,0,1-.107-6.4l7.742-8a4.53,4.53,0,0,1,6.512,6.3l-7.742,8A4.53,4.53,0,0,1,1529.213,241.5Z"/><path class="a" d="M1508.189,225.926a4.528,4.528,0,0,1-1.347-4.115l1.782-9.691a4.53,4.53,0,0,1,8.91,1.638l-1.781,9.691a4.531,4.531,0,0,1-7.564,2.477Z"/><path class="a" d="M1481.914,227.008a4.523,4.523,0,0,1-.976-1.342l-4.286-8.98a4.53,4.53,0,1,1,8.176-3.9l4.286,8.98a4.53,4.53,0,0,1-7.2,5.244Z"/><path class="a" d="M1455.55,239.152a4.53,4.53,0,0,1,5.394-7.2l9.267,5.395a4.53,4.53,0,0,1-4.559,7.829l-9.267-5.4A4.562,4.562,0,0,1,1455.55,239.152Z"/><path class="a" d="M1479.764,256.575a4.532,4.532,0,0,1-1.068-5.043,25.529,25.529,0,0,1,47.139.128,4.53,4.53,0,1,1-8.377,3.45,16.47,16.47,0,0,0-30.4-.08,4.532,4.532,0,0,1-7.29,1.545Z"/><path class="a" d="M1172.62,445.217l-.04-.038a4.53,4.53,0,0,1-.106-6.4l7.742-8a4.53,4.53,0,1,1,6.511,6.3l-7.741,8A4.53,4.53,0,0,1,1172.62,445.217Z"/><path class="a" d="M1151.6,429.642a4.526,4.526,0,0,1-1.347-4.115l1.782-9.691a4.53,4.53,0,0,1,8.91,1.638l-1.782,9.691a4.531,4.531,0,0,1-7.563,2.477Z"/><path class="a" d="M1125.321,430.724a4.52,4.52,0,0,1-.976-1.342l-4.286-8.98a4.53,4.53,0,0,1,8.176-3.9l4.286,8.98a4.53,4.53,0,0,1-7.2,5.244Z"/><path class="a" d="M1098.957,442.868a4.53,4.53,0,0,1,5.394-7.205l9.267,5.4a4.53,4.53,0,1,1-4.559,7.829l-9.267-5.395A4.5,4.5,0,0,1,1098.957,442.868Z"/><path class="a" d="M1123.171,460.291a4.529,4.529,0,0,1-1.068-5.043,25.529,25.529,0,0,1,47.139.128,4.53,4.53,0,1,1-8.377,3.45,16.471,16.471,0,0,0-30.405-.08,4.531,4.531,0,0,1-7.289,1.545Z"/><path class="a" d="M1368.945,436.911v-.054a4.529,4.529,0,0,1,4.454-4.6l11.133-.185a4.53,4.53,0,0,1,.15,9.058l-11.133.185A4.53,4.53,0,0,1,1368.945,436.911Z"/><path class="a" d="M1365.092,411.033a4.526,4.526,0,0,1,1.957-3.863l8.112-5.593a4.53,4.53,0,0,1,5.143,7.459l-8.113,5.593a4.53,4.53,0,0,1-7.1-3.6Z"/><path class="a" d="M1345.747,393.218a4.525,4.525,0,0,1,.259-1.639l3.319-9.38a4.53,4.53,0,0,1,8.541,3.022l-3.319,9.381a4.531,4.531,0,0,1-8.8-1.384Z"/><path class="a" d="M1318.518,383.163a4.531,4.531,0,0,1,8.909-1.281l2.737,10.368a4.53,4.53,0,1,1-8.759,2.313l-2.738-10.368A4.555,4.555,0,0,1,1318.518,383.163Z"/><path class="a" d="M1323.32,412.605a4.532,4.532,0,0,1,2.811-4.321,25.531,25.531,0,0,1,33.242,33.423,4.53,4.53,0,0,1-8.363-3.484,16.472,16.472,0,0,0-21.443-21.556,4.531,4.531,0,0,1-6.247-4.062Z"/><path class="a" d="M568.279,803.556l-.039-.038a4.529,4.529,0,0,1-.106-6.405l7.741-8a4.53,4.53,0,0,1,6.512,6.3l-7.742,8A4.53,4.53,0,0,1,568.279,803.556Z"/><path class="a" d="M547.255,787.982a4.53,4.53,0,0,1-1.347-4.116l1.782-9.691a4.53,4.53,0,1,1,8.91,1.639l-1.781,9.691a4.531,4.531,0,0,1-7.564,2.477Z"/><path class="a" d="M520.98,789.063a4.507,4.507,0,0,1-.976-1.342l-4.286-8.98a4.53,4.53,0,0,1,8.177-3.9l4.286,8.98a4.531,4.531,0,0,1-7.2,5.244Z"/><path class="a" d="M494.616,801.208A4.531,4.531,0,0,1,500.01,794l9.267,5.4a4.53,4.53,0,0,1-4.558,7.829l-9.267-5.4A4.583,4.583,0,0,1,494.616,801.208Z"/><path class="a" d="M518.83,818.631a4.532,4.532,0,0,1-1.067-5.044,25.53,25.53,0,0,1,47.139.129,4.53,4.53,0,0,1-8.378,3.449,16.47,16.47,0,0,0-30.4-.079,4.534,4.534,0,0,1-7.29,1.545Z"/><path class="a" d="M777.886,613.7l-.039-.038a4.529,4.529,0,0,1-.106-6.4l7.742-8a4.53,4.53,0,0,1,6.511,6.3l-7.742,8A4.53,4.53,0,0,1,777.886,613.7Z"/><path class="a" d="M756.863,598.123a4.523,4.523,0,0,1-1.347-4.115l1.781-9.691a4.53,4.53,0,0,1,8.911,1.638l-1.782,9.691a4.531,4.531,0,0,1-7.563,2.477Z"/><path class="a" d="M730.587,599.205a4.518,4.518,0,0,1-.975-1.342l-4.286-8.98a4.53,4.53,0,1,1,8.176-3.9l4.286,8.98a4.531,4.531,0,0,1-7.2,5.244Z"/><path class="a" d="M704.224,611.349a4.53,4.53,0,0,1,5.393-7.205l9.267,5.4a4.53,4.53,0,1,1-4.558,7.829l-9.267-5.395A4.5,4.5,0,0,1,704.224,611.349Z"/><path class="a" d="M728.437,628.772a4.53,4.53,0,0,1-1.067-5.043,25.53,25.53,0,0,1,47.139.128,4.53,4.53,0,1,1-8.377,3.45,16.471,16.471,0,0,0-30.405-.08,4.532,4.532,0,0,1-7.29,1.545Z"/><path class="a" d="M1461.058,105l-.039-.037a4.529,4.529,0,0,1-.106-6.4l7.741-8a4.53,4.53,0,1,1,6.512,6.3l-7.742,8A4.529,4.529,0,0,1,1461.058,105Z"/><path class="a" d="M1440.035,89.423a4.524,4.524,0,0,1-1.347-4.115l1.781-9.691a4.53,4.53,0,0,1,8.911,1.638l-1.782,9.691a4.53,4.53,0,0,1-7.563,2.477Z"/><path class="a" d="M1413.759,90.5a4.515,4.515,0,0,1-.975-1.342l-4.286-8.98a4.53,4.53,0,1,1,8.176-3.9l4.286,8.98a4.531,4.531,0,0,1-7.2,5.244Z"/><path class="a" d="M1387.4,102.649a4.53,4.53,0,0,1,5.393-7.205l9.267,5.395a4.53,4.53,0,1,1-4.558,7.829l-9.267-5.395A4.5,4.5,0,0,1,1387.4,102.649Z"/><path class="a" d="M1411.609,120.072a4.53,4.53,0,0,1-1.067-5.043,25.53,25.53,0,0,1,47.139.128,4.53,4.53,0,0,1-8.378,3.45,16.471,16.471,0,0,0-30.4-.08,4.532,4.532,0,0,1-7.29,1.545Z"/><path class="a" d="M1786.671,709.213h-.054a4.53,4.53,0,0,1-4.476-4.583l.131-11.134a4.53,4.53,0,1,1,9.059.106l-.131,11.134A4.53,4.53,0,0,1,1786.671,709.213Z"/><path class="a" d="M1760.694,712.331a4.528,4.528,0,0,1-3.806-2.066l-5.36-8.268a4.53,4.53,0,0,1,7.6-4.929l5.36,8.268a4.531,4.531,0,0,1-3.8,6.995Z"/><path class="a" d="M1742.338,731.162a4.523,4.523,0,0,1-1.631-.3l-9.283-3.584a4.53,4.53,0,1,1,3.264-8.451l9.282,3.584a4.53,4.53,0,0,1-1.632,8.756Z"/><path class="a" d="M1731.515,758.1a4.531,4.531,0,0,1-1.028-8.942l10.442-2.442a4.53,4.53,0,1,1,2.063,8.821l-10.441,2.443A4.553,4.553,0,0,1,1731.515,758.1Z"/><path class="a" d="M1761.081,754.131a4.53,4.53,0,0,1-4.239-2.933,25.53,25.53,0,0,1,34.352-32.281,4.53,4.53,0,0,1-3.72,8.261A16.471,16.471,0,0,0,1765.319,748a4.534,4.534,0,0,1-4.238,6.13Z"/><path class="a" d="M1335.554,777.9h-.055a4.53,4.53,0,0,1-4.476-4.583l.131-11.134a4.53,4.53,0,1,1,9.059.107l-.131,11.134A4.529,4.529,0,0,1,1335.554,777.9Z"/><path class="a" d="M1309.576,781.022a4.525,4.525,0,0,1-3.805-2.066l-5.361-8.268a4.53,4.53,0,1,1,7.6-4.928l5.361,8.267a4.53,4.53,0,0,1-3.8,6.995Z"/><path class="a" d="M1291.22,799.854a4.5,4.5,0,0,1-1.63-.306l-9.283-3.583a4.53,4.53,0,0,1,3.263-8.452l9.283,3.584a4.531,4.531,0,0,1-1.633,8.757Z"/><path class="a" d="M1280.4,826.787a4.531,4.531,0,0,1-1.028-8.942l10.441-2.442a4.53,4.53,0,1,1,2.064,8.821l-10.442,2.443A4.544,4.544,0,0,1,1280.4,826.787Z"/><path class="a" d="M1309.964,822.822a4.531,4.531,0,0,1-4.24-2.933,25.529,25.529,0,0,1,34.352-32.28,4.53,4.53,0,1,1-3.72,8.26,16.472,16.472,0,0,0-22.155,20.824,4.531,4.531,0,0,1-4.237,6.129Z"/><path class="a" d="M1439.909,656.072v-.055a4.529,4.529,0,0,1,4.454-4.6l11.133-.185a4.53,4.53,0,1,1,.151,9.059l-11.134.184A4.529,4.529,0,0,1,1439.909,656.072Z"/><path class="a" d="M1436.056,630.193a4.524,4.524,0,0,1,1.957-3.862l8.113-5.593a4.53,4.53,0,0,1,5.142,7.459l-8.113,5.593a4.531,4.531,0,0,1-7.1-3.6Z"/><path class="a" d="M1416.711,612.378a4.52,4.52,0,0,1,.259-1.638l3.32-9.381a4.529,4.529,0,1,1,8.54,3.022l-3.319,9.381a4.531,4.531,0,0,1-8.8-1.384Z"/><path class="a" d="M1389.482,602.324a4.53,4.53,0,0,1,8.909-1.281l2.738,10.367a4.53,4.53,0,1,1-8.76,2.313l-2.737-10.367A4.512,4.512,0,0,1,1389.482,602.324Z"/><path class="a" d="M1394.284,631.765a4.533,4.533,0,0,1,2.811-4.321,25.53,25.53,0,0,1,33.242,33.423,4.53,4.53,0,1,1-8.363-3.484,16.472,16.472,0,0,0-21.443-21.556,4.531,4.531,0,0,1-6.247-4.062Z"/><path class="a" d="M1147.771,762.37l-.039-.037a4.531,4.531,0,0,1-.107-6.406l7.742-8a4.53,4.53,0,0,1,6.512,6.3l-7.742,8A4.53,4.53,0,0,1,1147.771,762.37Z"/><path class="a" d="M1126.747,746.8a4.528,4.528,0,0,1-1.347-4.115l1.782-9.691a4.53,4.53,0,1,1,8.91,1.638l-1.781,9.691a4.531,4.531,0,0,1-7.564,2.477Z"/><path class="a" d="M1100.472,747.877a4.5,4.5,0,0,1-.976-1.341l-4.286-8.98a4.53,4.53,0,1,1,8.176-3.9l4.286,8.981a4.53,4.53,0,0,1-7.2,5.243Z"/><path class="a" d="M1074.108,760.022a4.53,4.53,0,0,1,5.394-7.2l9.267,5.395a4.53,4.53,0,1,1-4.559,7.829l-9.267-5.4A4.575,4.575,0,0,1,1074.108,760.022Z"/><path class="a" d="M1098.322,777.445a4.533,4.533,0,0,1-1.068-5.043,25.529,25.529,0,0,1,47.139.128,4.53,4.53,0,0,1-8.377,3.45,16.47,16.47,0,0,0-30.4-.08,4.534,4.534,0,0,1-7.29,1.545Z"/><path class="a" d="M1564.415,787.8l-.039-.037a4.53,4.53,0,0,1-.107-6.406l7.742-8a4.53,4.53,0,0,1,6.512,6.3l-7.742,8A4.53,4.53,0,0,1,1564.415,787.8Z"/><path class="a" d="M1543.391,772.225a4.526,4.526,0,0,1-1.347-4.115l1.782-9.692a4.53,4.53,0,1,1,8.91,1.639l-1.781,9.691a4.531,4.531,0,0,1-7.564,2.477Z"/><path class="a" d="M1517.116,773.306a4.5,4.5,0,0,1-.976-1.341l-4.286-8.98a4.53,4.53,0,1,1,8.176-3.9l4.286,8.981a4.53,4.53,0,0,1-7.2,5.243Z"/><path class="a" d="M1490.752,785.451a4.53,4.53,0,0,1,5.394-7.205l9.267,5.4a4.53,4.53,0,1,1-4.559,7.829l-9.267-5.395A4.547,4.547,0,0,1,1490.752,785.451Z"/><path class="a" d="M1514.966,802.874a4.532,4.532,0,0,1-1.068-5.043,25.529,25.529,0,0,1,47.139.128,4.53,4.53,0,0,1-8.377,3.45,16.312,16.312,0,0,0-3.915-5.683,16.473,16.473,0,0,0-26.49,5.6,4.533,4.533,0,0,1-7.289,1.545Z"/><path class="a" d="M328.59,202.5a8.138,8.138,0,0,1,8.326,2.408c.606-.7,1.145-1.4,1.754-2.024a12.976,12.976,0,0,1,22,11.711,2.331,2.331,0,0,1-.131.672c-.807,1.393-.119,2.266.808,3.353a30.214,30.214,0,0,1,7.363,21.988,1.273,1.273,0,0,0,.763,1.445,7.614,7.614,0,0,1-4.879,14.1c-.823-.137-1.422-.089-1.853.746a12.487,12.487,0,0,1-1.221,1.645A7.932,7.932,0,0,1,365.6,261.4a6.931,6.931,0,0,1-.537,9.016,21.843,21.843,0,0,1-8.485,5.19c-1.495.58-3.037,1.042-4.571,1.516-1.516.468-2.371.222-3.191-1.117-1.265-2.066-2.425-4.2-3.613-6.309a9.11,9.11,0,0,1-.45-1.116c-1.287.181-2.475.395-3.672.51a28.926,28.926,0,0,1-18.206-4.032c-10.775-6.561-15.731-16.288-15.184-28.844.031-.7-.356-.839-.74-1.082a7.633,7.633,0,0,1,5.283-14.052,1.027,1.027,0,0,0,1.2-.471,52.087,52.087,0,0,1,3.651-4.1,1.229,1.229,0,0,0,.262-1.742,21.159,21.159,0,0,1-2.52-7.613c-.513-4.8,2.806-8.467,7.489-8.231A7.871,7.871,0,0,1,328.59,202.5Zm14.746,61.572c-.535-3.462.182-6.426,3.394-8.157,3.42-1.843,6.582-1.019,9.391,1.465,10.412-9.421,10.614-26.853,1.2-36.271-6.592,6.25-15.09,4.113-18.8-.258l3.256-3.013c4.244,3.386,9.121,3.389,12.111.041a6.035,6.035,0,0,0-.5-.445,24.991,24.991,0,0,0-14.887-4.816,1.512,1.512,0,0,0-.838.484,39.071,39.071,0,0,1-3.685,3.482,34.458,34.458,0,0,1-9.651,4.339c-1.649.54-3.074.606-4.065-1.085a25.969,25.969,0,0,0-4.993,31C320.952,261.634,333.354,266.385,343.336,264.072Zm18.722,2.688a2.556,2.556,0,0,0-.872-3.254,2.949,2.949,0,0,0-3.562-.059c-1.929,1.425-3.653.8-4.254-1.539a3.094,3.094,0,0,0-3.477-2.194c-1.478.249-2.176,1.326-1.987,3.071a6.43,6.43,0,0,0,.11.678,27.458,27.458,0,0,0,3.678,8.314.881.881,0,0,0,.771.307,25.281,25.281,0,0,0,8.352-4.034A10.7,10.7,0,0,0,362.058,266.76Zm-39.009-62.9a2.474,2.474,0,0,0-3.56,2.679,6.992,6.992,0,0,0,.426,2.013c.795,1.937,1.607,3.873,2.533,5.749.967,1.959,1.039,1.959,3.125,1.241a21,21,0,0,0,7.007-3.694,4.367,4.367,0,0,0,1.3-1.982,2.3,2.3,0,0,0-1.375-2.57,2.889,2.889,0,0,0-3.4.193A2.43,2.43,0,0,1,325,206,2.834,2.834,0,0,0,323.049,203.858Zm33.127,9.59a8.3,8.3,0,0,0-6.557-9.682c-4.117-.877-8.124,1.755-8.808,4.022,2.638.7,5.351,1.211,7.906,2.152S353.667,212.247,356.176,213.448Zm11.7,33.417-1.7,4.643C368.456,250.685,369.2,248.519,367.875,246.865Zm-59.3-16.456,1.728-4.722a2.942,2.942,0,0,0-1.728,4.722Z"/><path class="a" d="M324.629,246.295l4.061-1.931a10.368,10.368,0,0,0,13.087,4.785l1.882,4.083C336.971,256.7,327.638,253.3,324.629,246.295Z"/><path class="a" d="M325.683,232.336l-4.144-1.516a5.575,5.575,0,0,1,3.9-3.707,5.942,5.942,0,0,1,6.352,1.781A6.021,6.021,0,0,1,333,235.056c-1.351-.494-2.636-.951-3.9-1.446a.666.666,0,0,1-.343-.5c0-.827-.314-1.513-1.144-1.567a6.351,6.351,0,0,0-1.911.483Z"/><path class="a" d="M355.9,243.406l-4.049-1.482a6.009,6.009,0,0,0-.335-1.359,1.546,1.546,0,0,0-2.375-.261,1.35,1.35,0,0,1-1.052.252c-1.157-.349-2.28-.8-3.541-1.266a5.507,5.507,0,0,1,3.34-3.572,6.213,6.213,0,0,1,6.851,1.518A5.772,5.772,0,0,1,355.9,243.406Z"/><path class="a" d="M570.04,55.2a8.141,8.141,0,0,1,7.861-3.651c-.005-.928-.055-1.806-.006-2.678a12.976,12.976,0,0,1,24.285-5.616,2.324,2.324,0,0,1,.342.593c.307,1.58,1.4,1.787,2.812,2a30.211,30.211,0,0,1,19.991,11.748,1.272,1.272,0,0,0,1.524.589,7.614,7.614,0,0,1,5.58,13.84c-.71.436-1.131.866-.907,1.779a12.417,12.417,0,0,1,.159,2.042,7.942,7.942,0,0,1,4.951-.521,6.933,6.933,0,0,1,5.515,7.153,21.835,21.835,0,0,1-2.992,9.486c-.746,1.419-1.606,2.781-2.452,4.145-.836,1.349-1.642,1.724-3.14,1.253-2.31-.727-4.584-1.572-6.867-2.386a9.125,9.125,0,0,1-1.073-.546c-.851.982-1.606,1.923-2.434,2.8a28.918,28.918,0,0,1-16.379,8.913c-12.434,2.128-22.56-1.954-30.391-11.783-.435-.545-.821-.4-1.27-.33a7.633,7.633,0,0,1-5.243-14.067,1.026,1.026,0,0,0,.595-1.142,52.407,52.407,0,0,1,.059-5.492,1.227,1.227,0,0,0-.945-1.485,21.172,21.172,0,0,1-6.9-4.087c-3.542-3.287-3.444-8.228.243-11.126A7.872,7.872,0,0,1,570.04,55.2Zm51.552,36.755c-2.676-2.26-4.082-4.966-2.8-8.381,1.369-3.635,4.295-5.09,8.044-5.061,1.667-13.943-9.627-27.223-22.909-28.146-.868,9.043-8.68,13.011-14.348,12.15l.477-4.41c5.424-.233,9.1-3.433,9.161-7.921a6.03,6.03,0,0,0-.672-.006,25,25,0,0,0-14.39,6.143,1.505,1.505,0,0,0-.314.915,39.326,39.326,0,0,1-.492,5.047,34.447,34.447,0,0,1-4.431,9.609c-.889,1.491-1.92,2.476-3.778,1.852A25.967,25.967,0,0,0,591.732,100.4C603.109,104.813,615.583,100.252,621.592,91.953Zm15.886-10.267a2.555,2.555,0,0,0-2.8-1.88,2.947,2.947,0,0,0-2.725,2.293c-.519,2.342-2.229,3-4.219,1.633a3.1,3.1,0,0,0-4.063.628c-.951,1.159-.771,2.43.518,3.621a6.169,6.169,0,0,0,.529.44,27.441,27.441,0,0,0,8.232,3.855.881.881,0,0,0,.784-.275,25.283,25.283,0,0,0,3.65-8.527A10.82,10.82,0,0,0,637.478,81.686ZM566.753,59.861a2.475,2.475,0,0,0-.926,4.359,6.977,6.977,0,0,0,1.643,1.237c1.872.94,3.755,1.866,5.686,2.673,2.016.843,2.07.8,3.172-1.116a21.018,21.018,0,0,0,2.858-7.386,4.364,4.364,0,0,0-.322-2.348,2.3,2.3,0,0,0-2.725-1.036,2.889,2.889,0,0,0-2.435,2.378,2.431,2.431,0,0,1-4.071,1.576A2.833,2.833,0,0,0,566.753,59.861Zm31.282-14.52a8.3,8.3,0,0,0-11.3-3c-3.68,2.043-4.974,6.659-4,8.818,2.448-1.206,4.831-2.6,7.375-3.569S595.353,46.083,598.035,45.341ZM628.8,62.862l1.767,4.618C631.748,65.362,630.885,63.241,628.8,62.862ZM573.274,89.388l-1.8-4.7a2.942,2.942,0,0,0,1.8,4.7Z"/><path class="a" d="M595.81,90.83l1.8-4.123a10.369,10.369,0,0,0,13.012-4.985l4.1,1.843C611.954,90.576,602.677,94.133,595.81,90.83Z"/><path class="a" d="M587.44,79.61l-4.122,1.577a5.572,5.572,0,0,1,.508-5.356A5.944,5.944,0,0,1,589.786,73a6.025,6.025,0,0,1,4.958,3.855c-1.344.514-2.613,1.014-3.9,1.474a.667.667,0,0,1-.586-.152c-.541-.626-1.231-.935-1.892-.431a6.33,6.33,0,0,0-1.124,1.619Z"/><path class="a" d="M617.5,68.115l-4.027,1.542a6,6,0,0,0-1.144-.806,1.547,1.547,0,0,0-1.963,1.363,1.352,1.352,0,0,1-.628.881c-1.1.5-2.248.891-3.5,1.371a5.507,5.507,0,0,1,.174-4.888,6.213,6.213,0,0,1,6.164-3.354A5.769,5.769,0,0,1,617.5,68.115Z"/><path class="a" d="M125.262,503.741a8.14,8.14,0,0,1,7.61-4.149c-.064-.926-.17-1.8-.178-2.672a12.977,12.977,0,0,1,23.875-7.165,2.322,2.322,0,0,1,.38.57c.407,1.557,1.509,1.693,2.934,1.813a30.213,30.213,0,0,1,20.7,10.44,1.273,1.273,0,0,0,1.559.49A7.614,7.614,0,0,1,188.6,516.52c-.681.481-1.073.937-.791,1.834a12.6,12.6,0,0,1,.29,2.028,7.936,7.936,0,0,1,4.907-.838,6.932,6.932,0,0,1,5.963,6.784,21.853,21.853,0,0,1-2.376,9.658c-.654,1.464-1.425,2.878-2.181,4.294-.747,1.4-1.528,1.826-3.053,1.452-2.352-.577-4.676-1.274-7.006-1.939a9.075,9.075,0,0,1-1.106-.477c-.786,1.035-1.48,2.023-2.25,2.947a28.919,28.919,0,0,1-15.772,9.947c-12.271,2.922-22.639-.5-31.085-9.806-.469-.517-.844-.346-1.288-.248a7.633,7.633,0,0,1-6.136-13.7,1.028,1.028,0,0,0,.52-1.178,52.1,52.1,0,0,1-.294-5.484,1.229,1.229,0,0,0-1.039-1.422,21.168,21.168,0,0,1-7.148-3.635c-3.746-3.052-3.965-7.99-.472-11.119A7.874,7.874,0,0,1,125.262,503.741Zm53.808,33.367c-2.816-2.084-4.393-4.694-3.329-8.185,1.132-3.715,3.959-5.355,7.7-5.567.768-14.022-11.356-26.548-24.67-26.616-.285,9.08-7.826,13.542-13.538,13.047l.193-4.432c5.4-.581,8.865-4.011,8.633-8.493a5.984,5.984,0,0,0-.671.037,24.994,24.994,0,0,0-13.965,7.055,1.5,1.5,0,0,0-.255.934,39.487,39.487,0,0,1-.167,5.067,34.465,34.465,0,0,1-3.8,9.875c-.791,1.544-1.757,2.594-3.652,2.09a25.97,25.97,0,0,0,18.267,25.535C161.451,551.128,173.606,545.776,179.07,537.108Zm15.193-11.267a2.556,2.556,0,0,0-2.91-1.7,2.948,2.948,0,0,0-2.572,2.464c-.367,2.37-2.031,3.14-4.105,1.9a3.1,3.1,0,0,0-4.015.889c-.874,1.217-.612,2.474.75,3.58a6.452,6.452,0,0,0,.556.4,27.451,27.451,0,0,0,8.463,3.319.883.883,0,0,0,.765-.325,25.269,25.269,0,0,0,3.094-8.744A10.758,10.758,0,0,0,194.263,525.841Zm-71.981-17.236a2.474,2.474,0,0,0-.644,4.409,6.972,6.972,0,0,0,1.719,1.13c1.928.817,3.867,1.62,5.846,2.3,2.066.711,2.116.661,3.093-1.318a20.992,20.992,0,0,0,2.379-7.554,4.367,4.367,0,0,0-.473-2.322,2.3,2.3,0,0,0-2.786-.859,2.889,2.889,0,0,0-2.277,2.529,2.431,2.431,0,0,1-3.962,1.834A2.834,2.834,0,0,0,122.282,508.605Zm30.284-16.5a8.3,8.3,0,0,0-11.472-2.264c-3.542,2.275-4.537,6.964-3.427,9.057,2.366-1.361,4.654-2.906,7.131-4.036S149.938,493.018,152.566,492.105Zm31.828,15.508,2.061,4.495C187.5,509.918,186.5,507.857,184.394,507.613Zm-53.707,30.039-2.1-4.572a2.942,2.942,0,0,0,2.1,4.572Z"/><path class="a" d="M153.269,537.643l1.527-4.23a10.369,10.369,0,0,0,12.665-5.811l4.21,1.576C169.363,536.352,160.334,540.5,153.269,537.643Z"/><path class="a" d="M144.2,526.984l-4.012,1.839a5.572,5.572,0,0,1,.163-5.378,5.944,5.944,0,0,1,5.766-3.206,6.026,6.026,0,0,1,5.2,3.529c-1.309.6-2.542,1.179-3.793,1.72a.664.664,0,0,1-.6-.113c-.58-.59-1.288-.854-1.915-.309a6.345,6.345,0,0,0-1.018,1.688Z"/><path class="a" d="M173.454,513.582l-3.92,1.8a5.973,5.973,0,0,0-1.194-.73,1.546,1.546,0,0,0-1.871,1.485,1.354,1.354,0,0,1-.57.921c-1.067.565-2.186,1.033-3.407,1.592a5.507,5.507,0,0,1-.141-4.889,6.216,6.216,0,0,1,5.937-3.743A5.772,5.772,0,0,1,173.454,513.582Z"/><path class="a" d="M534.689,600.593A8.138,8.138,0,0,1,542.7,603.9c.68-.633,1.292-1.264,1.966-1.819a12.977,12.977,0,0,1,20.583,14.059,2.33,2.33,0,0,1-.2.654c-.955,1.295-.367,2.238.435,3.422a30.21,30.21,0,0,1,4.9,22.663,1.275,1.275,0,0,0,.6,1.521,7.614,7.614,0,0,1-6.4,13.479c-.8-.226-1.4-.245-1.923.539a12.576,12.576,0,0,1-1.395,1.5A7.945,7.945,0,0,1,565,663.209a6.932,6.932,0,0,1-1.526,8.9,21.843,21.843,0,0,1-9,4.226c-1.549.412-3.133.7-4.71,1-1.558.3-2.381-.04-3.049-1.461-1.03-2.192-1.949-4.438-2.9-6.668a8.984,8.984,0,0,1-.325-1.159c-1.3.039-2.5.121-3.706.1a28.919,28.919,0,0,1-17.652-6.009c-9.988-7.7-13.845-17.919-11.92-30.338.106-.689-.262-.874-.618-1.157a7.633,7.633,0,0,1,6.8-13.386,1.027,1.027,0,0,0,1.243-.337,52.006,52.006,0,0,1,4.08-3.676,1.228,1.228,0,0,0,.452-1.7,21.162,21.162,0,0,1-1.668-7.844c.018-4.833,3.72-8.108,8.349-7.359A7.87,7.87,0,0,1,534.689,600.593Zm7.887,62.82c-.15-3.5.888-6.367,4.271-7.735,3.6-1.455,6.654-.289,9.173,2.489,11.385-8.22,13.5-25.524,5.184-35.919-7.24,5.488-15.451,2.43-18.658-2.323l3.567-2.637c3.847,3.832,8.694,4.372,12.033,1.373a5.763,5.763,0,0,0-.451-.5,25,25,0,0,0-14.267-6.424,1.509,1.509,0,0,0-.886.389,39.323,39.323,0,0,1-4.045,3.056,34.444,34.444,0,0,1-10.07,3.252c-1.7.355-3.122.264-3.922-1.526a25.971,25.971,0,0,0-8.37,30.26C520.6,658.528,532.4,664.614,542.576,663.413Zm18.314,4.73a2.555,2.555,0,0,0-.51-3.33,2.947,2.947,0,0,0-3.533-.45c-2.074,1.2-3.719.394-4.059-2a3.094,3.094,0,0,0-3.215-2.563c-1.5.085-2.309,1.079-2.312,2.834a6.039,6.039,0,0,0,.035.686,27.445,27.445,0,0,0,2.741,8.668.88.88,0,0,0,.733.39,25.248,25.248,0,0,0,8.745-3.092A10.665,10.665,0,0,0,560.89,668.143Zm-31.857-66.809A2.474,2.474,0,0,0,525.2,603.6a7.009,7.009,0,0,0,.2,2.047c.577,2.013,1.171,4.026,1.886,5.993.745,2.054.817,2.062,2.969,1.578a21,21,0,0,0,7.37-2.9,4.372,4.372,0,0,0,1.509-1.827,2.3,2.3,0,0,0-1.084-2.706,2.89,2.89,0,0,0-3.4-.181,2.431,2.431,0,0,1-3.917-1.927A2.832,2.832,0,0,0,529.033,601.334Zm31.872,13.173a8.3,8.3,0,0,0-5.453-10.344c-4-1.324-8.268.852-9.2,3.03,2.545.984,5.185,1.792,7.622,3.007S558.543,613.038,560.905,614.507Zm7.954,34.5-2.2,4.428C569.016,652.869,569.992,650.8,568.859,649.008Zm-57.128-22.875,2.237-4.5a2.943,2.943,0,0,0-2.237,4.5Z"/><path class="a" d="M525.937,643.687l4.249-1.472a10.369,10.369,0,0,0,12.482,6.194l1.422,4.265C537.061,655.39,528.159,650.976,525.937,643.687Z"/><path class="a" d="M528.52,629.929l-3.952-1.963a5.572,5.572,0,0,1,4.284-3.255,5.943,5.943,0,0,1,6.118,2.468,6.023,6.023,0,0,1,.523,6.258c-1.289-.64-2.516-1.235-3.723-1.867a.668.668,0,0,1-.286-.535c.094-.821-.146-1.538-.964-1.683a6.326,6.326,0,0,0-1.953.27Z"/><path class="a" d="M557.338,644.254l-3.861-1.919a6.021,6.021,0,0,0-.183-1.387,1.547,1.547,0,0,0-2.332-.521,1.35,1.35,0,0,1-1.074.135c-1.111-.473-2.178-1.05-3.38-1.647a5.507,5.507,0,0,1,3.713-3.184,6.211,6.211,0,0,1,6.642,2.263A5.768,5.768,0,0,1,557.338,644.254Z"/><path class="a" d="M798.578,724.454a8.139,8.139,0,0,1,8.153-2.942c.077-.925.1-1.8.231-2.668a12.976,12.976,0,0,1,24.686-3.447,2.289,2.289,0,0,1,.289.621c.165,1.6,1.235,1.9,2.624,2.239a30.21,30.21,0,0,1,18.873,13.47,1.275,1.275,0,0,0,1.467.721,7.614,7.614,0,0,1,4.335,14.279c-.746.372-1.2.763-1.061,1.692a12.514,12.514,0,0,1-.022,2.048,7.94,7.94,0,0,1,4.977-.081A6.934,6.934,0,0,1,867.991,758a21.851,21.851,0,0,1-3.819,9.184c-.869,1.347-1.846,2.627-2.809,3.912-.951,1.269-1.788,1.572-3.238.97-2.237-.928-4.428-1.971-6.63-2.983a9.25,9.25,0,0,1-1.02-.639c-.935.9-1.77,1.773-2.672,2.569a28.921,28.921,0,0,1-17.1,7.431c-12.574,1.02-22.3-3.941-29.231-14.424-.385-.582-.782-.47-1.235-.441a7.633,7.633,0,0,1-3.979-14.476,1.026,1.026,0,0,0,.693-1.085,52.343,52.343,0,0,1,.545-5.465,1.227,1.227,0,0,0-.811-1.563,21.168,21.168,0,0,1-6.511-4.681c-3.238-3.587-2.7-8.5,1.226-11.061A7.872,7.872,0,0,1,798.578,724.454Zm48.1,41.169c-2.466-2.488-3.627-5.308-2.044-8.6,1.684-3.5,4.728-4.69,8.46-4.33,2.893-13.741-7.183-27.967-20.331-30.061-1.664,8.931-9.8,12.193-15.367,10.834l.866-4.351c5.423.248,9.372-2.614,9.825-7.08a6.057,6.057,0,0,0-.668-.065,24.994,24.994,0,0,0-14.877,4.847,1.5,1.5,0,0,0-.394.884,39.224,39.224,0,0,1-.937,4.983,34.443,34.443,0,0,1-5.262,9.18c-1.018,1.406-2.132,2.3-3.928,1.51A25.969,25.969,0,0,0,816.189,771.4C827.131,776.8,839.959,773.358,846.679,765.623ZM863.41,756.8a2.556,2.556,0,0,0-2.617-2.121,2.949,2.949,0,0,0-2.917,2.044c-.725,2.287-2.486,2.795-4.347,1.253a3.1,3.1,0,0,0-4.1.267c-1.049,1.07-.982,2.352.2,3.653a6.349,6.349,0,0,0,.487.484,27.43,27.43,0,0,0,7.86,4.568.882.882,0,0,0,.8-.2,25.273,25.273,0,0,0,4.389-8.171A10.761,10.761,0,0,0,863.41,756.8Zm-68.518-27.993a2.475,2.475,0,0,0-1.308,4.26,7.005,7.005,0,0,0,1.527,1.378c1.781,1.1,3.576,2.19,5.427,3.165,1.934,1.017,1.992.975,3.258-.831a21.016,21.016,0,0,0,3.5-7.105,4.376,4.376,0,0,0-.113-2.367,2.3,2.3,0,0,0-2.623-1.273,2.888,2.888,0,0,0-2.636,2.153,2.431,2.431,0,0,1-4.2,1.21A2.832,2.832,0,0,0,794.892,728.808Zm32.443-11.7a8.3,8.3,0,0,0-10.994-3.984c-3.847,1.709-5.544,6.193-4.766,8.43,2.545-.985,5.042-2.163,7.662-2.9S824.6,717.612,827.335,717.11Zm29.1,20.173,1.352,4.756C859.146,740.033,858.474,737.844,856.431,737.283ZM798.777,758.8l-1.375-4.838a2.943,2.943,0,0,0,1.375,4.838Z"/><path class="a" d="M821.1,762.224l2.153-3.948a10.368,10.368,0,0,0,13.4-3.815l3.921,2.2C837.2,763.4,827.645,766.122,821.1,762.224Z"/><path class="a" d="M813.751,750.308l-4.244,1.207a5.569,5.569,0,0,1,.979-5.29,5.943,5.943,0,0,1,6.186-2.291,6.024,6.024,0,0,1,4.6,4.278c-1.384.394-2.692.779-4.01,1.124a.67.67,0,0,1-.571-.2c-.484-.672-1.143-1.04-1.846-.6a6.329,6.329,0,0,0-1.263,1.513Z"/><path class="a" d="M844.709,741.517l-4.147,1.179a6.079,6.079,0,0,0-1.069-.9,1.546,1.546,0,0,0-2.075,1.184,1.354,1.354,0,0,1-.7.823c-1.141.4-2.318.688-3.609,1.055A5.507,5.507,0,0,1,833.71,740a6.213,6.213,0,0,1,6.436-2.8A5.77,5.77,0,0,1,844.709,741.517Z"/><path class="a" d="M1214.943,569.736a8.14,8.14,0,0,1,8.011,3.309c.679-.632,1.291-1.263,1.966-1.819a12.977,12.977,0,0,1,20.583,14.059,2.308,2.308,0,0,1-.205.654c-.954,1.3-.367,2.239.435,3.422a30.206,30.206,0,0,1,4.9,22.663,1.273,1.273,0,0,0,.6,1.521,7.614,7.614,0,0,1-6.4,13.48c-.8-.227-1.4-.245-1.924.538a12.573,12.573,0,0,1-1.394,1.5,7.93,7.93,0,0,1,3.736,3.288,6.934,6.934,0,0,1-1.525,8.9,21.859,21.859,0,0,1-9,4.225c-1.55.412-3.134.7-4.71,1-1.558.3-2.381-.04-3.049-1.461-1.031-2.192-1.949-4.437-2.9-6.668a9.308,9.308,0,0,1-.325-1.159c-1.3.039-2.5.122-3.7.1a28.926,28.926,0,0,1-17.652-6.01c-9.988-7.7-13.846-17.918-11.921-30.337.107-.69-.262-.874-.617-1.158a7.633,7.633,0,0,1,6.8-13.386,1.027,1.027,0,0,0,1.243-.336,52.377,52.377,0,0,1,4.079-3.677,1.229,1.229,0,0,0,.453-1.7,21.158,21.158,0,0,1-1.668-7.844c.018-4.832,3.719-8.107,8.349-7.358A7.872,7.872,0,0,1,1214.943,569.736Zm7.887,62.82c-.151-3.5.888-6.367,4.271-7.734,3.6-1.456,6.654-.289,9.173,2.488,11.385-8.219,13.5-25.523,5.183-35.918-7.239,5.487-15.451,2.429-18.657-2.324l3.567-2.637c3.846,3.833,8.693,4.372,12.033,1.373a6.113,6.113,0,0,0-.451-.5,24.99,24.99,0,0,0-14.267-6.423,1.5,1.5,0,0,0-.886.389,39.367,39.367,0,0,1-4.046,3.056,34.455,34.455,0,0,1-10.069,3.251c-1.7.356-3.122.265-3.922-1.525a25.967,25.967,0,0,0-8.37,30.259C1200.85,627.672,1212.655,633.758,1222.83,632.556Zm18.314,4.73a2.555,2.555,0,0,0-.51-3.329,2.947,2.947,0,0,0-3.533-.451c-2.074,1.2-3.719.4-4.059-2a3.1,3.1,0,0,0-3.215-2.563c-1.5.085-2.309,1.079-2.313,2.835a6.587,6.587,0,0,0,.035.686,27.473,27.473,0,0,0,2.741,8.667.879.879,0,0,0,.734.39,25.274,25.274,0,0,0,8.745-3.091A10.8,10.8,0,0,0,1241.144,637.286Zm-31.858-66.809a2.474,2.474,0,0,0-3.833,2.271,6.982,6.982,0,0,0,.2,2.048c.577,2.013,1.171,4.026,1.885,5.993.746,2.053.817,2.061,2.97,1.577a21.019,21.019,0,0,0,7.37-2.9,4.359,4.359,0,0,0,1.508-1.828,2.3,2.3,0,0,0-1.084-2.706,2.89,2.89,0,0,0-3.4-.181,2.431,2.431,0,0,1-3.918-1.927A2.832,2.832,0,0,0,1209.286,570.477Zm31.873,13.174a8.3,8.3,0,0,0-5.454-10.345c-3.995-1.323-8.267.852-9.2,3.03,2.546.985,5.186,1.792,7.622,3.008S1238.8,582.181,1241.159,583.651Zm7.954,34.5-2.2,4.428C1249.27,622.012,1250.246,619.941,1249.113,618.151Zm-57.128-22.874,2.237-4.505a2.943,2.943,0,0,0-2.237,4.505Z"/><path class="a" d="M1206.191,612.83l4.249-1.472a10.368,10.368,0,0,0,12.482,6.194l1.421,4.265C1217.314,624.534,1208.413,620.119,1206.191,612.83Z"/><path class="a" d="M1208.774,599.072l-3.953-1.963a5.573,5.573,0,0,1,4.284-3.255,5.942,5.942,0,0,1,6.118,2.468,6.023,6.023,0,0,1,.523,6.258c-1.288-.64-2.515-1.235-3.722-1.867a.664.664,0,0,1-.286-.534c.094-.822-.146-1.539-.965-1.684a6.324,6.324,0,0,0-1.952.27Z"/><path class="a" d="M1237.592,613.4l-3.862-1.918a6.024,6.024,0,0,0-.182-1.388,1.547,1.547,0,0,0-2.332-.52,1.355,1.355,0,0,1-1.074.135c-1.111-.474-2.178-1.051-3.381-1.648a5.505,5.505,0,0,1,3.713-3.183,6.214,6.214,0,0,1,6.643,2.262A5.77,5.77,0,0,1,1237.592,613.4Z"/><path class="a" d="M867.744,456.564a8.14,8.14,0,0,1,8.011,3.309c.68-.632,1.292-1.263,1.966-1.818A12.976,12.976,0,0,1,898.3,472.113a2.308,2.308,0,0,1-.2.654c-.955,1.3-.367,2.239.435,3.422a30.21,30.21,0,0,1,4.9,22.663,1.275,1.275,0,0,0,.6,1.521,7.614,7.614,0,0,1-6.4,13.48c-.8-.227-1.4-.245-1.923.538a12.5,12.5,0,0,1-1.395,1.5,7.943,7.943,0,0,1,3.737,3.288,6.933,6.933,0,0,1-1.526,8.9,21.853,21.853,0,0,1-9,4.225c-1.549.412-3.133.7-4.71,1-1.558.3-2.381-.04-3.049-1.461-1.03-2.192-1.949-4.437-2.9-6.667a9.047,9.047,0,0,1-.325-1.16c-1.3.039-2.5.122-3.706.1a28.926,28.926,0,0,1-17.652-6.01c-9.988-7.7-13.845-17.918-11.92-30.337.106-.69-.262-.874-.618-1.158a7.633,7.633,0,0,1,6.8-13.386,1.026,1.026,0,0,0,1.243-.336,52.22,52.22,0,0,1,4.08-3.677,1.228,1.228,0,0,0,.452-1.7,21.158,21.158,0,0,1-1.668-7.844c.018-4.832,3.72-8.107,8.349-7.358A7.869,7.869,0,0,1,867.744,456.564Zm7.887,62.82c-.15-3.5.888-6.367,4.271-7.734,3.6-1.456,6.654-.289,9.173,2.488,11.385-8.219,13.5-25.523,5.184-35.918-7.24,5.487-15.451,2.429-18.658-2.324l3.567-2.637c3.847,3.833,8.694,4.372,12.033,1.373a5.772,5.772,0,0,0-.451-.5,24.991,24.991,0,0,0-14.267-6.423,1.5,1.5,0,0,0-.886.389,39.463,39.463,0,0,1-4.045,3.056,34.473,34.473,0,0,1-10.07,3.251c-1.7.356-3.122.265-3.922-1.525a25.969,25.969,0,0,0-8.37,30.259C853.651,514.5,865.456,520.586,875.631,519.384Zm18.314,4.73a2.554,2.554,0,0,0-.51-3.329,2.947,2.947,0,0,0-3.533-.451c-2.074,1.2-3.719.4-4.059-2a3.1,3.1,0,0,0-3.215-2.563c-1.5.085-2.309,1.079-2.312,2.835a6.062,6.062,0,0,0,.035.686,27.447,27.447,0,0,0,2.741,8.667.878.878,0,0,0,.733.39,25.266,25.266,0,0,0,8.745-3.091A10.658,10.658,0,0,0,893.945,524.114ZM862.088,457.3a2.475,2.475,0,0,0-3.834,2.271,7.017,7.017,0,0,0,.2,2.048c.577,2.013,1.171,4.026,1.886,5.993.745,2.053.817,2.061,2.969,1.577a21.02,21.02,0,0,0,7.37-2.9,4.369,4.369,0,0,0,1.509-1.828,2.3,2.3,0,0,0-1.084-2.706,2.891,2.891,0,0,0-3.4-.181,2.43,2.43,0,0,1-3.917-1.926A2.832,2.832,0,0,0,862.088,457.3Zm31.872,13.174a8.3,8.3,0,0,0-5.453-10.345c-4-1.323-8.268.852-9.2,3.03,2.545.985,5.185,1.792,7.622,3.008S891.6,469.009,893.96,470.479Zm7.954,34.5-2.2,4.428C902.071,508.84,903.047,506.769,901.914,504.979Zm-57.128-22.874,2.237-4.505a2.944,2.944,0,0,0-2.237,4.505Z"/><path class="a" d="M858.992,499.658l4.249-1.472a10.369,10.369,0,0,0,12.482,6.194l1.422,4.265C870.116,511.362,861.214,506.947,858.992,499.658Z"/><path class="a" d="M861.575,485.9l-3.952-1.963a5.572,5.572,0,0,1,4.284-3.255,5.943,5.943,0,0,1,6.118,2.468,6.023,6.023,0,0,1,.523,6.258c-1.289-.64-2.516-1.235-3.723-1.867a.666.666,0,0,1-.286-.534c.094-.822-.146-1.539-.964-1.684a6.358,6.358,0,0,0-1.953.27Z"/><path class="a" d="M890.393,500.225l-3.861-1.918a6.022,6.022,0,0,0-.183-1.388,1.546,1.546,0,0,0-2.332-.52,1.355,1.355,0,0,1-1.074.135c-1.111-.474-2.178-1.051-3.38-1.648a5.5,5.5,0,0,1,3.713-3.183,6.213,6.213,0,0,1,6.642,2.262A5.769,5.769,0,0,1,890.393,500.225Z"/><path class="a" d="M1587.5,576.673a8.142,8.142,0,0,1,7.939-3.479c.015-.928-.015-1.806.052-2.677a12.977,12.977,0,0,1,24.4-5.087,2.311,2.311,0,0,1,.329.6c.272,1.587,1.359,1.817,2.768,2.059a30.21,30.21,0,0,1,19.73,12.18,1.274,1.274,0,0,0,1.512.622,7.614,7.614,0,0,1,5.277,13.958c-.72.421-1.149.841-.945,1.759a12.488,12.488,0,0,1,.114,2.045,7.945,7.945,0,0,1,4.961-.413,6.932,6.932,0,0,1,5.358,7.271,21.843,21.843,0,0,1-3.2,9.419c-.777,1.4-1.667,2.745-2.542,4.091-.865,1.329-1.679,1.687-3.166,1.184-2.3-.777-4.549-1.672-6.814-2.535a9.166,9.166,0,0,1-1.061-.569c-.872.963-1.648,1.888-2.494,2.742a28.92,28.92,0,0,1-16.569,8.555c-12.477,1.857-22.512-2.444-30.128-12.441-.423-.555-.811-.417-1.262-.358a7.632,7.632,0,0,1-4.936-14.177,1.027,1.027,0,0,0,.62-1.129,52.367,52.367,0,0,1,.178-5.489,1.228,1.228,0,0,0-.913-1.506,21.187,21.187,0,0,1-6.809-4.236c-3.47-3.363-3.264-8.3.485-11.118A7.874,7.874,0,0,1,1587.5,576.673Zm50.741,37.868c-2.626-2.318-3.973-5.054-2.613-8.44,1.448-3.605,4.405-5,8.152-4.885,1.97-13.9-9.033-27.426-22.291-28.637-1.064,9.021-8.961,12.819-14.61,11.835l.573-4.4c5.429-.115,9.177-3.234,9.331-7.72a6.034,6.034,0,0,0-.671-.021,25,25,0,0,0-14.52,5.829,1.5,1.5,0,0,0-.334.908,39.485,39.485,0,0,1-.6,5.035,34.483,34.483,0,0,1-4.638,9.511c-.922,1.471-1.974,2.433-3.818,1.768a25.969,25.969,0,0,0,16,27.011C1619.484,626.995,1632.054,622.707,1638.242,614.541Zm16.105-9.919a2.554,2.554,0,0,0-2.753-1.941,2.947,2.947,0,0,0-2.774,2.234c-.57,2.33-2.294,2.954-4.253,1.54a3.1,3.1,0,0,0-4.077.54c-.975,1.137-.823,2.412.44,3.632a6.321,6.321,0,0,0,.519.45,27.459,27.459,0,0,0,8.147,4.034.881.881,0,0,0,.789-.258,25.286,25.286,0,0,0,3.835-8.446A10.667,10.667,0,0,0,1654.347,604.622Zm-70.233-23.358a2.474,2.474,0,0,0-1.021,4.337,6.983,6.983,0,0,0,1.616,1.273c1.851.98,3.714,1.947,5.626,2.8,2,.886,2.052.84,3.2-1.047a21,21,0,0,0,3.018-7.322,4.365,4.365,0,0,0-.271-2.354,2.3,2.3,0,0,0-2.7-1.1,2.889,2.889,0,0,0-2.486,2.324,2.431,2.431,0,0,1-4.1,1.487A2.831,2.831,0,0,0,1584.114,581.264Zm31.59-13.837a8.3,8.3,0,0,0-11.235-3.241c-3.724,1.962-5.119,6.548-4.193,8.728,2.474-1.152,4.886-2.494,7.451-3.408S1613.007,568.111,1615.7,567.427Zm30.378,18.186,1.666,4.655C1648.974,588.176,1648.157,586.037,1646.082,585.613Zm-56.091,25.313-1.695-4.736a2.944,2.944,0,0,0,1.695,4.736Z"/><path class="a" d="M1612.491,612.857l1.884-4.083a10.37,10.37,0,0,0,13.118-4.7l4.059,1.932C1628.637,612.954,1619.284,616.309,1612.491,612.857Z"/><path class="a" d="M1604.366,601.458l-4.155,1.487a5.574,5.574,0,0,1,.624-5.344,5.944,5.944,0,0,1,6.02-2.7,6.021,6.021,0,0,1,4.873,3.961c-1.355.485-2.634.957-3.926,1.389a.664.664,0,0,1-.583-.165c-.527-.637-1.21-.961-1.882-.471a6.308,6.308,0,0,0-1.159,1.594Z"/><path class="a" d="M1634.669,590.62l-4.06,1.453a6.037,6.037,0,0,0-1.127-.83,1.545,1.545,0,0,0-1.991,1.319,1.353,1.353,0,0,1-.648.868c-1.111.472-2.266.841-3.53,1.294a5.505,5.505,0,0,1,.279-4.883,6.214,6.214,0,0,1,6.236-3.219A5.77,5.77,0,0,1,1634.669,590.62Z"/><path class="a" d="M1721.6,220.6a8.141,8.141,0,0,1,8.619-.91c.3-.879.533-1.726.862-2.535a12.976,12.976,0,0,1,24.795,2.546,2.337,2.337,0,0,1,.133.672c-.222,1.594.744,2.143,2.013,2.8a30.208,30.208,0,0,1,15.112,17.586,1.273,1.273,0,0,0,1.252,1.051,7.614,7.614,0,0,1,.8,14.9c-.814.183-1.351.454-1.434,1.39a12.518,12.518,0,0,1-.511,1.984,7.936,7.936,0,0,1,4.853,1.11,6.933,6.933,0,0,1,2.9,8.553,21.858,21.858,0,0,1-5.9,8.006c-1.166,1.1-2.42,2.111-3.662,3.129-1.227,1.005-2.112,1.1-3.376.169-1.951-1.436-3.829-2.972-5.726-4.48a9.078,9.078,0,0,1-.838-.865c-1.123.654-2.143,1.3-3.208,1.858a28.917,28.917,0,0,1-18.382,3.132c-12.454-2.011-20.714-9.151-24.942-20.985-.235-.658-.647-.644-1.094-.724a7.632,7.632,0,0,1-.408-15.006c.581-.114.762-.33.933-.889a52.406,52.406,0,0,1,1.833-5.177,1.227,1.227,0,0,0-.414-1.711,21.167,21.167,0,0,1-5.2-6.1c-2.288-4.256-.6-8.9,3.831-10.448A7.877,7.877,0,0,1,1721.6,220.6Zm36.881,51.463c-1.8-3-2.255-6.02.067-8.835,2.471-3,5.711-3.426,9.249-2.185,6.09-12.653-.3-28.874-12.566-34.046-3.748,8.275-12.424,9.5-17.509,6.852l1.879-4.018c5.208,1.535,9.726-.3,11.232-4.53a6.187,6.187,0,0,0-.633-.223,25,25,0,0,0-15.6,1.155,1.508,1.508,0,0,0-.594.764,39.319,39.319,0,0,1-2.1,4.615,34.449,34.449,0,0,1-7.3,7.659c-1.324,1.122-2.618,1.721-4.174.529a25.967,25.967,0,0,0,7.067,30.589C1736.835,278.245,1750.113,277.967,1758.486,272.06Zm18.353-4.573a2.554,2.554,0,0,0-2.035-2.683,2.947,2.947,0,0,0-3.321,1.288c-1.249,2.047-3.081,2.12-4.52.179a3.1,3.1,0,0,0-4.048-.721c-1.275.789-1.516,2.05-.682,3.594a6.278,6.278,0,0,0,.358.587,27.468,27.468,0,0,0,6.541,6.313.883.883,0,0,0,.831-.007,25.275,25.275,0,0,0,6.213-6.887A10.682,10.682,0,0,0,1776.839,267.487Zm-59.853-43.541a2.474,2.474,0,0,0-2.287,3.824,6.967,6.967,0,0,0,1.154,1.7c1.467,1.495,2.949,2.981,4.514,4.37,1.635,1.45,1.7,1.423,3.363-.029a21.015,21.015,0,0,0,5.095-6.064,4.35,4.35,0,0,0,.455-2.325,2.3,2.3,0,0,0-2.243-1.863,2.891,2.891,0,0,0-3.074,1.461,2.431,2.431,0,0,1-4.362.174A2.831,2.831,0,0,0,1716.986,223.946Zm34.3-3.614a8.3,8.3,0,0,0-9.724-6.494c-4.144.741-6.862,4.69-6.641,7.048,2.707-.348,5.413-.9,8.134-.99S1748.506,220.166,1751.283,220.332Zm23.439,26.536.178,4.941C1776.7,250.187,1776.572,247.9,1774.722,246.868Zm-61.123,7.126-.181-5.026a2.942,2.942,0,0,0,.181,5.026Z"/><path class="a" d="M1734.455,262.652l3.033-3.32a10.37,10.37,0,0,0,13.926-.505l3.282,3.072C1749.812,267.637,1739.883,268,1734.455,262.652Z"/><path class="a" d="M1730.167,249.327l-4.41.158a5.571,5.571,0,0,1,2.214-4.9,5.942,5.942,0,0,1,6.554-.748,6.026,6.026,0,0,1,3.444,5.252c-1.439.052-2.8.114-4.163.134a.668.668,0,0,1-.506-.334c-.309-.767-.862-1.282-1.65-1.02a6.347,6.347,0,0,0-1.588,1.168Z"/><path class="a" d="M1762.328,248.181l-4.309.155a5.994,5.994,0,0,0-.822-1.133,1.546,1.546,0,0,0-2.3.654,1.351,1.351,0,0,1-.879.631c-1.2.113-2.416.115-3.757.163a5.507,5.507,0,0,1,1.746-4.569,6.213,6.213,0,0,1,6.918-1.177A5.768,5.768,0,0,1,1762.328,248.181Z"/><path class="a" d="M1226.634,229.676a8.141,8.141,0,0,1,8.507,1.663c.541-.753,1.017-1.493,1.568-2.17a12.976,12.976,0,0,1,22.953,9.72,2.3,2.3,0,0,1-.071.681c-.681,1.459.082,2.267,1.1,3.269a30.21,30.21,0,0,1,9.277,21.25,1.275,1.275,0,0,0,.888,1.373,7.613,7.613,0,0,1-3.614,14.477c-.831-.063-1.424.037-1.779.908a12.511,12.511,0,0,1-1.071,1.746,7.934,7.934,0,0,1,4.312,2.486,6.933,6.933,0,0,1,.262,9.029,21.852,21.852,0,0,1-7.993,5.919c-1.438.71-2.934,1.307-4.42,1.914-1.468.6-2.342.431-3.277-.83-1.443-1.946-2.786-3.966-4.156-5.965a9.345,9.345,0,0,1-.548-1.072c-1.265.294-2.429.612-3.612.832a28.914,28.914,0,0,1-18.49-2.407c-11.313-5.583-17.11-14.834-17.674-27.389-.031-.7-.429-.8-.833-1.013a7.632,7.632,0,0,1,4.02-14.463,1.028,1.028,0,0,0,1.152-.576,52.084,52.084,0,0,1,3.274-4.409,1.229,1.229,0,0,0,.107-1.758,21.188,21.188,0,0,1-3.183-7.361c-.936-4.74,2.047-8.681,6.733-8.861A7.872,7.872,0,0,1,1226.634,229.676Zm20.13,60.029c-.838-3.4-.386-6.417,2.661-8.426,3.243-2.137,6.466-1.6,9.483.63,9.539-10.3,8.2-27.687-2.007-36.235-6.014,6.808-14.667,5.43-18.749,1.4l2.977-3.289c4.527,3,9.385,2.57,12.067-1.029a6.069,6.069,0,0,0-.54-.4,25,25,0,0,0-15.254-3.482,1.5,1.5,0,0,0-.792.556,39.277,39.277,0,0,1-3.363,3.795,34.453,34.453,0,0,1-9.23,5.174c-1.595.684-3.008.876-4.146-.721A25.968,25.968,0,0,0,1217.638,279C1224.252,289.254,1237.026,292.891,1246.764,289.7Zm18.887,1.022a2.554,2.554,0,0,0-1.157-3.163,2.946,2.946,0,0,0-3.552.256c-1.8,1.589-3.568,1.12-4.374-1.158a3.093,3.093,0,0,0-3.657-1.878c-1.45.379-2.051,1.514-1.708,3.235a6.358,6.358,0,0,0,.17.666,27.443,27.443,0,0,0,4.4,7.956.883.883,0,0,0,.8.238,25.282,25.282,0,0,0,7.962-4.757A10.649,10.649,0,0,0,1265.651,290.727Zm-44.415-59.208a2.475,2.475,0,0,0-3.31,2.984,6.956,6.956,0,0,0,.6,1.966c.963,1.86,1.942,3.716,3.031,5.5,1.136,1.866,1.208,1.859,3.222.96a21,21,0,0,0,6.653-4.3,4.366,4.366,0,0,0,1.118-2.089,2.3,2.3,0,0,0-1.6-2.439,2.89,2.89,0,0,0-3.367.493,2.431,2.431,0,0,1-4.221-1.115A2.832,2.832,0,0,0,1221.236,231.519Zm33.845,6.625a8.3,8.3,0,0,0-7.387-9.065c-4.179-.509-7.938,2.467-8.419,4.785,2.69.463,5.437.734,8.066,1.445S1252.475,237.169,1255.081,238.144Zm14.606,32.252-1.282,4.775C1270.6,274.15,1271.151,271.927,1269.687,270.4Zm-60.519-11.15,1.305-4.858a2.943,2.943,0,0,0-1.305,4.858Z"/><path class="a" d="M1226.56,273.65l3.874-2.281a10.369,10.369,0,0,0,13.459,3.609l2.236,3.9C1239.774,282.928,1230.176,280.358,1226.56,273.65Z"/><path class="a" d="M1226.376,259.653l-4.262-1.144a5.575,5.575,0,0,1,3.557-4.037,5.944,5.944,0,0,1,6.485,1.212,6.024,6.024,0,0,1,1.748,6.032c-1.39-.373-2.71-.714-4.018-1.1a.665.665,0,0,1-.385-.467c-.07-.824-.447-1.479-1.278-1.46a6.336,6.336,0,0,0-1.861.65Z"/><path class="a" d="M1257.455,268.009l-4.164-1.118a6.049,6.049,0,0,0-.453-1.324,1.546,1.546,0,0,0-2.389-.051,1.354,1.354,0,0,1-1.027.345c-1.182-.245-2.342-.6-3.638-.948a5.506,5.506,0,0,1,3.011-3.854,6.215,6.215,0,0,1,6.959.907A5.77,5.77,0,0,1,1257.455,268.009Z"/></g></svg>