<svg xmlns="http://www.w3.org/2000/svg" width="120.002" height="129.709" viewBox="0 0 120.002 129.709"><defs><style>.a{fill:#fbd617;}</style></defs><g transform="translate(-19.157)"><g transform="translate(19.157 0)"><path class="a" d="M138.559,131.739a2.533,2.533,0,0,0-1.932-.9H43.844l-3.137-15.531a2.533,2.533,0,0,0-2.483-2.032H21.69a2.533,2.533,0,1,0,0,5.067H36.151l15.4,76.234a11.213,11.213,0,1,0,16.7,2.326h35.129a11.212,11.212,0,1,0,18.686-.081,2.534,2.534,0,0,0-.637-4.986H56.164l-.915-4.53h64.245A12.646,12.646,0,0,0,132.011,176.7l7.114-42.907a2.533,2.533,0,0,0-.566-2.053ZM65.028,203.066a6.145,6.145,0,1,1-6.145-6.159A6.159,6.159,0,0,1,65.028,203.066Zm47.724,6.159a6.159,6.159,0,1,1,6.145-6.159A6.159,6.159,0,0,1,112.751,209.225Zm14.262-33.355a7.6,7.6,0,0,1-7.519,6.374H54.226L44.867,135.91h88.771Z" transform="translate(-19.157 -84.583)"/><path class="a" d="M241.585,38.735a19.368,19.368,0,1,0-19.367-19.368A19.39,19.39,0,0,0,241.585,38.735Zm0-33.668a14.3,14.3,0,1,1-14.3,14.3,14.317,14.317,0,0,1,14.3-14.3Z" transform="translate(-170.775 0)"/><path class="a" d="M271.536,61.958a2.533,2.533,0,0,0,3.583,0l2.737-2.737,2.737,2.737a2.533,2.533,0,0,0,3.583-3.583l-2.736-2.737,2.737-2.737a2.533,2.533,0,0,0-3.583-3.583l-2.737,2.737-2.737-2.737a2.533,2.533,0,1,0-3.583,3.583l2.737,2.737-2.737,2.737a2.533,2.533,0,0,0,0,3.583Z" transform="translate(-207.045 -36.271)"/></g></g></svg>