<svg xmlns="http://www.w3.org/2000/svg" width="1751.865" height="720.911" viewBox="0 0 1751.865 720.911"><defs><style>.a{opacity:0.3;isolation:isolate;}.b{fill:#ececec;}</style></defs><g class="a"><g transform="translate(29.435 47.375)"><g transform="translate(50.315)"><path class="b" d="M192.074,106.927h-.049a4.133,4.133,0,0,1-4.084-4.181l.12-10.158a4.133,4.133,0,0,1,8.265.1l-.12,10.158A4.132,4.132,0,0,1,192.074,106.927Z" transform="translate(-187.94 -88.505)"/></g><g transform="translate(21.722 5.458)"><path class="b" d="M165.625,110.3a4.128,4.128,0,0,1-3.471-1.885l-4.891-7.543a4.133,4.133,0,0,1,6.935-4.5l4.891,7.542a4.133,4.133,0,0,1-3.464,6.382Z" transform="translate(-156.598 -94.488)"/></g><g transform="translate(1.402 26.91)"><path class="b" d="M146.926,129.539a4.1,4.1,0,0,1-1.487-.279l-8.469-3.27a4.132,4.132,0,0,1,2.977-7.71l8.469,3.27a4.133,4.133,0,0,1-1.49,7.989Z" transform="translate(-134.325 -118.002)"/></g><g transform="translate(0 52.523)"><path class="b" d="M136.918,156.572a4.133,4.133,0,0,1-.938-8.158l9.525-2.228a4.132,4.132,0,1,1,1.883,8.047l-9.526,2.229A4.145,4.145,0,0,1,136.918,156.572Z" transform="translate(-132.788 -146.077)"/></g><g transform="translate(25.744 25.232)"><path class="b" d="M166.366,150.331a4.134,4.134,0,0,1-3.868-2.676,23.291,23.291,0,0,1,31.339-29.45,4.133,4.133,0,1,1-3.394,7.537,15.027,15.027,0,0,0-20.212,19,4.136,4.136,0,0,1-3.865,5.592Z" transform="translate(-161.007 -116.162)"/></g></g><g transform="translate(185.734 537.075)"><g transform="translate(50.316)"><path class="b" d="M363.4,643.7h-.049a4.132,4.132,0,0,1-4.083-4.181l.119-10.158a4.133,4.133,0,1,1,8.265.1l-.12,10.158A4.133,4.133,0,0,1,363.4,643.7Z" transform="translate(-359.265 -625.279)"/></g><g transform="translate(21.722 5.459)"><path class="b" d="M336.95,647.07a4.131,4.131,0,0,1-3.472-1.885l-4.89-7.542a4.133,4.133,0,1,1,6.935-4.5l4.89,7.543a4.132,4.132,0,0,1-3.463,6.381Z" transform="translate(-327.922 -631.262)"/></g><g transform="translate(1.402 26.91)"><path class="b" d="M318.251,666.313a4.127,4.127,0,0,1-1.488-.278l-8.469-3.27a4.133,4.133,0,0,1,2.978-7.711l8.468,3.27a4.133,4.133,0,0,1-1.489,7.989Z" transform="translate(-305.649 -654.776)"/></g><g transform="translate(0 52.523)"><path class="b" d="M308.242,693.346a4.133,4.133,0,0,1-.938-8.157l9.526-2.229a4.133,4.133,0,0,1,1.882,8.048l-9.525,2.228A4.156,4.156,0,0,1,308.242,693.346Z" transform="translate(-304.112 -682.851)"/></g><g transform="translate(25.744 25.232)"><path class="b" d="M337.69,687.105a4.134,4.134,0,0,1-3.867-2.675,23.29,23.29,0,0,1,31.339-29.45,4.133,4.133,0,0,1-3.394,7.536,15.027,15.027,0,0,0-20.212,19,4.134,4.134,0,0,1-3.866,5.591Z" transform="translate(-332.331 -652.936)"/></g></g><g transform="translate(412.293 131.111)"><g transform="translate(50.315)"><path class="b" d="M611.735,198.714h-.05a4.133,4.133,0,0,1-4.083-4.181l.12-10.158a4.133,4.133,0,1,1,8.265.1l-.12,10.158A4.133,4.133,0,0,1,611.735,198.714Z" transform="translate(-607.601 -180.291)"/></g><g transform="translate(21.722 5.459)"><path class="b" d="M585.286,202.082a4.128,4.128,0,0,1-3.471-1.885l-4.891-7.542a4.133,4.133,0,1,1,6.935-4.5l4.891,7.543a4.133,4.133,0,0,1-3.464,6.381Z" transform="translate(-576.259 -186.274)"/></g><g transform="translate(1.402 26.91)"><path class="b" d="M566.587,221.325a4.127,4.127,0,0,1-1.488-.278l-8.468-3.27a4.133,4.133,0,0,1,2.977-7.711l8.469,3.27a4.133,4.133,0,0,1-1.49,7.989Z" transform="translate(-553.985 -209.788)"/></g><g transform="translate(0 52.523)"><path class="b" d="M556.579,248.358a4.133,4.133,0,0,1-.938-8.157l9.525-2.229a4.133,4.133,0,0,1,1.883,8.048l-9.526,2.228A4.152,4.152,0,0,1,556.579,248.358Z" transform="translate(-552.449 -237.863)"/></g><g transform="translate(25.743 25.233)"><path class="b" d="M586.026,242.117a4.134,4.134,0,0,1-3.867-2.675,23.291,23.291,0,0,1,31.339-29.45,4.133,4.133,0,0,1-3.394,7.537,15.027,15.027,0,0,0-20.212,19,4.134,4.134,0,0,1-3.866,5.591Z" transform="translate(-580.667 -207.949)"/></g></g><g transform="translate(657.293 50.111)"><g transform="translate(50.315)"><path class="b" d="M611.735,198.714h-.05a4.133,4.133,0,0,1-4.083-4.181l.12-10.158a4.133,4.133,0,1,1,8.265.1l-.12,10.158A4.133,4.133,0,0,1,611.735,198.714Z" transform="translate(-607.601 -180.291)"/></g><g transform="translate(21.722 5.459)"><path class="b" d="M585.286,202.082a4.128,4.128,0,0,1-3.471-1.885l-4.891-7.542a4.133,4.133,0,1,1,6.935-4.5l4.891,7.543a4.133,4.133,0,0,1-3.464,6.381Z" transform="translate(-576.259 -186.274)"/></g><g transform="translate(1.402 26.91)"><path class="b" d="M566.587,221.325a4.127,4.127,0,0,1-1.488-.278l-8.468-3.27a4.133,4.133,0,0,1,2.977-7.711l8.469,3.27a4.133,4.133,0,0,1-1.49,7.989Z" transform="translate(-553.985 -209.788)"/></g><g transform="translate(0 52.523)"><path class="b" d="M556.579,248.358a4.133,4.133,0,0,1-.938-8.157l9.525-2.229a4.133,4.133,0,0,1,1.883,8.048l-9.526,2.228A4.152,4.152,0,0,1,556.579,248.358Z" transform="translate(-552.449 -237.863)"/></g><g transform="translate(25.743 25.233)"><path class="b" d="M586.026,242.117a4.134,4.134,0,0,1-3.867-2.675,23.291,23.291,0,0,1,31.339-29.45,4.133,4.133,0,0,1-3.394,7.537,15.027,15.027,0,0,0-20.212,19,4.134,4.134,0,0,1-3.866,5.591Z" transform="translate(-580.667 -207.949)"/></g></g><g transform="translate(841.355 242.502) rotate(83)"><g transform="translate(50.315 0)"><path class="b" d="M4.134,18.423h-.05A4.133,4.133,0,0,1,0,14.241L.12,4.084a4.133,4.133,0,1,1,8.265.1l-.12,10.158A4.133,4.133,0,0,1,4.134,18.423Z"/></g><g transform="translate(21.722 5.459)"><path class="b" d="M9.028,15.808a4.128,4.128,0,0,1-3.471-1.885L.665,6.381A4.133,4.133,0,1,1,7.6,1.885l4.891,7.543a4.133,4.133,0,0,1-3.464,6.381Z"/></g><g transform="translate(1.402 26.91)"><path class="b" d="M12.6,11.537a4.127,4.127,0,0,1-1.488-.278L2.645,7.989A4.133,4.133,0,0,1,5.622.278l8.469,3.27a4.133,4.133,0,0,1-1.49,7.989Z"/></g><g transform="translate(0 52.523)"><path class="b" d="M4.13,10.5a4.133,4.133,0,0,1-.938-8.157L12.718.11A4.133,4.133,0,0,1,14.6,8.158L5.074,10.386A4.152,4.152,0,0,1,4.13,10.5Z"/></g><g transform="translate(25.744 25.233)"><path class="b" d="M5.359,34.168a4.134,4.134,0,0,1-3.867-2.675A23.291,23.291,0,0,1,32.831,2.044,4.133,4.133,0,0,1,29.437,9.58a15.027,15.027,0,0,0-20.212,19,4.134,4.134,0,0,1-3.866,5.591Z"/></g></g><g transform="translate(778.629 486.846)"><g transform="translate(50.315)"><path class="b" d="M1013.286,588.645h-.05a4.133,4.133,0,0,1-4.083-4.181l.12-10.158a4.133,4.133,0,1,1,8.265.1l-.12,10.158A4.133,4.133,0,0,1,1013.286,588.645Z" transform="translate(-1009.152 -570.222)"/></g><g transform="translate(21.722 5.459)"><path class="b" d="M986.837,592.013a4.128,4.128,0,0,1-3.471-1.885l-4.891-7.542a4.133,4.133,0,1,1,6.935-4.5l4.891,7.543a4.133,4.133,0,0,1-3.464,6.381Z" transform="translate(-977.81 -576.205)"/></g><g transform="translate(1.402 26.91)"><path class="b" d="M968.138,611.256a4.116,4.116,0,0,1-1.487-.278l-8.469-3.27A4.133,4.133,0,0,1,961.159,600l8.469,3.27a4.133,4.133,0,0,1-1.49,7.989Z" transform="translate(-955.537 -599.719)"/></g><g transform="translate(0 52.523)"><path class="b" d="M958.13,638.289a4.133,4.133,0,0,1-.938-8.157l9.525-2.229a4.132,4.132,0,1,1,1.883,8.047l-9.526,2.229A4.149,4.149,0,0,1,958.13,638.289Z" transform="translate(-954 -627.794)"/></g><g transform="translate(25.743 25.232)"><path class="b" d="M987.578,632.048a4.133,4.133,0,0,1-3.868-2.676,23.29,23.29,0,0,1,31.339-29.449,4.133,4.133,0,1,1-3.394,7.536,15.027,15.027,0,0,0-20.212,19,4.134,4.134,0,0,1-3.865,5.591Z" transform="translate(-982.218 -597.879)"/></g></g><g transform="translate(1002.66 26.929)"><g transform="translate(50.316)"><path class="b" d="M1258.853,84.516h-.049a4.133,4.133,0,0,1-4.084-4.181l.12-10.158a4.133,4.133,0,0,1,8.265.1l-.12,10.158A4.133,4.133,0,0,1,1258.853,84.516Z" transform="translate(-1254.72 -66.094)"/></g><g transform="translate(21.722 5.458)"><path class="b" d="M1232.405,87.885A4.13,4.13,0,0,1,1228.933,86l-4.89-7.543a4.133,4.133,0,1,1,6.935-4.5l4.89,7.542a4.133,4.133,0,0,1-3.463,6.382Z" transform="translate(-1223.377 -72.076)"/></g><g transform="translate(1.402 26.91)"><path class="b" d="M1213.706,107.128a4.109,4.109,0,0,1-1.488-.279l-8.469-3.27a4.132,4.132,0,1,1,2.978-7.71l8.468,3.27a4.133,4.133,0,0,1-1.489,7.989Z" transform="translate(-1201.104 -95.591)"/></g><g transform="translate(0 52.523)"><path class="b" d="M1203.7,134.161a4.133,4.133,0,0,1-.938-8.158l9.526-2.228a4.132,4.132,0,0,1,1.882,8.047l-9.525,2.229A4.154,4.154,0,0,1,1203.7,134.161Z" transform="translate(-1199.567 -123.666)"/></g><g transform="translate(25.744 25.232)"><path class="b" d="M1233.145,127.92a4.133,4.133,0,0,1-3.867-2.676,23.291,23.291,0,0,1,31.339-29.45,4.133,4.133,0,0,1-3.394,7.537,15.027,15.027,0,0,0-20.212,19,4.136,4.136,0,0,1-3.866,5.591Z" transform="translate(-1227.786 -93.751)"/></g></g><g transform="translate(459.514 323.06)"><g transform="translate(45.595)"><path class="b" d="M659.853,409.033l-.049.005a4.132,4.132,0,0,1-4.539-3.681l-1.056-10.1a4.133,4.133,0,0,1,8.221-.858l1.055,10.1A4.132,4.132,0,0,1,659.853,409.033Z" transform="translate(-654.187 -390.691)"/></g><g transform="translate(17.706 8.74)"><path class="b" d="M633.96,415.435a4.128,4.128,0,0,1-3.666-1.471l-5.729-6.928a4.133,4.133,0,0,1,6.37-5.267l5.729,6.927a4.132,4.132,0,0,1-2.7,6.738Z" transform="translate(-623.617 -400.271)"/></g><g transform="translate(0 32.394)"><path class="b" d="M617.608,436.709a4.112,4.112,0,0,1-1.51-.1l-8.789-2.27a4.133,4.133,0,0,1,2.066-8l8.79,2.27a4.133,4.133,0,0,1-.557,8.108Z" transform="translate(-604.209 -426.199)"/></g><g transform="translate(1.823 56.897)"><path class="b" d="M610.814,464.611a4.133,4.133,0,0,1-1.874-7.994l9.205-3.314a4.132,4.132,0,1,1,2.8,7.776l-9.2,3.313A4.1,4.1,0,0,1,610.814,464.611Z" transform="translate(-606.207 -453.058)"/></g><g transform="translate(26.067 25.573)"><path class="b" d="M639.519,454.891a4.132,4.132,0,0,1-4.15-2.211A23.291,23.291,0,0,1,663.1,419.809a4.133,4.133,0,1,1-2.5,7.878,15.026,15.026,0,0,0-17.882,21.2,4.133,4.133,0,0,1-3.195,6Z" transform="translate(-632.782 -418.722)"/></g></g><g transform="translate(258.584 21.814)"><g transform="translate(46.005 48.862)"><path class="b" d="M434.393,118.466v-.049a4.132,4.132,0,0,1,4.063-4.2l10.157-.169a4.133,4.133,0,0,1,.137,8.265l-10.157.169A4.133,4.133,0,0,1,434.393,118.466Z" transform="translate(-434.391 -114.046)"/></g><g transform="translate(42.489 20.316)"><path class="b" d="M430.54,92.113a4.126,4.126,0,0,1,1.785-3.523l7.4-5.1a4.133,4.133,0,1,1,4.692,6.8l-7.4,5.1a4.133,4.133,0,0,1-6.476-3.282Z" transform="translate(-430.538 -82.756)"/></g><g transform="translate(24.841 0.612)"><path class="b" d="M411.195,73.966a4.123,4.123,0,0,1,.236-1.494l3.028-8.558a4.133,4.133,0,0,1,7.792,2.757l-3.028,8.558a4.134,4.134,0,0,1-8.028-1.263Z" transform="translate(-411.193 -61.158)"/></g><path class="b" d="M383.966,64.735a4.133,4.133,0,0,1,8.128-1.169l2.5,9.459a4.132,4.132,0,1,1-7.991,2.11l-2.5-9.459A4.168,4.168,0,0,1,383.966,64.735Z" transform="translate(-383.964 -60.488)"/><g transform="translate(4.381 25.431)"><path class="b" d="M388.768,94.038a4.132,4.132,0,0,1,2.565-3.941,23.291,23.291,0,0,1,30.327,30.492,4.133,4.133,0,1,1-7.63-3.179,15.026,15.026,0,0,0-19.562-19.665,4.134,4.134,0,0,1-5.7-3.707Z" transform="translate(-388.766 -88.364)"/></g></g><g transform="translate(203.349 360.2)"><g transform="translate(46.004 48.863)"><path class="b" d="M373.848,489.38v-.049a4.133,4.133,0,0,1,4.063-4.2l10.158-.169a4.132,4.132,0,1,1,.137,8.264l-10.157.169A4.134,4.134,0,0,1,373.848,489.38Z" transform="translate(-373.846 -484.961)"/></g><g transform="translate(42.489 20.316)"><path class="b" d="M369.995,463.027a4.129,4.129,0,0,1,1.786-3.523l7.4-5.1a4.133,4.133,0,1,1,4.691,6.8l-7.4,5.1a4.133,4.133,0,0,1-6.477-3.282Z" transform="translate(-369.993 -453.67)"/></g><g transform="translate(24.841 0.612)"><path class="b" d="M350.651,444.881a4.126,4.126,0,0,1,.236-1.5l3.028-8.557a4.133,4.133,0,1,1,7.792,2.757l-3.029,8.557a4.133,4.133,0,0,1-8.027-1.262Z" transform="translate(-350.649 -432.073)"/></g><path class="b" d="M323.422,435.649a4.133,4.133,0,0,1,8.127-1.169l2.5,9.459a4.132,4.132,0,1,1-7.991,2.11l-2.5-9.459A4.1,4.1,0,0,1,323.422,435.649Z" transform="translate(-323.42 -431.402)"/><g transform="translate(4.38 25.432)"><path class="b" d="M328.223,464.953a4.134,4.134,0,0,1,2.565-3.942A23.29,23.29,0,0,1,361.114,491.5a4.133,4.133,0,0,1-7.63-3.178,15.027,15.027,0,0,0-19.562-19.666,4.136,4.136,0,0,1-5.7-3.706Z" transform="translate(-328.221 -459.279)"/></g></g><g transform="translate(24.896 640.372)"><g transform="translate(46.005 48.862)"><path class="b" d="M178.241,796.484v-.049a4.132,4.132,0,0,1,4.063-4.2l10.157-.169a4.133,4.133,0,0,1,.138,8.265l-10.158.169A4.133,4.133,0,0,1,178.241,796.484Z" transform="translate(-178.239 -792.064)"/></g><g transform="translate(42.49 20.316)"><path class="b" d="M174.388,770.131a4.131,4.131,0,0,1,1.785-3.523l7.4-5.1a4.133,4.133,0,0,1,4.691,6.8l-7.4,5.1a4.133,4.133,0,0,1-6.476-3.282Z" transform="translate(-174.386 -760.774)"/></g><g transform="translate(24.842 0.612)"><path class="b" d="M155.044,751.984a4.1,4.1,0,0,1,.235-1.494l3.029-8.558a4.132,4.132,0,1,1,7.791,2.758l-3.028,8.557a4.133,4.133,0,0,1-8.027-1.263Z" transform="translate(-155.042 -739.177)"/></g><path class="b" d="M127.814,742.753a4.133,4.133,0,0,1,8.128-1.169l2.5,9.459a4.133,4.133,0,0,1-7.992,2.11l-2.5-9.459A4.168,4.168,0,0,1,127.814,742.753Z" transform="translate(-127.812 -738.506)"/><g transform="translate(4.381 25.431)"><path class="b" d="M132.616,772.057a4.134,4.134,0,0,1,2.564-3.942,23.291,23.291,0,0,1,30.327,30.492,4.133,4.133,0,0,1-7.63-3.179,15.026,15.026,0,0,0-19.562-19.665,4.134,4.134,0,0,1-5.7-3.706Z" transform="translate(-132.614 -766.382)"/></g></g><g transform="translate(316.776 254.774)"><g transform="translate(67.2 15.751)"><path class="b" d="M522.7,347.546l-.036-.034a4.134,4.134,0,0,1-.1-5.844l7.063-7.3a4.133,4.133,0,0,1,5.941,5.747l-7.063,7.3A4.132,4.132,0,0,1,522.7,347.546Z" transform="translate(-521.409 -333.107)"/></g><g transform="translate(48.017)"><path class="b" d="M501.68,331.824a4.131,4.131,0,0,1-1.229-3.754l1.626-8.841a4.132,4.132,0,1,1,8.129,1.494l-1.625,8.841a4.134,4.134,0,0,1-6.9,2.26Z" transform="translate(-500.383 -315.842)"/></g><g transform="translate(20.139 1.638)"><path class="b" d="M475.03,332.967a4.109,4.109,0,0,1-.89-1.223l-3.91-8.193a4.132,4.132,0,1,1,7.459-3.56l3.91,8.193a4.133,4.133,0,0,1-6.569,4.783Z" transform="translate(-469.825 -317.637)"/></g><g transform="translate(0 20.913)"><path class="b" d="M449.042,345.9a4.133,4.133,0,0,1,4.921-6.573l8.454,4.922a4.133,4.133,0,0,1-4.159,7.142l-8.454-4.922A4.144,4.144,0,0,1,449.042,345.9Z" transform="translate(-447.75 -338.765)"/></g><g transform="translate(22.087 25.066)"><path class="b" d="M473.255,362.194a4.135,4.135,0,0,1-.974-4.6,23.29,23.29,0,0,1,43.005.117,4.133,4.133,0,0,1-7.642,3.147,15.027,15.027,0,0,0-27.739-.073,4.134,4.134,0,0,1-6.65,1.41Z" transform="translate(-471.96 -343.318)"/></g></g><g transform="translate(0 214.373)"><g transform="translate(67.2 15.751)"><path class="b" d="M175.478,303.261l-.036-.035a4.133,4.133,0,0,1-.1-5.843l7.063-7.3a4.133,4.133,0,1,1,5.941,5.747l-7.063,7.3A4.133,4.133,0,0,1,175.478,303.261Z" transform="translate(-174.182 -288.822)"/></g><g transform="translate(48.017)"><path class="b" d="M154.453,287.538a4.131,4.131,0,0,1-1.229-3.754l1.626-8.841a4.132,4.132,0,1,1,8.129,1.494l-1.625,8.842a4.133,4.133,0,0,1-6.9,2.259Z" transform="translate(-153.156 -271.557)"/></g><g transform="translate(20.139 1.638)"><path class="b" d="M127.8,288.682a4.124,4.124,0,0,1-.89-1.224L123,279.266a4.133,4.133,0,0,1,7.46-3.56l3.909,8.192a4.133,4.133,0,0,1-6.569,4.784Z" transform="translate(-122.599 -273.352)"/></g><g transform="translate(0 20.912)"><path class="b" d="M101.815,301.614a4.133,4.133,0,0,1,4.921-6.573l8.454,4.922a4.133,4.133,0,0,1-4.158,7.143l-8.454-4.923A4.143,4.143,0,0,1,101.815,301.614Z" transform="translate(-100.523 -294.479)"/></g><g transform="translate(22.087 25.066)"><path class="b" d="M126.028,317.908a4.133,4.133,0,0,1-.973-4.6,23.291,23.291,0,0,1,43.005.117,4.133,4.133,0,0,1-7.643,3.147,15.025,15.025,0,0,0-27.738-.072,4.135,4.135,0,0,1-6.651,1.409Z" transform="translate(-124.733 -299.033)"/></g></g><g transform="translate(1283.221 314.009)"><g transform="translate(50.315)"><path class="b" d="M1566.384,399.192h-.049a4.133,4.133,0,0,1-4.084-4.181l.119-10.158a4.133,4.133,0,0,1,8.265.1l-.119,10.158A4.133,4.133,0,0,1,1566.384,399.192Z" transform="translate(-1562.25 -380.77)"/></g><g transform="translate(21.722 5.458)"><path class="b" d="M1539.935,402.561a4.129,4.129,0,0,1-3.471-1.885l-4.891-7.543a4.133,4.133,0,0,1,6.935-4.5l4.891,7.543a4.133,4.133,0,0,1-3.464,6.381Z" transform="translate(-1530.908 -386.753)"/></g><g transform="translate(1.402 26.91)"><path class="b" d="M1521.236,421.8a4.1,4.1,0,0,1-1.487-.279l-8.469-3.269a4.133,4.133,0,0,1,2.977-7.711l8.469,3.27a4.133,4.133,0,0,1-1.49,7.989Z" transform="translate(-1508.635 -410.267)"/></g><g transform="translate(0 52.523)"><path class="b" d="M1511.228,448.837a4.133,4.133,0,0,1-.938-8.158l9.525-2.228a4.132,4.132,0,1,1,1.883,8.047l-9.525,2.229A4.154,4.154,0,0,1,1511.228,448.837Z" transform="translate(-1507.098 -438.342)"/></g><g transform="translate(25.744 25.232)"><path class="b" d="M1540.676,442.6a4.135,4.135,0,0,1-3.868-2.676,23.29,23.29,0,0,1,31.339-29.449,4.132,4.132,0,1,1-3.394,7.536,15.027,15.027,0,0,0-20.212,19,4.134,4.134,0,0,1-3.865,5.591Z" transform="translate(-1535.317 -408.427)"/></g></g><g transform="translate(1371.07 24.132)"><g transform="translate(46.005 48.863)"><path class="b" d="M1653.82,121.006v-.049a4.132,4.132,0,0,1,4.063-4.2l10.157-.169a4.132,4.132,0,0,1,.137,8.264l-10.157.169A4.133,4.133,0,0,1,1653.82,121.006Z" transform="translate(-1653.818 -116.587)"/></g><g transform="translate(42.49 20.316)"><path class="b" d="M1649.967,94.654a4.129,4.129,0,0,1,1.785-3.524l7.4-5.1a4.133,4.133,0,0,1,4.692,6.806l-7.4,5.1a4.132,4.132,0,0,1-6.476-3.281Z" transform="translate(-1649.965 -85.297)"/></g><g transform="translate(24.841 0.613)"><path class="b" d="M1630.622,76.507a4.129,4.129,0,0,1,.236-1.5l3.028-8.557a4.133,4.133,0,0,1,7.792,2.757l-3.028,8.558a4.134,4.134,0,0,1-8.028-1.263Z" transform="translate(-1630.62 -63.699)"/></g><path class="b" d="M1603.393,67.275a4.133,4.133,0,0,1,8.128-1.169l2.5,9.459a4.132,4.132,0,1,1-7.991,2.11l-2.5-9.459A4.155,4.155,0,0,1,1603.393,67.275Z" transform="translate(-1603.391 -63.028)"/><g transform="translate(4.381 25.432)"><path class="b" d="M1608.195,96.579a4.136,4.136,0,0,1,2.565-3.942,23.292,23.292,0,0,1,30.327,30.492,4.133,4.133,0,0,1-7.63-3.178,15.027,15.027,0,0,0-19.562-19.666,4.133,4.133,0,0,1-5.7-3.706Z" transform="translate(-1608.193 -90.905)"/></g></g><g transform="translate(1472.439 343.104)"><g transform="translate(46.004 48.862)"><path class="b" d="M1764.932,470.641v-.049a4.134,4.134,0,0,1,4.063-4.2l10.158-.169a4.133,4.133,0,0,1,.137,8.265l-10.157.169A4.134,4.134,0,0,1,1764.932,470.641Z" transform="translate(-1764.93 -466.221)"/></g><g transform="translate(42.489 20.316)"><path class="b" d="M1761.079,444.288a4.13,4.13,0,0,1,1.786-3.523l7.4-5.1a4.133,4.133,0,1,1,4.691,6.8l-7.4,5.1a4.134,4.134,0,0,1-6.477-3.282Z" transform="translate(-1761.077 -434.931)"/></g><g transform="translate(24.841 0.612)"><path class="b" d="M1741.735,426.141a4.1,4.1,0,0,1,.236-1.494l3.028-8.558a4.133,4.133,0,0,1,7.792,2.758l-3.029,8.557a4.133,4.133,0,0,1-8.027-1.263Z" transform="translate(-1741.733 -413.333)"/></g><path class="b" d="M1714.506,416.91a4.133,4.133,0,0,1,8.127-1.169l2.5,9.459a4.132,4.132,0,0,1-7.991,2.11l-2.5-9.459A4.122,4.122,0,0,1,1714.506,416.91Z" transform="translate(-1714.504 -412.663)"/><g transform="translate(4.38 25.431)"><path class="b" d="M1719.307,446.214a4.133,4.133,0,0,1,2.565-3.942,23.29,23.29,0,0,1,30.326,30.492,4.133,4.133,0,0,1-7.63-3.179,15.026,15.026,0,0,0-19.562-19.665,4.136,4.136,0,0,1-5.7-3.706Z" transform="translate(-1719.305 -440.539)"/></g></g><g transform="translate(1687.439 572.105)"><g transform="translate(46.004 48.862)"><path class="b" d="M1764.932,470.641v-.049a4.134,4.134,0,0,1,4.063-4.2l10.158-.169a4.133,4.133,0,0,1,.137,8.265l-10.157.169A4.134,4.134,0,0,1,1764.932,470.641Z" transform="translate(-1764.93 -466.221)"/></g><g transform="translate(42.489 20.316)"><path class="b" d="M1761.079,444.288a4.13,4.13,0,0,1,1.786-3.523l7.4-5.1a4.133,4.133,0,1,1,4.691,6.8l-7.4,5.1a4.134,4.134,0,0,1-6.477-3.282Z" transform="translate(-1761.077 -434.931)"/></g><g transform="translate(24.841 0.612)"><path class="b" d="M1741.735,426.141a4.1,4.1,0,0,1,.236-1.494l3.028-8.558a4.133,4.133,0,0,1,7.792,2.758l-3.029,8.557a4.133,4.133,0,0,1-8.027-1.263Z" transform="translate(-1741.733 -413.333)"/></g><path class="b" d="M1714.506,416.91a4.133,4.133,0,0,1,8.127-1.169l2.5,9.459a4.132,4.132,0,0,1-7.991,2.11l-2.5-9.459A4.122,4.122,0,0,1,1714.506,416.91Z" transform="translate(-1714.504 -412.663)"/><g transform="translate(4.38 25.431)"><path class="b" d="M1719.307,446.214a4.133,4.133,0,0,1,2.565-3.942,23.29,23.29,0,0,1,30.326,30.492,4.133,4.133,0,0,1-7.63-3.179,15.026,15.026,0,0,0-19.562-19.665,4.136,4.136,0,0,1-5.7-3.706Z" transform="translate(-1719.305 -440.539)"/></g></g><g transform="translate(1234.903 156.763)"><g transform="translate(67.199 15.751)"><path class="b" d="M1529.088,240.113l-.036-.035a4.133,4.133,0,0,1-.1-5.843l7.063-7.3a4.133,4.133,0,0,1,5.941,5.747l-7.063,7.3A4.133,4.133,0,0,1,1529.088,240.113Z" transform="translate(-1527.793 -225.673)"/></g><g transform="translate(48.017)"><path class="b" d="M1508.064,224.39a4.131,4.131,0,0,1-1.229-3.754l1.626-8.841a4.132,4.132,0,0,1,8.129,1.494l-1.625,8.841a4.134,4.134,0,0,1-6.9,2.26Z" transform="translate(-1506.767 -208.408)"/></g><g transform="translate(20.139 1.638)"><path class="b" d="M1481.414,225.534a4.129,4.129,0,0,1-.89-1.224l-3.91-8.192a4.132,4.132,0,0,1,7.459-3.56l3.91,8.192a4.133,4.133,0,0,1-6.569,4.784Z" transform="translate(-1476.209 -210.204)"/></g><g transform="translate(0 20.912)"><path class="b" d="M1455.426,238.466a4.133,4.133,0,0,1,4.921-6.573l8.454,4.922a4.133,4.133,0,0,1-4.159,7.142l-8.454-4.922A4.163,4.163,0,0,1,1455.426,238.466Z" transform="translate(-1454.134 -231.331)"/></g><g transform="translate(22.087 25.066)"><path class="b" d="M1479.639,254.76a4.135,4.135,0,0,1-.974-4.6,23.29,23.29,0,0,1,43,.117,4.133,4.133,0,1,1-7.642,3.147,15.026,15.026,0,0,0-27.738-.073,4.134,4.134,0,0,1-6.651,1.41Z" transform="translate(-1478.344 -235.884)"/></g></g><g transform="translate(1539.55 55.05) rotate(-21)"><g transform="translate(67.199 15.751)"><path class="b" d="M1.295,14.44l-.036-.035a4.133,4.133,0,0,1-.1-5.843l7.063-7.3a4.133,4.133,0,0,1,5.941,5.747L7.1,14.309A4.133,4.133,0,0,1,1.295,14.44Z"/></g><g transform="translate(48.017)"><path class="b" d="M1.3,15.981A4.131,4.131,0,0,1,.069,12.227L1.695,3.386A4.132,4.132,0,0,1,9.823,4.881L8.2,13.722a4.134,4.134,0,0,1-6.9,2.26Z"/></g><g transform="translate(20.139 1.638)"><path class="b" d="M5.2,15.33a4.129,4.129,0,0,1-.89-1.224L.4,5.914a4.132,4.132,0,0,1,7.459-3.56l3.91,8.192A4.133,4.133,0,0,1,5.2,15.33Z"/></g><g transform="translate(0 20.912)"><path class="b" d="M1.292,7.135A4.133,4.133,0,0,1,6.213.562l8.454,4.922a4.133,4.133,0,0,1-4.159,7.142L2.053,7.7A4.163,4.163,0,0,1,1.292,7.135Z"/></g><g transform="translate(22.087 25.066)"><path class="b" d="M1.3,18.876a4.135,4.135,0,0,1-.974-4.6A23.293,23.293,0,0,1,37.788,6.347a23.106,23.106,0,0,1,5.538,8.045,4.133,4.133,0,1,1-7.642,3.147,15.026,15.026,0,0,0-27.738-.073A4.134,4.134,0,0,1,1.3,18.876Z"/></g></g><g transform="translate(1672.39 181.688) rotate(43)"><g transform="translate(67.199 15.751)"><path class="b" d="M1.295,14.44l-.036-.035a4.133,4.133,0,0,1-.1-5.843l7.063-7.3a4.133,4.133,0,0,1,5.941,5.747L7.1,14.309A4.133,4.133,0,0,1,1.295,14.44Z"/></g><g transform="translate(48.017)"><path class="b" d="M1.3,15.981A4.131,4.131,0,0,1,.069,12.227L1.695,3.386A4.132,4.132,0,0,1,9.823,4.881L8.2,13.722a4.134,4.134,0,0,1-6.9,2.26Z"/></g><g transform="translate(20.139 1.638)"><path class="b" d="M5.2,15.33a4.129,4.129,0,0,1-.89-1.224L.4,5.914a4.132,4.132,0,0,1,7.459-3.56l3.91,8.192A4.133,4.133,0,0,1,5.2,15.33Z"/></g><g transform="translate(0 20.912)"><path class="b" d="M1.292,7.135A4.133,4.133,0,0,1,6.213.562l8.454,4.922a4.133,4.133,0,0,1-4.159,7.142L2.053,7.7A4.163,4.163,0,0,1,1.292,7.135Z"/></g><g transform="translate(22.087 25.066)"><path class="b" d="M1.3,18.876a4.135,4.135,0,0,1-.974-4.6A23.293,23.293,0,0,1,37.788,6.347a23.106,23.106,0,0,1,5.538,8.045,4.133,4.133,0,1,1-7.642,3.147,15.026,15.026,0,0,0-27.738-.073A4.134,4.134,0,0,1,1.3,18.876Z"/></g></g><g transform="translate(909.582 342.614)"><g transform="translate(67.199 15.751)"><path class="b" d="M1172.5,443.829l-.037-.035a4.133,4.133,0,0,1-.1-5.843l7.063-7.3a4.132,4.132,0,1,1,5.94,5.747l-7.062,7.3A4.133,4.133,0,0,1,1172.5,443.829Z" transform="translate(-1171.2 -429.389)"/></g><g transform="translate(48.017)"><path class="b" d="M1151.471,428.106a4.129,4.129,0,0,1-1.229-3.754l1.626-8.841A4.132,4.132,0,0,1,1160,417l-1.626,8.841a4.133,4.133,0,0,1-6.9,2.26Z" transform="translate(-1150.174 -412.125)"/></g><g transform="translate(20.139 1.638)"><path class="b" d="M1124.821,429.25a4.125,4.125,0,0,1-.891-1.224l-3.91-8.192a4.132,4.132,0,1,1,7.459-3.56l3.91,8.192a4.133,4.133,0,0,1-6.568,4.784Z" transform="translate(-1119.616 -413.92)"/></g><g transform="translate(0 20.912)"><path class="b" d="M1098.833,442.182a4.133,4.133,0,0,1,4.921-6.573l8.454,4.922a4.133,4.133,0,1,1-4.159,7.142l-8.454-4.922A4.107,4.107,0,0,1,1098.833,442.182Z" transform="translate(-1097.541 -435.047)"/></g><g transform="translate(22.086 25.066)"><path class="b" d="M1123.047,458.476a4.132,4.132,0,0,1-.974-4.6,23.29,23.29,0,0,1,43,.117,4.132,4.132,0,1,1-7.642,3.147,15.027,15.027,0,0,0-27.739-.073,4.133,4.133,0,0,1-6.65,1.409Z" transform="translate(-1121.75 -439.6)"/></g></g><g transform="translate(1111.178 311.945)"><g transform="translate(46.005 48.863)"><path class="b" d="M1368.945,436.486v-.049a4.132,4.132,0,0,1,4.063-4.2l10.157-.169a4.132,4.132,0,0,1,.137,8.264l-10.157.169A4.133,4.133,0,0,1,1368.945,436.486Z" transform="translate(-1368.943 -432.067)"/></g><g transform="translate(42.49 20.316)"><path class="b" d="M1365.092,410.134a4.129,4.129,0,0,1,1.785-3.524l7.4-5.1a4.133,4.133,0,0,1,4.692,6.8l-7.4,5.1a4.133,4.133,0,0,1-6.476-3.281Z" transform="translate(-1365.09 -400.777)"/></g><g transform="translate(24.841 0.613)"><path class="b" d="M1345.747,391.987a4.129,4.129,0,0,1,.236-1.5l3.028-8.557a4.133,4.133,0,0,1,7.792,2.757l-3.028,8.558a4.134,4.134,0,0,1-8.028-1.263Z" transform="translate(-1345.745 -379.179)"/></g><path class="b" d="M1318.518,382.755a4.133,4.133,0,0,1,8.128-1.169l2.5,9.459a4.132,4.132,0,1,1-7.991,2.11l-2.5-9.459A4.155,4.155,0,0,1,1318.518,382.755Z" transform="translate(-1318.516 -378.508)"/><g transform="translate(4.381 25.432)"><path class="b" d="M1323.32,412.059a4.134,4.134,0,0,1,2.564-3.942,23.292,23.292,0,0,1,30.327,30.492,4.133,4.133,0,0,1-7.63-3.178,15.027,15.027,0,0,0-19.562-19.666,4.133,4.133,0,0,1-5.7-3.706Z" transform="translate(-1323.318 -406.385)"/></g></g><g transform="translate(358.24 669.527)"><g transform="translate(67.2 15.751)"><path class="b" d="M568.154,802.168l-.036-.035a4.132,4.132,0,0,1-.1-5.843l7.062-7.3a4.133,4.133,0,0,1,5.941,5.747l-7.063,7.3A4.133,4.133,0,0,1,568.154,802.168Z" transform="translate(-566.86 -787.729)"/></g><g transform="translate(48.017)"><path class="b" d="M547.13,786.446a4.133,4.133,0,0,1-1.229-3.755l1.626-8.841a4.132,4.132,0,1,1,8.129,1.5l-1.625,8.841a4.134,4.134,0,0,1-6.9,2.26Z" transform="translate(-545.833 -770.464)"/></g><g transform="translate(20.139 1.638)"><path class="b" d="M520.48,787.589a4.112,4.112,0,0,1-.89-1.224l-3.91-8.193a4.133,4.133,0,0,1,7.46-3.56l3.91,8.192a4.133,4.133,0,0,1-6.57,4.784Z" transform="translate(-515.276 -772.259)"/></g><g transform="translate(0 20.912)"><path class="b" d="M494.492,800.522a4.133,4.133,0,0,1,4.921-6.574l8.454,4.923a4.132,4.132,0,0,1-4.158,7.142l-8.454-4.922A4.177,4.177,0,0,1,494.492,800.522Z" transform="translate(-493.2 -793.386)"/></g><g transform="translate(22.087 25.066)"><path class="b" d="M518.706,816.816a4.135,4.135,0,0,1-.973-4.6,23.291,23.291,0,0,1,43.005.118,4.133,4.133,0,0,1-7.643,3.146,15.026,15.026,0,0,0-27.738-.072,4.136,4.136,0,0,1-6.651,1.409Z" transform="translate(-517.41 -797.94)"/></g></g><g transform="translate(549.465 496.319)"><g transform="translate(67.199 15.75)"><path class="b" d="M777.761,612.31l-.036-.035a4.132,4.132,0,0,1-.1-5.843l7.063-7.3a4.132,4.132,0,0,1,5.94,5.747l-7.063,7.3A4.133,4.133,0,0,1,777.761,612.31Z" transform="translate(-776.467 -597.87)"/></g><g transform="translate(48.017)"><path class="b" d="M756.738,596.587a4.127,4.127,0,0,1-1.229-3.754l1.625-8.841a4.133,4.133,0,0,1,8.13,1.494l-1.626,8.841a4.133,4.133,0,0,1-6.9,2.26Z" transform="translate(-755.44 -580.605)"/></g><g transform="translate(20.139 1.638)"><path class="b" d="M730.087,597.731a4.122,4.122,0,0,1-.889-1.224l-3.91-8.192a4.132,4.132,0,0,1,7.459-3.56l3.91,8.192a4.134,4.134,0,0,1-6.57,4.784Z" transform="translate(-724.883 -582.401)"/></g><g transform="translate(0 20.912)"><path class="b" d="M704.1,610.663a4.133,4.133,0,0,1,4.92-6.573l8.454,4.922a4.132,4.132,0,1,1-4.158,7.142l-8.454-4.922A4.107,4.107,0,0,1,704.1,610.663Z" transform="translate(-702.807 -603.528)"/></g><g transform="translate(22.087 25.066)"><path class="b" d="M728.313,626.957a4.133,4.133,0,0,1-.973-4.6,23.291,23.291,0,0,1,43.005.117,4.133,4.133,0,1,1-7.642,3.147,15.027,15.027,0,0,0-27.739-.073,4.134,4.134,0,0,1-6.651,1.41Z" transform="translate(-727.017 -608.081)"/></g></g><g transform="translate(1172.725 32.231)"><g transform="translate(67.199 15.75)"><path class="b" d="M1460.933,103.609l-.036-.034a4.132,4.132,0,0,1-.1-5.843l7.062-7.3a4.133,4.133,0,1,1,5.941,5.747l-7.063,7.3A4.132,4.132,0,0,1,1460.933,103.609Z" transform="translate(-1459.639 -89.17)"/></g><g transform="translate(48.017)"><path class="b" d="M1439.91,87.887a4.127,4.127,0,0,1-1.229-3.754l1.625-8.841a4.133,4.133,0,0,1,8.13,1.494l-1.626,8.841a4.133,4.133,0,0,1-6.9,2.26Z" transform="translate(-1438.612 -71.905)"/></g><g transform="translate(20.14 1.638)"><path class="b" d="M1413.259,89.031a4.12,4.12,0,0,1-.89-1.224l-3.91-8.192a4.132,4.132,0,1,1,7.459-3.56l3.91,8.192a4.133,4.133,0,0,1-6.569,4.784Z" transform="translate(-1408.055 -73.701)"/></g><g transform="translate(0 20.912)"><path class="b" d="M1387.272,101.963a4.133,4.133,0,0,1,4.92-6.573l8.454,4.922a4.132,4.132,0,1,1-4.158,7.142l-8.454-4.922A4.106,4.106,0,0,1,1387.272,101.963Z" transform="translate(-1385.979 -94.828)"/></g><g transform="translate(22.087 25.066)"><path class="b" d="M1411.484,118.257a4.133,4.133,0,0,1-.973-4.6,23.291,23.291,0,0,1,43.005.117,4.133,4.133,0,1,1-7.643,3.147,15.026,15.026,0,0,0-27.738-.073,4.135,4.135,0,0,1-6.651,1.41Z" transform="translate(-1410.189 -99.381)"/></g></g><g transform="translate(1483.828 595.225)"><g transform="translate(50.316)"><path class="b" d="M1786.274,707.442h-.049a4.133,4.133,0,0,1-4.083-4.181l.12-10.158a4.133,4.133,0,1,1,8.265.1l-.12,10.158A4.133,4.133,0,0,1,1786.274,707.442Z" transform="translate(-1782.141 -689.019)"/></g><g transform="translate(21.722 5.459)"><path class="b" d="M1759.826,710.811a4.131,4.131,0,0,1-3.472-1.885l-4.89-7.543a4.133,4.133,0,0,1,6.935-4.5l4.89,7.543a4.133,4.133,0,0,1-3.463,6.381Z" transform="translate(-1750.798 -695.002)"/></g><g transform="translate(1.402 26.911)"><path class="b" d="M1741.127,730.053a4.125,4.125,0,0,1-1.488-.278l-8.469-3.27a4.132,4.132,0,1,1,2.978-7.71l8.468,3.27a4.133,4.133,0,0,1-1.489,7.988Z" transform="translate(-1728.525 -718.517)"/></g><g transform="translate(0 52.524)"><path class="b" d="M1731.118,757.087a4.133,4.133,0,0,1-.938-8.158l9.526-2.228a4.132,4.132,0,1,1,1.882,8.047l-9.525,2.229A4.155,4.155,0,0,1,1731.118,757.087Z" transform="translate(-1726.988 -746.592)"/></g><g transform="translate(25.744 25.233)"><path class="b" d="M1760.566,750.846a4.133,4.133,0,0,1-3.867-2.676,23.291,23.291,0,0,1,31.339-29.45,4.133,4.133,0,0,1-3.394,7.536,15.027,15.027,0,0,0-20.212,19,4.136,4.136,0,0,1-3.866,5.592Z" transform="translate(-1755.207 -716.677)"/></g></g><g transform="translate(1072.272 657.893)"><g transform="translate(50.315)"><path class="b" d="M1335.157,776.133h-.05a4.133,4.133,0,0,1-4.083-4.181l.12-10.158a4.133,4.133,0,1,1,8.265.1l-.12,10.157A4.132,4.132,0,0,1,1335.157,776.133Z" transform="translate(-1331.023 -757.711)"/></g><g transform="translate(21.722 5.458)"><path class="b" d="M1308.708,779.5a4.128,4.128,0,0,1-3.471-1.885l-4.891-7.543a4.132,4.132,0,1,1,6.935-4.5l4.891,7.542a4.133,4.133,0,0,1-3.464,6.382Z" transform="translate(-1299.681 -763.694)"/></g><g transform="translate(1.402 26.91)"><path class="b" d="M1290.009,798.745a4.1,4.1,0,0,1-1.487-.279l-8.469-3.269a4.133,4.133,0,0,1,2.977-7.711l8.469,3.27a4.133,4.133,0,0,1-1.49,7.989Z" transform="translate(-1277.408 -787.208)"/></g><g transform="translate(0 52.523)"><path class="b" d="M1280,825.778a4.133,4.133,0,0,1-.938-8.158l9.525-2.228a4.132,4.132,0,1,1,1.883,8.047l-9.526,2.229A4.147,4.147,0,0,1,1280,825.778Z" transform="translate(-1275.871 -815.283)"/></g><g transform="translate(25.743 25.232)"><path class="b" d="M1309.449,819.537a4.133,4.133,0,0,1-3.868-2.676,23.29,23.29,0,0,1,31.339-29.449,4.132,4.132,0,1,1-3.394,7.536,15.027,15.027,0,0,0-20.212,19,4.134,4.134,0,0,1-3.865,5.591Z" transform="translate(-1304.089 -785.368)"/></g></g><g transform="translate(1175.919 511.885)"><g transform="translate(46.005 48.862)"><path class="b" d="M1439.909,655.647v-.05a4.131,4.131,0,0,1,4.063-4.2l10.156-.169a4.133,4.133,0,1,1,.138,8.265l-10.157.168A4.131,4.131,0,0,1,1439.909,655.647Z" transform="translate(-1439.907 -651.227)"/></g><g transform="translate(42.49 20.316)"><path class="b" d="M1436.056,629.294a4.127,4.127,0,0,1,1.785-3.523l7.4-5.1a4.133,4.133,0,0,1,4.691,6.8l-7.4,5.1a4.133,4.133,0,0,1-6.476-3.282Z" transform="translate(-1436.054 -619.937)"/></g><g transform="translate(24.841 0.612)"><path class="b" d="M1416.711,611.147a4.124,4.124,0,0,1,.236-1.494l3.029-8.558a4.132,4.132,0,1,1,7.791,2.757l-3.028,8.558a4.134,4.134,0,0,1-8.028-1.263Z" transform="translate(-1416.709 -598.339)"/></g><path class="b" d="M1389.482,601.916a4.133,4.133,0,0,1,8.128-1.169l2.5,9.458a4.133,4.133,0,1,1-7.992,2.11l-2.5-9.458A4.117,4.117,0,0,1,1389.482,601.916Z" transform="translate(-1389.48 -597.668)"/><g transform="translate(4.381 25.432)"><path class="b" d="M1394.284,631.219a4.135,4.135,0,0,1,2.564-3.942,23.291,23.291,0,0,1,30.327,30.492,4.133,4.133,0,1,1-7.63-3.178,15.027,15.027,0,0,0-19.562-19.666,4.133,4.133,0,0,1-5.7-3.706Z" transform="translate(-1394.282 -625.545)"/></g></g><g transform="translate(886.912 631.953)"><g transform="translate(67.199 15.751)"><path class="b" d="M1147.646,760.982l-.036-.034a4.134,4.134,0,0,1-.1-5.844l7.063-7.3a4.133,4.133,0,0,1,5.941,5.747l-7.063,7.3A4.133,4.133,0,0,1,1147.646,760.982Z" transform="translate(-1146.351 -746.543)"/></g><g transform="translate(48.017)"><path class="b" d="M1126.622,745.26a4.131,4.131,0,0,1-1.229-3.754l1.626-8.841a4.132,4.132,0,1,1,8.129,1.494L1133.523,743a4.134,4.134,0,0,1-6.9,2.26Z" transform="translate(-1125.325 -729.278)"/></g><g transform="translate(20.139 1.638)"><path class="b" d="M1099.972,746.4a4.11,4.11,0,0,1-.89-1.223l-3.91-8.192a4.133,4.133,0,1,1,7.459-3.561l3.91,8.193a4.133,4.133,0,0,1-6.569,4.783Z" transform="translate(-1094.767 -731.073)"/></g><g transform="translate(0 20.913)"><path class="b" d="M1073.984,759.336a4.133,4.133,0,0,1,4.921-6.573l8.454,4.922a4.133,4.133,0,0,1-4.159,7.142l-8.454-4.922A4.172,4.172,0,0,1,1073.984,759.336Z" transform="translate(-1072.692 -752.201)"/></g><g transform="translate(22.087 25.066)"><path class="b" d="M1098.2,775.63a4.135,4.135,0,0,1-.974-4.6,23.29,23.29,0,0,1,43,.117,4.132,4.132,0,0,1-7.642,3.147,15.026,15.026,0,0,0-27.738-.073,4.136,4.136,0,0,1-6.651,1.41Z" transform="translate(-1096.902 -756.754)"/></g></g><g transform="translate(1267.017 655.152)"><g transform="translate(67.2 15.751)"><path class="b" d="M1564.291,786.411l-.036-.034a4.133,4.133,0,0,1-.1-5.844l7.063-7.3a4.133,4.133,0,0,1,5.941,5.747l-7.063,7.3A4.133,4.133,0,0,1,1564.291,786.411Z" transform="translate(-1562.995 -771.972)"/></g><g transform="translate(48.017)"><path class="b" d="M1543.266,770.689a4.129,4.129,0,0,1-1.229-3.754l1.626-8.842a4.132,4.132,0,1,1,8.129,1.5l-1.625,8.841a4.134,4.134,0,0,1-6.9,2.26Z" transform="translate(-1541.969 -754.707)"/></g><g transform="translate(20.139 1.638)"><path class="b" d="M1516.616,771.832a4.107,4.107,0,0,1-.89-1.223l-3.91-8.193a4.133,4.133,0,1,1,7.459-3.561l3.91,8.193a4.133,4.133,0,0,1-6.569,4.783Z" transform="translate(-1511.411 -756.502)"/></g><g transform="translate(0 20.913)"><path class="b" d="M1490.628,784.765a4.133,4.133,0,0,1,4.921-6.573l8.454,4.922a4.133,4.133,0,0,1-4.159,7.142l-8.454-4.922A4.144,4.144,0,0,1,1490.628,784.765Z" transform="translate(-1489.336 -777.63)"/></g><g transform="translate(22.087 25.066)"><path class="b" d="M1514.841,801.059a4.134,4.134,0,0,1-.974-4.6,23.29,23.29,0,0,1,43.005.117,4.132,4.132,0,0,1-7.642,3.147,14.882,14.882,0,0,0-3.572-5.185,15.028,15.028,0,0,0-24.167,5.112,4.136,4.136,0,0,1-6.65,1.41Z" transform="translate(-1513.546 -782.183)"/></g></g><g transform="translate(184.953 148.1)"><path class="b" d="M326.368,202.185a7.424,7.424,0,0,1,7.6,2.2c.553-.641,1.045-1.275,1.6-1.847a11.838,11.838,0,0,1,20.074,10.684,2.126,2.126,0,0,1-.12.613c-.736,1.271-.109,2.067.737,3.059a27.564,27.564,0,0,1,6.717,20.06,1.161,1.161,0,0,0,.7,1.318,6.946,6.946,0,0,1-4.451,12.865c-.751-.125-1.3-.081-1.691.681a11.39,11.39,0,0,1-1.114,1.5,7.236,7.236,0,0,1,3.718,2.607,6.323,6.323,0,0,1-.49,8.225,19.927,19.927,0,0,1-7.741,4.735c-1.364.529-2.771.951-4.17,1.383a2.127,2.127,0,0,1-2.911-1.019c-1.154-1.885-2.212-3.828-3.3-5.756a8.311,8.311,0,0,1-.411-1.018c-1.174.165-2.258.36-3.35.465a26.389,26.389,0,0,1-16.609-3.678c-9.83-5.986-14.351-14.86-13.852-26.314.028-.636-.325-.765-.675-.987a6.963,6.963,0,0,1,4.82-12.82.937.937,0,0,0,1.093-.43,47.522,47.522,0,0,1,3.331-3.743,1.121,1.121,0,0,0,.239-1.589,19.3,19.3,0,0,1-2.3-6.945c-.468-4.384,2.56-7.724,6.832-7.509A7.181,7.181,0,0,1,326.368,202.185Zm13.453,56.172c-.488-3.158.166-5.862,3.1-7.442,3.12-1.681,6-.93,8.567,1.337,9.5-8.595,9.683-24.5,1.1-33.09a11.825,11.825,0,0,1-17.151-.235l2.97-2.749c3.872,3.089,8.321,3.092,11.049.037a5.505,5.505,0,0,0-.459-.406,22.8,22.8,0,0,0-13.581-4.394,1.379,1.379,0,0,0-.765.442,35.649,35.649,0,0,1-3.362,3.177,31.436,31.436,0,0,1-8.8,3.958c-1.5.493-2.8.553-3.708-.99a23.691,23.691,0,0,0-4.555,28.278C319.4,256.134,330.714,260.468,339.821,258.358Zm17.08,2.452a2.332,2.332,0,0,0-.8-2.969,2.691,2.691,0,0,0-3.25-.054c-1.76,1.3-3.333.731-3.881-1.4a2.823,2.823,0,0,0-3.172-2c-1.348.227-1.985,1.21-1.813,2.8a5.866,5.866,0,0,0,.1.619,25.05,25.05,0,0,0,3.355,7.585.8.8,0,0,0,.7.28,23.064,23.064,0,0,0,7.62-3.68A9.763,9.763,0,0,0,356.9,260.81Zm-35.588-57.386a2.257,2.257,0,0,0-3.248,2.444,6.379,6.379,0,0,0,.389,1.836c.725,1.767,1.466,3.533,2.311,5.245.882,1.787.948,1.787,2.851,1.132a19.159,19.159,0,0,0,6.392-3.37,3.984,3.984,0,0,0,1.184-1.808,2.1,2.1,0,0,0-1.254-2.345,2.636,2.636,0,0,0-3.1.176,2.217,2.217,0,0,1-3.745-1.354A2.586,2.586,0,0,0,321.313,203.424Zm30.222,8.749a7.574,7.574,0,0,0-5.982-8.833c-3.756-.8-7.412,1.6-8.036,3.669,2.407.638,4.882,1.1,7.213,1.963S349.246,211.078,351.535,212.173Zm10.673,30.486-1.55,4.236C362.738,246.145,363.415,244.169,362.208,242.66Zm-54.1-15.013,1.576-4.308a2.684,2.684,0,0,0-1.576,4.308Z" transform="translate(-303.255 -198.913)"/><path class="b" d="M324.629,246.126l3.7-1.762a9.458,9.458,0,0,0,11.939,4.365l1.717,3.725C335.889,255.622,327.374,252.513,324.629,246.126Z" transform="translate(-305.13 -202.899)"/><path class="b" d="M325.32,231.853l-3.781-1.383a5.086,5.086,0,0,1,3.558-3.382,5.421,5.421,0,0,1,5.795,1.625,5.493,5.493,0,0,1,1.1,5.622c-1.233-.451-2.4-.868-3.563-1.319a.608.608,0,0,1-.313-.456c0-.754-.286-1.38-1.044-1.43a5.8,5.8,0,0,0-1.743.441Z" transform="translate(-304.859 -201.361)"/><path class="b" d="M354.906,242.691l-3.694-1.352a5.482,5.482,0,0,0-.306-1.24,1.41,1.41,0,0,0-2.167-.238,1.231,1.231,0,0,1-.96.23c-1.056-.318-2.08-.733-3.23-1.155a5.024,5.024,0,0,1,3.047-3.259,5.668,5.668,0,0,1,6.25,1.385A5.266,5.266,0,0,1,354.906,242.691Z" transform="translate(-306.877 -202.1)"/></g><g transform="translate(419.295)"><path class="b" d="M569.17,53.565a7.427,7.427,0,0,1,7.172-3.331c0-.847-.05-1.648-.005-2.443a11.838,11.838,0,0,1,22.155-5.123,2.122,2.122,0,0,1,.312.541c.28,1.441,1.275,1.63,2.565,1.823a27.562,27.562,0,0,1,18.238,10.718,1.16,1.16,0,0,0,1.39.537,6.947,6.947,0,0,1,5.091,12.626c-.648.4-1.032.79-.828,1.623a11.328,11.328,0,0,1,.145,1.863,7.245,7.245,0,0,1,4.517-.475,6.325,6.325,0,0,1,5.031,6.526,19.92,19.92,0,0,1-2.73,8.654c-.681,1.295-1.465,2.537-2.237,3.782a2.126,2.126,0,0,1-2.865,1.143c-2.107-.663-4.182-1.434-6.265-2.177a8.33,8.33,0,0,1-.979-.5c-.776.9-1.465,1.754-2.221,2.551a26.382,26.382,0,0,1-14.943,8.131c-11.344,1.941-20.582-1.783-27.726-10.75-.4-.5-.749-.364-1.159-.3a6.963,6.963,0,0,1-4.783-12.833.937.937,0,0,0,.543-1.042,47.8,47.8,0,0,1,.054-5.01,1.12,1.12,0,0,0-.862-1.355,19.315,19.315,0,0,1-6.295-3.729c-3.231-3-3.142-7.506.222-10.15A7.182,7.182,0,0,1,569.17,53.565ZM616.2,87.1c-2.441-2.062-3.724-4.531-2.551-7.646,1.249-3.316,3.918-4.644,7.339-4.617,1.521-12.72-8.783-24.836-20.9-25.678A11.824,11.824,0,0,1,587,60.24l.435-4.023c4.948-.213,8.306-3.132,8.358-7.226a5.5,5.5,0,0,0-.613-.005,22.807,22.807,0,0,0-13.128,5.6,1.373,1.373,0,0,0-.286.835,35.871,35.871,0,0,1-.449,4.6,31.426,31.426,0,0,1-4.042,8.766c-.811,1.36-1.752,2.259-3.447,1.69A23.69,23.69,0,0,0,588.96,94.8C599.339,98.829,610.719,94.668,616.2,87.1Zm14.493-9.367a2.331,2.331,0,0,0-2.55-1.715,2.689,2.689,0,0,0-2.486,2.092c-.474,2.137-2.034,2.74-3.849,1.49a2.823,2.823,0,0,0-3.707.573c-.868,1.057-.7,2.217.472,3.3a5.638,5.638,0,0,0,.483.4,25.035,25.035,0,0,0,7.51,3.517.8.8,0,0,0,.715-.251,23.064,23.064,0,0,0,3.33-7.779A9.868,9.868,0,0,0,630.694,77.73ZM566.172,57.819a2.258,2.258,0,0,0-.845,3.977,6.364,6.364,0,0,0,1.5,1.129c1.708.858,3.426,1.7,5.187,2.439,1.839.769,1.888.726,2.894-1.018a19.176,19.176,0,0,0,2.607-6.738,3.981,3.981,0,0,0-.294-2.142,2.1,2.1,0,0,0-2.486-.945,2.636,2.636,0,0,0-2.221,2.169,2.218,2.218,0,0,1-3.714,1.438A2.584,2.584,0,0,0,566.172,57.819ZM594.71,44.572A7.575,7.575,0,0,0,584.4,41.838c-3.357,1.864-4.538,6.075-3.65,8.045,2.233-1.1,4.407-2.372,6.728-3.256S592.263,45.249,594.71,44.572Zm28.068,15.984,1.612,4.213C625.467,62.838,624.679,60.9,622.778,60.557Zm-50.657,24.2-1.639-4.285a2.684,2.684,0,0,0,1.639,4.285Z" transform="translate(-560.124 -36.576)"/><path class="b" d="M595.81,90.031l1.638-3.761a9.46,9.46,0,0,0,11.871-4.548l3.74,1.681C610.538,89.8,602.075,93.045,595.81,90.031Z" transform="translate(-563.254 -40.535)"/><path class="b" d="M587.038,79.027l-3.76,1.439a5.084,5.084,0,0,1,.463-4.886A5.423,5.423,0,0,1,589.179,73a5.5,5.5,0,0,1,4.523,3.517c-1.226.469-2.384.925-3.554,1.345a.608.608,0,0,1-.535-.139c-.494-.571-1.123-.853-1.726-.393a5.774,5.774,0,0,0-1.025,1.477Z" transform="translate(-562.118 -39.767)"/><path class="b" d="M616.468,67.771l-3.674,1.407a5.47,5.47,0,0,0-1.044-.735,1.411,1.411,0,0,0-1.791,1.243,1.233,1.233,0,0,1-.573.8c-1,.453-2.051.813-3.195,1.251a5.024,5.024,0,0,1,.159-4.459,5.668,5.668,0,0,1,5.623-3.06A5.263,5.263,0,0,1,616.468,67.771Z" transform="translate(-564.125 -38.998)"/></g><g transform="translate(590.295 202)"><path class="b" d="M569.17,53.565a7.427,7.427,0,0,1,7.172-3.331c0-.847-.05-1.648-.005-2.443a11.838,11.838,0,0,1,22.155-5.123,2.122,2.122,0,0,1,.312.541c.28,1.441,1.275,1.63,2.565,1.823a27.562,27.562,0,0,1,18.238,10.718,1.16,1.16,0,0,0,1.39.537,6.947,6.947,0,0,1,5.091,12.626c-.648.4-1.032.79-.828,1.623a11.328,11.328,0,0,1,.145,1.863,7.245,7.245,0,0,1,4.517-.475,6.325,6.325,0,0,1,5.031,6.526,19.92,19.92,0,0,1-2.73,8.654c-.681,1.295-1.465,2.537-2.237,3.782a2.126,2.126,0,0,1-2.865,1.143c-2.107-.663-4.182-1.434-6.265-2.177a8.33,8.33,0,0,1-.979-.5c-.776.9-1.465,1.754-2.221,2.551a26.382,26.382,0,0,1-14.943,8.131c-11.344,1.941-20.582-1.783-27.726-10.75-.4-.5-.749-.364-1.159-.3a6.963,6.963,0,0,1-4.783-12.833.937.937,0,0,0,.543-1.042,47.8,47.8,0,0,1,.054-5.01,1.12,1.12,0,0,0-.862-1.355,19.315,19.315,0,0,1-6.295-3.729c-3.231-3-3.142-7.506.222-10.15A7.182,7.182,0,0,1,569.17,53.565ZM616.2,87.1c-2.441-2.062-3.724-4.531-2.551-7.646,1.249-3.316,3.918-4.644,7.339-4.617,1.521-12.72-8.783-24.836-20.9-25.678A11.824,11.824,0,0,1,587,60.24l.435-4.023c4.948-.213,8.306-3.132,8.358-7.226a5.5,5.5,0,0,0-.613-.005,22.807,22.807,0,0,0-13.128,5.6,1.373,1.373,0,0,0-.286.835,35.871,35.871,0,0,1-.449,4.6,31.426,31.426,0,0,1-4.042,8.766c-.811,1.36-1.752,2.259-3.447,1.69A23.69,23.69,0,0,0,588.96,94.8C599.339,98.829,610.719,94.668,616.2,87.1Zm14.493-9.367a2.331,2.331,0,0,0-2.55-1.715,2.689,2.689,0,0,0-2.486,2.092c-.474,2.137-2.034,2.74-3.849,1.49a2.823,2.823,0,0,0-3.707.573c-.868,1.057-.7,2.217.472,3.3a5.638,5.638,0,0,0,.483.4,25.035,25.035,0,0,0,7.51,3.517.8.8,0,0,0,.715-.251,23.064,23.064,0,0,0,3.33-7.779A9.868,9.868,0,0,0,630.694,77.73ZM566.172,57.819a2.258,2.258,0,0,0-.845,3.977,6.364,6.364,0,0,0,1.5,1.129c1.708.858,3.426,1.7,5.187,2.439,1.839.769,1.888.726,2.894-1.018a19.176,19.176,0,0,0,2.607-6.738,3.981,3.981,0,0,0-.294-2.142,2.1,2.1,0,0,0-2.486-.945,2.636,2.636,0,0,0-2.221,2.169,2.218,2.218,0,0,1-3.714,1.438A2.584,2.584,0,0,0,566.172,57.819ZM594.71,44.572A7.575,7.575,0,0,0,584.4,41.838c-3.357,1.864-4.538,6.075-3.65,8.045,2.233-1.1,4.407-2.372,6.728-3.256S592.263,45.249,594.71,44.572Zm28.068,15.984,1.612,4.213C625.467,62.838,624.679,60.9,622.778,60.557Zm-50.657,24.2-1.639-4.285a2.684,2.684,0,0,0,1.639,4.285Z" transform="translate(-560.124 -36.576)"/><path class="b" d="M595.81,90.031l1.638-3.761a9.46,9.46,0,0,0,11.871-4.548l3.74,1.681C610.538,89.8,602.075,93.045,595.81,90.031Z" transform="translate(-563.254 -40.535)"/><path class="b" d="M587.038,79.027l-3.76,1.439a5.084,5.084,0,0,1,.463-4.886A5.423,5.423,0,0,1,589.179,73a5.5,5.5,0,0,1,4.523,3.517c-1.226.469-2.384.925-3.554,1.345a.608.608,0,0,1-.535-.139c-.494-.571-1.123-.853-1.726-.393a5.774,5.774,0,0,0-1.025,1.477Z" transform="translate(-562.118 -39.767)"/><path class="b" d="M616.468,67.771l-3.674,1.407a5.47,5.47,0,0,0-1.044-.735,1.411,1.411,0,0,0-1.791,1.243,1.233,1.233,0,0,1-.573.8c-1,.453-2.051.813-3.195,1.251a5.024,5.024,0,0,1,.159-4.459,5.668,5.668,0,0,1,5.623-3.06A5.263,5.263,0,0,1,616.468,67.771Z" transform="translate(-564.125 -38.998)"/></g><g transform="translate(839.295 90)"><path class="b" d="M569.17,53.565a7.427,7.427,0,0,1,7.172-3.331c0-.847-.05-1.648-.005-2.443a11.838,11.838,0,0,1,22.155-5.123,2.122,2.122,0,0,1,.312.541c.28,1.441,1.275,1.63,2.565,1.823a27.562,27.562,0,0,1,18.238,10.718,1.16,1.16,0,0,0,1.39.537,6.947,6.947,0,0,1,5.091,12.626c-.648.4-1.032.79-.828,1.623a11.328,11.328,0,0,1,.145,1.863,7.245,7.245,0,0,1,4.517-.475,6.325,6.325,0,0,1,5.031,6.526,19.92,19.92,0,0,1-2.73,8.654c-.681,1.295-1.465,2.537-2.237,3.782a2.126,2.126,0,0,1-2.865,1.143c-2.107-.663-4.182-1.434-6.265-2.177a8.33,8.33,0,0,1-.979-.5c-.776.9-1.465,1.754-2.221,2.551a26.382,26.382,0,0,1-14.943,8.131c-11.344,1.941-20.582-1.783-27.726-10.75-.4-.5-.749-.364-1.159-.3a6.963,6.963,0,0,1-4.783-12.833.937.937,0,0,0,.543-1.042,47.8,47.8,0,0,1,.054-5.01,1.12,1.12,0,0,0-.862-1.355,19.315,19.315,0,0,1-6.295-3.729c-3.231-3-3.142-7.506.222-10.15A7.182,7.182,0,0,1,569.17,53.565ZM616.2,87.1c-2.441-2.062-3.724-4.531-2.551-7.646,1.249-3.316,3.918-4.644,7.339-4.617,1.521-12.72-8.783-24.836-20.9-25.678A11.824,11.824,0,0,1,587,60.24l.435-4.023c4.948-.213,8.306-3.132,8.358-7.226a5.5,5.5,0,0,0-.613-.005,22.807,22.807,0,0,0-13.128,5.6,1.373,1.373,0,0,0-.286.835,35.871,35.871,0,0,1-.449,4.6,31.426,31.426,0,0,1-4.042,8.766c-.811,1.36-1.752,2.259-3.447,1.69A23.69,23.69,0,0,0,588.96,94.8C599.339,98.829,610.719,94.668,616.2,87.1Zm14.493-9.367a2.331,2.331,0,0,0-2.55-1.715,2.689,2.689,0,0,0-2.486,2.092c-.474,2.137-2.034,2.74-3.849,1.49a2.823,2.823,0,0,0-3.707.573c-.868,1.057-.7,2.217.472,3.3a5.638,5.638,0,0,0,.483.4,25.035,25.035,0,0,0,7.51,3.517.8.8,0,0,0,.715-.251,23.064,23.064,0,0,0,3.33-7.779A9.868,9.868,0,0,0,630.694,77.73ZM566.172,57.819a2.258,2.258,0,0,0-.845,3.977,6.364,6.364,0,0,0,1.5,1.129c1.708.858,3.426,1.7,5.187,2.439,1.839.769,1.888.726,2.894-1.018a19.176,19.176,0,0,0,2.607-6.738,3.981,3.981,0,0,0-.294-2.142,2.1,2.1,0,0,0-2.486-.945,2.636,2.636,0,0,0-2.221,2.169,2.218,2.218,0,0,1-3.714,1.438A2.584,2.584,0,0,0,566.172,57.819ZM594.71,44.572A7.575,7.575,0,0,0,584.4,41.838c-3.357,1.864-4.538,6.075-3.65,8.045,2.233-1.1,4.407-2.372,6.728-3.256S592.263,45.249,594.71,44.572Zm28.068,15.984,1.612,4.213C625.467,62.838,624.679,60.9,622.778,60.557Zm-50.657,24.2-1.639-4.285a2.684,2.684,0,0,0,1.639,4.285Z" transform="translate(-560.124 -36.576)"/><path class="b" d="M595.81,90.031l1.638-3.761a9.46,9.46,0,0,0,11.871-4.548l3.74,1.681C610.538,89.8,602.075,93.045,595.81,90.031Z" transform="translate(-563.254 -40.535)"/><path class="b" d="M587.038,79.027l-3.76,1.439a5.084,5.084,0,0,1,.463-4.886A5.423,5.423,0,0,1,589.179,73a5.5,5.5,0,0,1,4.523,3.517c-1.226.469-2.384.925-3.554,1.345a.608.608,0,0,1-.535-.139c-.494-.571-1.123-.853-1.726-.393a5.774,5.774,0,0,0-1.025,1.477Z" transform="translate(-562.118 -39.767)"/><path class="b" d="M616.468,67.771l-3.674,1.407a5.47,5.47,0,0,0-1.044-.735,1.411,1.411,0,0,0-1.791,1.243,1.233,1.233,0,0,1-.573.8c-1,.453-2.051.813-3.195,1.251a5.024,5.024,0,0,1,.159-4.459,5.668,5.668,0,0,1,5.623-3.06A5.263,5.263,0,0,1,616.468,67.771Z" transform="translate(-564.125 -38.998)"/></g><g transform="translate(13.939 408)"><path class="b" d="M124.432,501.992a7.426,7.426,0,0,1,6.943-3.785c-.058-.845-.155-1.64-.162-2.438a11.839,11.839,0,0,1,21.781-6.537,2.119,2.119,0,0,1,.347.52c.371,1.42,1.377,1.545,2.677,1.654a27.563,27.563,0,0,1,18.888,9.524,1.162,1.162,0,0,0,1.422.447,6.946,6.946,0,0,1,5.892,12.272c-.621.439-.979.855-.722,1.673a11.494,11.494,0,0,1,.265,1.85,7.24,7.24,0,0,1,4.477-.765,6.324,6.324,0,0,1,5.44,6.189,19.937,19.937,0,0,1-2.168,8.811c-.6,1.336-1.3,2.626-1.99,3.917a2.127,2.127,0,0,1-2.785,1.325c-2.146-.526-4.266-1.162-6.392-1.769a8.289,8.289,0,0,1-1.009-.435c-.717.944-1.35,1.846-2.053,2.689a26.382,26.382,0,0,1-14.389,9.075c-11.195,2.666-20.654-.456-28.359-8.946-.428-.472-.77-.316-1.175-.226a6.963,6.963,0,0,1-5.6-12.5.938.938,0,0,0,.474-1.075,47.534,47.534,0,0,1-.268-5,1.121,1.121,0,0,0-.948-1.3,19.311,19.311,0,0,1-6.521-3.316c-3.417-2.784-3.617-7.289-.431-10.144A7.184,7.184,0,0,1,124.432,501.992Zm49.089,30.441c-2.569-1.9-4.008-4.282-3.037-7.467,1.033-3.389,3.612-4.885,7.027-5.079.7-12.792-10.36-24.22-22.507-24.282a11.825,11.825,0,0,1-12.351,11.9l.176-4.043c4.925-.53,8.088-3.659,7.876-7.748a5.46,5.46,0,0,0-.612.034,22.8,22.8,0,0,0-12.74,6.436,1.367,1.367,0,0,0-.233.852,36.026,36.026,0,0,1-.152,4.623,31.443,31.443,0,0,1-3.47,9.009c-.722,1.409-1.6,2.367-3.332,1.907a23.693,23.693,0,0,0,16.665,23.3C157.448,545.223,168.537,540.341,173.522,532.433Zm13.861-10.279a2.332,2.332,0,0,0-2.655-1.548,2.69,2.69,0,0,0-2.346,2.248c-.335,2.162-1.853,2.865-3.745,1.733a2.824,2.824,0,0,0-3.663.811c-.8,1.11-.558,2.257.684,3.266a5.889,5.889,0,0,0,.507.369,25.043,25.043,0,0,0,7.721,3.028.806.806,0,0,0,.7-.3,23.053,23.053,0,0,0,2.823-7.977A9.815,9.815,0,0,0,187.382,522.154Zm-65.668-15.724a2.257,2.257,0,0,0-.588,4.022,6.361,6.361,0,0,0,1.568,1.031c1.759.745,3.528,1.478,5.333,2.1,1.885.649,1.93.6,2.822-1.2a19.151,19.151,0,0,0,2.17-6.891,3.984,3.984,0,0,0-.432-2.118,2.1,2.1,0,0,0-2.542-.784,2.635,2.635,0,0,0-2.077,2.307,2.218,2.218,0,0,1-3.615,1.673A2.586,2.586,0,0,0,121.714,506.429Zm27.628-15.053a7.573,7.573,0,0,0-10.466-2.065c-3.231,2.075-4.139,6.353-3.126,8.263,2.159-1.242,4.246-2.651,6.506-3.682S146.944,492.209,149.342,491.376Zm29.037,14.148,1.88,4.1C181.209,507.627,180.3,505.747,178.379,505.524Zm-49,27.4-1.912-4.171a2.684,2.684,0,0,0,1.912,4.171Z" transform="translate(-115.802 -483.797)"/><path class="b" d="M153.269,536.762l1.393-3.859a9.46,9.46,0,0,0,11.554-5.3l3.841,1.438C167.952,535.585,159.714,539.367,153.269,536.762Z" transform="translate(-119.088 -487.638)"/><path class="b" d="M143.789,526.392l-3.66,1.678a5.083,5.083,0,0,1,.149-4.906,5.423,5.423,0,0,1,5.26-2.925,5.5,5.5,0,0,1,4.739,3.219c-1.194.546-2.319,1.076-3.46,1.569a.606.606,0,0,1-.543-.1c-.529-.538-1.175-.779-1.747-.282a5.789,5.789,0,0,0-.929,1.54Z" transform="translate(-117.887 -486.992)"/><path class="b" d="M172.436,513.269l-3.576,1.639a5.448,5.448,0,0,0-1.089-.666,1.41,1.41,0,0,0-1.707,1.355,1.236,1.236,0,0,1-.52.84c-.973.515-1.994.942-3.108,1.452a5.024,5.024,0,0,1-.129-4.46,5.671,5.671,0,0,1,5.416-3.415A5.266,5.266,0,0,1,172.436,513.269Z" transform="translate(-119.84 -486.096)"/></g><g transform="translate(370.45 510.584)"><path class="b" d="M532.224,600.211a7.424,7.424,0,0,1,7.308,3.019c.62-.578,1.179-1.153,1.794-1.659A11.839,11.839,0,0,1,560.1,614.4a2.126,2.126,0,0,1-.186.6c-.871,1.181-.335,2.042.4,3.122a27.561,27.561,0,0,1,4.47,20.675,1.163,1.163,0,0,0,.547,1.388,6.946,6.946,0,0,1-5.839,12.3c-.732-.206-1.281-.224-1.754.492a11.468,11.468,0,0,1-1.273,1.368,7.249,7.249,0,0,1,3.409,3,6.324,6.324,0,0,1-1.392,8.121,19.927,19.927,0,0,1-8.214,3.855c-1.413.376-2.858.64-4.3.916a2.127,2.127,0,0,1-2.782-1.333c-.94-2-1.778-4.049-2.643-6.083a8.2,8.2,0,0,1-.3-1.057c-1.185.036-2.283.11-3.381.094a26.383,26.383,0,0,1-16.1-5.482c-9.112-7.029-12.631-16.347-10.875-27.677.1-.629-.239-.8-.564-1.056a6.963,6.963,0,0,1,6.2-12.212.936.936,0,0,0,1.134-.307,47.455,47.455,0,0,1,3.722-3.354,1.121,1.121,0,0,0,.412-1.553,19.306,19.306,0,0,1-1.522-7.156c.016-4.409,3.394-7.4,7.617-6.714A7.18,7.18,0,0,1,532.224,600.211Zm7.2,57.311c-.137-3.193.81-5.809,3.9-7.057,3.286-1.327,6.07-.264,8.369,2.271,10.387-7.5,12.318-23.286,4.729-32.769a11.825,11.825,0,0,1-17.022-2.119l3.254-2.406c3.51,3.5,7.932,3.989,10.978,1.253a5.255,5.255,0,0,0-.411-.454A22.806,22.806,0,0,0,540.2,610.38a1.377,1.377,0,0,0-.808.355,35.878,35.878,0,0,1-3.69,2.788,31.424,31.424,0,0,1-9.187,2.967c-1.55.324-2.848.241-3.578-1.392A23.694,23.694,0,0,0,515.3,642.7C519.367,653.066,530.137,658.618,539.42,657.522Zm16.708,4.315a2.331,2.331,0,0,0-.465-3.038,2.688,2.688,0,0,0-3.223-.411c-1.892,1.1-3.393.359-3.7-1.823a2.823,2.823,0,0,0-2.933-2.338c-1.365.078-2.107.984-2.109,2.586a5.5,5.5,0,0,0,.032.626,25.038,25.038,0,0,0,2.5,7.908.8.8,0,0,0,.669.356,23.033,23.033,0,0,0,7.978-2.821A9.732,9.732,0,0,0,556.128,661.837Zm-29.063-60.95a2.257,2.257,0,0,0-3.5,2.072,6.4,6.4,0,0,0,.185,1.867c.526,1.836,1.068,3.673,1.721,5.467.68,1.874.745,1.881,2.709,1.44a19.161,19.161,0,0,0,6.724-2.648,3.989,3.989,0,0,0,1.377-1.667,2.1,2.1,0,0,0-.989-2.469,2.636,2.636,0,0,0-3.1-.165,2.218,2.218,0,0,1-3.573-1.758A2.584,2.584,0,0,0,527.064,600.887Zm29.077,12.018a7.574,7.574,0,0,0-4.975-9.437c-3.646-1.208-7.543.777-8.391,2.764,2.322.9,4.73,1.635,6.954,2.743S553.986,611.565,556.141,612.905ZM563.4,644.38l-2.007,4.04C563.541,647.9,564.431,646.013,563.4,644.38ZM511.28,623.512l2.041-4.109a2.685,2.685,0,0,0-2.041,4.109Z" transform="translate(-506.584 -596.241)"/><path class="b" d="M525.937,643.558l3.876-1.343a9.46,9.46,0,0,0,11.387,5.651l1.3,3.891C536.085,654.235,527.964,650.208,525.937,643.558Z" transform="translate(-508.281 -600.273)"/><path class="b" d="M528.173,629.462l-3.605-1.791a5.083,5.083,0,0,1,3.908-2.97,5.422,5.422,0,0,1,5.581,2.252,5.5,5.5,0,0,1,.477,5.709c-1.176-.584-2.3-1.127-3.4-1.7a.61.61,0,0,1-.261-.488c.086-.749-.133-1.4-.879-1.535a5.773,5.773,0,0,0-1.782.246Z" transform="translate(-508.161 -598.728)"/><path class="b" d="M556.388,643.485l-3.522-1.751a5.493,5.493,0,0,0-.167-1.265,1.411,1.411,0,0,0-2.128-.475,1.232,1.232,0,0,1-.98.123c-1.014-.432-1.987-.958-3.084-1.5a5.024,5.024,0,0,1,3.387-2.9,5.666,5.666,0,0,1,6.059,2.065A5.262,5.262,0,0,1,556.388,643.485Z" transform="translate(-510.085 -599.683)"/></g><g transform="translate(627.239 612.265)"><path class="b" d="M797.655,722.984a7.426,7.426,0,0,1,7.438-2.684c.07-.844.1-1.645.211-2.434a11.838,11.838,0,0,1,22.521-3.145,2.088,2.088,0,0,1,.264.567c.151,1.461,1.127,1.736,2.394,2.043A27.561,27.561,0,0,1,847.7,729.62a1.163,1.163,0,0,0,1.338.658,6.947,6.947,0,0,1,3.955,13.027c-.681.339-1.1.7-.968,1.544a11.422,11.422,0,0,1-.02,1.868,7.244,7.244,0,0,1,4.541-.074,6.326,6.326,0,0,1,4.435,6.945,19.934,19.934,0,0,1-3.484,8.379c-.793,1.229-1.684,2.4-2.563,3.569a2.126,2.126,0,0,1-2.954.885c-2.041-.847-4.04-1.8-6.049-2.721a8.44,8.44,0,0,1-.931-.583c-.853.823-1.615,1.617-2.438,2.344a26.385,26.385,0,0,1-15.6,6.779c-11.471.931-20.344-3.6-26.667-13.159-.351-.531-.713-.429-1.127-.4a6.964,6.964,0,0,1-3.63-13.206.936.936,0,0,0,.632-.99,47.747,47.747,0,0,1,.5-4.986,1.12,1.12,0,0,0-.74-1.426,19.312,19.312,0,0,1-5.94-4.271c-2.954-3.272-2.466-7.755,1.118-10.091A7.182,7.182,0,0,1,797.655,722.984Zm43.883,37.559c-2.25-2.27-3.309-4.842-1.865-7.842,1.536-3.192,4.313-4.279,7.718-3.95,2.639-12.536-6.553-25.514-18.548-27.425a11.825,11.825,0,0,1-14.019,9.884l.79-3.969c4.947.226,8.55-2.385,8.963-6.459a5.527,5.527,0,0,0-.609-.059,22.8,22.8,0,0,0-13.572,4.422,1.371,1.371,0,0,0-.359.807,35.791,35.791,0,0,1-.855,4.546,31.421,31.421,0,0,1-4.8,8.375c-.929,1.283-1.945,2.095-3.584,1.378a23.692,23.692,0,0,0,12.925,25.561C823.7,770.738,835.407,767.6,841.538,760.543Zm15.264-8.048a2.331,2.331,0,0,0-2.387-1.935,2.691,2.691,0,0,0-2.661,1.865c-.661,2.086-2.268,2.55-3.966,1.143a2.825,2.825,0,0,0-3.744.244c-.957.976-.9,2.146.18,3.333a5.8,5.8,0,0,0,.444.442,25.026,25.026,0,0,0,7.171,4.167.8.8,0,0,0,.734-.186,23.057,23.057,0,0,0,4-7.454A9.819,9.819,0,0,0,856.8,752.495Zm-62.509-25.538a2.258,2.258,0,0,0-1.193,3.886,6.391,6.391,0,0,0,1.393,1.257c1.625,1,3.262,2,4.951,2.888,1.764.928,1.817.889,2.972-.758a19.172,19.172,0,0,0,3.194-6.482,3.992,3.992,0,0,0-.1-2.159,2.1,2.1,0,0,0-2.393-1.161,2.635,2.635,0,0,0-2.4,1.964,2.218,2.218,0,0,1-3.827,1.1A2.584,2.584,0,0,0,794.293,726.957Zm29.6-10.672a7.574,7.574,0,0,0-10.03-3.635c-3.51,1.559-5.058,5.65-4.348,7.691,2.322-.9,4.6-1.973,6.99-2.649S821.393,716.742,823.89,716.284Zm26.544,18.4,1.233,4.339C852.912,737.2,852.3,735.2,850.435,734.688Zm-52.6,19.626-1.254-4.414a2.685,2.685,0,0,0,1.254,4.414Z" transform="translate(-788.057 -707.697)"/><path class="b" d="M821.1,761.543l1.964-3.6a9.458,9.458,0,0,0,12.227-3.48l3.577,2.006C835.788,762.615,827.071,765.1,821.1,761.543Z" transform="translate(-790.954 -711.798)"/><path class="b" d="M813.354,749.736l-3.872,1.1a5.081,5.081,0,0,1,.893-4.826,5.422,5.422,0,0,1,5.643-2.09,5.5,5.5,0,0,1,4.195,3.9c-1.263.359-2.456.711-3.658,1.025a.612.612,0,0,1-.521-.185c-.442-.613-1.043-.949-1.684-.545a5.775,5.775,0,0,0-1.152,1.38Z" transform="translate(-789.913 -710.863)"/><path class="b" d="M843.664,741.13l-3.783,1.076a5.55,5.55,0,0,0-.975-.825,1.411,1.411,0,0,0-1.893,1.08,1.235,1.235,0,0,1-.642.751c-1.041.362-2.115.628-3.293.963a5.024,5.024,0,0,1,.552-4.427A5.668,5.668,0,0,1,839.5,737.2,5.264,5.264,0,0,1,843.664,741.13Z" transform="translate(-791.98 -710.276)"/></g><g transform="translate(991.047 482.434)"><path class="b" d="M1212.478,569.354a7.426,7.426,0,0,1,7.308,3.019c.62-.577,1.178-1.152,1.794-1.659a11.839,11.839,0,0,1,18.778,12.826,2.106,2.106,0,0,1-.187.6c-.87,1.182-.335,2.043.4,3.122a27.557,27.557,0,0,1,4.471,20.675,1.161,1.161,0,0,0,.547,1.388,6.947,6.947,0,0,1-5.839,12.3c-.733-.207-1.281-.224-1.755.491a11.472,11.472,0,0,1-1.272,1.369,7.234,7.234,0,0,1,3.408,3,6.326,6.326,0,0,1-1.391,8.122,19.943,19.943,0,0,1-8.214,3.854c-1.414.376-2.859.64-4.3.916a2.127,2.127,0,0,1-2.781-1.333c-.941-2-1.778-4.048-2.644-6.083a8.5,8.5,0,0,1-.3-1.057c-1.184.036-2.282.111-3.38.095a26.389,26.389,0,0,1-16.1-5.483c-9.112-7.029-12.632-16.347-10.876-27.677.1-.63-.239-.8-.563-1.056a6.963,6.963,0,0,1,6.2-12.212.937.937,0,0,0,1.134-.307,47.8,47.8,0,0,1,3.721-3.355,1.121,1.121,0,0,0,.413-1.553,19.3,19.3,0,0,1-1.522-7.156c.016-4.408,3.393-7.4,7.617-6.713A7.182,7.182,0,0,1,1212.478,569.354Zm7.2,57.311c-.138-3.192.81-5.809,3.9-7.056,3.285-1.328,6.071-.264,8.369,2.27,10.387-7.5,12.318-23.285,4.729-32.768a11.824,11.824,0,0,1-17.021-2.12l3.254-2.406c3.509,3.5,7.931,3.989,10.978,1.253a5.573,5.573,0,0,0-.411-.454,22.8,22.8,0,0,0-13.016-5.86,1.366,1.366,0,0,0-.808.355,35.9,35.9,0,0,1-3.691,2.788,31.432,31.432,0,0,1-9.186,2.966c-1.55.325-2.848.242-3.578-1.391a23.69,23.69,0,0,0-7.636,27.605C1199.621,622.21,1210.391,627.762,1219.674,626.665Zm16.708,4.315a2.331,2.331,0,0,0-.465-3.037,2.689,2.689,0,0,0-3.223-.411c-1.892,1.1-3.393.36-3.7-1.823a2.824,2.824,0,0,0-2.933-2.338c-1.365.078-2.107.984-2.11,2.586a6,6,0,0,0,.032.626,25.063,25.063,0,0,0,2.5,7.907.8.8,0,0,0,.67.356,23.057,23.057,0,0,0,7.978-2.82A9.848,9.848,0,0,0,1236.382,630.98Zm-29.064-60.95a2.257,2.257,0,0,0-3.5,2.072,6.372,6.372,0,0,0,.185,1.868c.526,1.836,1.068,3.673,1.72,5.467.681,1.873.745,1.88,2.709,1.439a19.176,19.176,0,0,0,6.724-2.647,3.977,3.977,0,0,0,1.376-1.668,2.1,2.1,0,0,0-.989-2.469,2.636,2.636,0,0,0-3.1-.165,2.218,2.218,0,0,1-3.574-1.758A2.584,2.584,0,0,0,1207.317,570.03Zm29.078,12.019a7.576,7.576,0,0,0-4.976-9.438c-3.645-1.207-7.542.777-8.39,2.764,2.323.9,4.731,1.635,6.954,2.744S1234.239,580.708,1236.4,582.049Zm7.256,31.474-2.007,4.04C1243.795,617.046,1244.685,615.157,1243.652,613.524Zm-52.118-20.868,2.041-4.11a2.685,2.685,0,0,0-2.041,4.11Z" transform="translate(-1186.838 -565.385)"/><path class="b" d="M1206.191,612.7l3.876-1.343a9.459,9.459,0,0,0,11.387,5.651l1.3,3.891C1216.339,623.378,1208.218,619.351,1206.191,612.7Z" transform="translate(-1188.535 -569.417)"/><path class="b" d="M1208.427,598.6l-3.606-1.791a5.084,5.084,0,0,1,3.908-2.97,5.421,5.421,0,0,1,5.582,2.252,5.5,5.5,0,0,1,.477,5.709c-1.175-.584-2.294-1.127-3.4-1.7a.606.606,0,0,1-.261-.487c.086-.75-.133-1.4-.88-1.536a5.767,5.767,0,0,0-1.781.246Z" transform="translate(-1188.415 -567.872)"/><path class="b" d="M1236.642,612.628l-3.523-1.75a5.493,5.493,0,0,0-.166-1.266,1.411,1.411,0,0,0-2.128-.474,1.236,1.236,0,0,1-.98.123c-1.014-.432-1.987-.959-3.084-1.5a5.022,5.022,0,0,1,3.387-2.9,5.67,5.67,0,0,1,6.06,2.064A5.264,5.264,0,0,1,1236.642,612.628Z" transform="translate(-1190.339 -568.827)"/></g><g transform="translate(674.297 379.187)"><path class="b" d="M865.279,456.182a7.426,7.426,0,0,1,7.308,3.019c.62-.577,1.179-1.152,1.794-1.659a11.838,11.838,0,0,1,18.778,12.825,2.105,2.105,0,0,1-.186.6c-.871,1.182-.335,2.043.4,3.122a27.561,27.561,0,0,1,4.47,20.676,1.163,1.163,0,0,0,.547,1.388,6.947,6.947,0,0,1-5.839,12.3c-.732-.207-1.28-.224-1.754.491a11.4,11.4,0,0,1-1.273,1.369,7.246,7.246,0,0,1,3.409,3,6.325,6.325,0,0,1-1.392,8.122,19.937,19.937,0,0,1-8.214,3.854c-1.413.376-2.858.64-4.3.916a2.127,2.127,0,0,1-2.782-1.333c-.94-2-1.778-4.048-2.643-6.082a8.257,8.257,0,0,1-.3-1.058c-1.185.036-2.284.111-3.381.095a26.389,26.389,0,0,1-16.1-5.483c-9.112-7.029-12.631-16.347-10.875-27.677.1-.63-.239-.8-.564-1.056a6.963,6.963,0,0,1,6.2-12.212.936.936,0,0,0,1.134-.307,47.639,47.639,0,0,1,3.722-3.355,1.121,1.121,0,0,0,.412-1.553,19.3,19.3,0,0,1-1.522-7.156c.016-4.408,3.394-7.4,7.617-6.713A7.179,7.179,0,0,1,865.279,456.182Zm7.2,57.311c-.137-3.192.81-5.809,3.9-7.056,3.286-1.328,6.071-.264,8.369,2.27,10.387-7.5,12.318-23.285,4.729-32.768a11.825,11.825,0,0,1-17.022-2.12l3.254-2.406c3.51,3.5,7.932,3.989,10.978,1.253a5.26,5.26,0,0,0-.411-.454,22.8,22.8,0,0,0-13.016-5.86,1.366,1.366,0,0,0-.808.355,36,36,0,0,1-3.69,2.788,31.449,31.449,0,0,1-9.187,2.966c-1.55.325-2.848.242-3.578-1.391a23.692,23.692,0,0,0-7.636,27.605C852.422,509.038,863.192,514.59,872.475,513.493Zm16.708,4.315a2.33,2.33,0,0,0-.465-3.037,2.689,2.689,0,0,0-3.223-.411c-1.892,1.1-3.393.36-3.7-1.823a2.823,2.823,0,0,0-2.933-2.338c-1.365.077-2.107.984-2.109,2.586a5.525,5.525,0,0,0,.032.626,25.041,25.041,0,0,0,2.5,7.907.8.8,0,0,0,.669.356,23.051,23.051,0,0,0,7.978-2.82A9.724,9.724,0,0,0,889.182,517.808Zm-29.063-60.95a2.258,2.258,0,0,0-3.5,2.072,6.4,6.4,0,0,0,.185,1.868c.526,1.836,1.068,3.673,1.721,5.467.68,1.873.745,1.88,2.709,1.439a19.176,19.176,0,0,0,6.724-2.647,3.986,3.986,0,0,0,1.377-1.668,2.1,2.1,0,0,0-.989-2.469,2.638,2.638,0,0,0-3.1-.165A2.217,2.217,0,0,1,861.673,459,2.584,2.584,0,0,0,860.119,456.858ZM889.2,468.877a7.575,7.575,0,0,0-4.975-9.438c-3.646-1.207-7.543.777-8.39,2.764,2.322.9,4.73,1.635,6.954,2.744S887.041,467.536,889.2,468.877Zm7.256,31.474-2.007,4.04C896.6,503.874,897.486,501.985,896.453,500.352Zm-52.118-20.868,2.041-4.11a2.686,2.686,0,0,0-2.041,4.11Z" transform="translate(-839.639 -452.213)"/><path class="b" d="M858.992,499.529l3.876-1.343a9.459,9.459,0,0,0,11.387,5.651l1.3,3.891C869.14,510.206,861.019,506.179,858.992,499.529Z" transform="translate(-841.336 -456.245)"/><path class="b" d="M861.228,485.433l-3.605-1.791a5.083,5.083,0,0,1,3.908-2.97,5.422,5.422,0,0,1,5.582,2.252,5.5,5.5,0,0,1,.477,5.709c-1.176-.584-2.3-1.127-3.4-1.7a.608.608,0,0,1-.261-.487c.086-.75-.133-1.4-.879-1.536a5.8,5.8,0,0,0-1.782.246Z" transform="translate(-841.216 -454.7)"/><path class="b" d="M889.443,499.456l-3.522-1.75a5.491,5.491,0,0,0-.167-1.266,1.411,1.411,0,0,0-2.127-.474,1.236,1.236,0,0,1-.98.123c-1.014-.432-1.987-.959-3.084-1.5a5.021,5.021,0,0,1,3.387-2.9,5.668,5.668,0,0,1,6.06,2.064A5.263,5.263,0,0,1,889.443,499.456Z" transform="translate(-843.141 -455.655)"/></g><g transform="translate(1347.389 476.157)"><path class="b" d="M1586.618,575.08a7.428,7.428,0,0,1,7.243-3.174c.014-.847-.014-1.648.047-2.442a11.839,11.839,0,0,1,22.262-4.641,2.105,2.105,0,0,1,.3.547c.248,1.448,1.24,1.658,2.525,1.878a27.56,27.56,0,0,1,18,11.112,1.162,1.162,0,0,0,1.38.567,6.947,6.947,0,0,1,4.814,12.734c-.657.384-1.048.767-.862,1.6a11.4,11.4,0,0,1,.1,1.866,7.249,7.249,0,0,1,4.526-.377,6.324,6.324,0,0,1,4.888,6.633,19.927,19.927,0,0,1-2.917,8.593c-.709,1.279-1.521,2.5-2.319,3.732a2.127,2.127,0,0,1-2.888,1.08c-2.094-.709-4.15-1.525-6.216-2.313a8.371,8.371,0,0,1-.968-.519c-.8.879-1.5,1.722-2.275,2.5a26.384,26.384,0,0,1-15.116,7.8c-11.383,1.694-20.538-2.23-27.486-11.35-.386-.506-.74-.38-1.151-.327a6.963,6.963,0,0,1-4.5-12.934.937.937,0,0,0,.566-1.03,47.746,47.746,0,0,1,.162-5.008,1.12,1.12,0,0,0-.833-1.374,19.328,19.328,0,0,1-6.212-3.865c-3.166-3.068-2.978-7.574.443-10.143A7.183,7.183,0,0,1,1586.618,575.08Zm46.291,34.547c-2.4-2.115-3.625-4.611-2.384-7.7,1.321-3.289,4.019-4.558,7.437-4.457,1.8-12.685-8.241-25.021-20.336-26.126a11.825,11.825,0,0,1-13.329,10.8l.523-4.013c4.953-.1,8.372-2.95,8.513-7.043a5.493,5.493,0,0,0-.612-.019,22.8,22.8,0,0,0-13.247,5.318,1.372,1.372,0,0,0-.3.828,36.04,36.04,0,0,1-.549,4.594,31.46,31.46,0,0,1-4.231,8.677c-.841,1.342-1.8,2.22-3.483,1.613a23.692,23.692,0,0,0,14.6,24.642C1615.8,620.989,1627.264,617.077,1632.909,609.627Zm14.693-9.049a2.33,2.33,0,0,0-2.512-1.771,2.689,2.689,0,0,0-2.531,2.038c-.52,2.126-2.093,2.7-3.88,1.4a2.824,2.824,0,0,0-3.719.493c-.89,1.037-.751,2.2.4,3.313a5.74,5.74,0,0,0,.473.411,25.05,25.05,0,0,0,7.432,3.68.8.8,0,0,0,.72-.235,23.068,23.068,0,0,0,3.5-7.705A9.733,9.733,0,0,0,1647.6,600.578Zm-64.074-21.31a2.257,2.257,0,0,0-.931,3.957,6.371,6.371,0,0,0,1.474,1.161c1.689.894,3.388,1.776,5.133,2.551,1.822.808,1.872.766,2.916-.955a19.154,19.154,0,0,0,2.753-6.68,3.982,3.982,0,0,0-.247-2.148,2.1,2.1,0,0,0-2.465-1,2.636,2.636,0,0,0-2.268,2.12,2.218,2.218,0,0,1-3.745,1.357A2.583,2.583,0,0,0,1583.528,579.268Zm28.82-12.624a7.573,7.573,0,0,0-10.25-2.957c-3.4,1.79-4.67,5.974-3.825,7.963,2.257-1.051,4.458-2.275,6.8-3.109S1609.887,567.269,1612.348,566.645Zm27.714,16.591,1.52,4.247C1642.7,585.574,1641.955,583.622,1640.062,583.236Zm-51.172,23.093-1.546-4.321a2.686,2.686,0,0,0,1.546,4.321Z" transform="translate(-1577.434 -558.505)"/><path class="b" d="M1612.491,612.087l1.719-3.725a9.461,9.461,0,0,0,11.968-4.289l3.7,1.763C1627.221,612.175,1618.688,615.236,1612.491,612.087Z" transform="translate(-1580.509 -562.501)"/><path class="b" d="M1603.965,600.878l-3.791,1.357a5.085,5.085,0,0,1,.569-4.875,5.423,5.423,0,0,1,5.492-2.461,5.493,5.493,0,0,1,4.446,3.614c-1.236.443-2.4.873-3.582,1.267a.606.606,0,0,1-.532-.151c-.481-.581-1.1-.877-1.717-.43a5.758,5.758,0,0,0-1.057,1.454Z" transform="translate(-1579.396 -561.692)"/><path class="b" d="M1633.634,590.266l-3.7,1.326a5.509,5.509,0,0,0-1.028-.757,1.41,1.41,0,0,0-1.816,1.2,1.234,1.234,0,0,1-.591.792c-1.014.431-2.067.767-3.22,1.181a5.023,5.023,0,0,1,.255-4.455,5.669,5.669,0,0,1,5.689-2.937A5.265,5.265,0,0,1,1633.634,590.266Z" transform="translate(-1581.418 -560.967)"/></g><g transform="translate(1465.965 157.369)"><path class="b" d="M1720.36,219.586a7.427,7.427,0,0,1,7.863-.83c.27-.8.486-1.575.786-2.313a11.838,11.838,0,0,1,22.62,2.323,2.132,2.132,0,0,1,.121.613c-.2,1.454.679,1.955,1.836,2.555a27.559,27.559,0,0,1,13.787,16.044,1.161,1.161,0,0,0,1.142.959,6.946,6.946,0,0,1,.73,13.593c-.743.167-1.233.414-1.308,1.268a11.417,11.417,0,0,1-.466,1.81,7.24,7.24,0,0,1,4.427,1.013,6.325,6.325,0,0,1,2.648,7.8,19.94,19.94,0,0,1-5.383,7.3c-1.064,1.005-2.208,1.926-3.341,2.855a2.127,2.127,0,0,1-3.08.154c-1.78-1.31-3.493-2.711-5.224-4.087a8.275,8.275,0,0,1-.765-.789c-1.025.6-1.955,1.186-2.927,1.7a26.381,26.381,0,0,1-16.77,2.857c-11.362-1.835-18.9-8.348-22.755-19.145-.214-.6-.59-.588-1-.661a6.963,6.963,0,0,1-.372-13.69c.53-.1.7-.3.851-.811a47.8,47.8,0,0,1,1.672-4.723,1.12,1.12,0,0,0-.378-1.561,19.311,19.311,0,0,1-4.749-5.566c-2.087-3.883-.543-8.119,3.495-9.532A7.186,7.186,0,0,1,1720.36,219.586Zm33.647,46.95c-1.643-2.741-2.057-5.492.061-8.06,2.254-2.733,5.21-3.126,8.438-1.993,5.556-11.543-.272-26.342-11.464-31.06a11.825,11.825,0,0,1-15.973,6.251l1.714-3.666c4.751,1.4,8.873-.276,10.247-4.133a5.659,5.659,0,0,0-.578-.2,22.807,22.807,0,0,0-14.236,1.054,1.375,1.375,0,0,0-.542.7,35.893,35.893,0,0,1-1.915,4.21,31.43,31.43,0,0,1-6.662,6.987c-1.208,1.024-2.388,1.57-3.808.483a23.689,23.689,0,0,0,6.447,27.906C1734.254,272.179,1746.368,271.925,1754.006,266.536Zm16.744-4.172a2.33,2.33,0,0,0-1.857-2.448,2.689,2.689,0,0,0-3.03,1.175c-1.14,1.867-2.811,1.934-4.124.163a2.824,2.824,0,0,0-3.693-.658c-1.163.72-1.383,1.87-.622,3.279a5.749,5.749,0,0,0,.327.535,25.059,25.059,0,0,0,5.967,5.759.805.805,0,0,0,.758-.006,23.058,23.058,0,0,0,5.668-6.283A9.736,9.736,0,0,0,1770.75,262.364Zm-54.6-39.723a2.257,2.257,0,0,0-2.086,3.489,6.358,6.358,0,0,0,1.053,1.553c1.338,1.364,2.69,2.72,4.118,3.987,1.492,1.323,1.552,1.3,3.068-.026a19.173,19.173,0,0,0,4.648-5.532,3.968,3.968,0,0,0,.415-2.121,2.1,2.1,0,0,0-2.046-1.7,2.638,2.638,0,0,0-2.8,1.333,2.217,2.217,0,0,1-3.979.159A2.582,2.582,0,0,0,1716.146,222.642Zm31.289-3.3a7.573,7.573,0,0,0-8.871-5.924c-3.781.676-6.26,4.279-6.059,6.43,2.47-.317,4.938-.818,7.421-.9S1744.9,219.193,1747.435,219.345Zm21.384,24.209.162,4.508C1770.624,246.581,1770.506,244.5,1768.819,243.553Zm-55.763,6.5-.165-4.585a2.684,2.684,0,0,0,.165,4.585Z" transform="translate(-1707.408 -209.073)"/><path class="b" d="M1734.455,262.317l2.767-3.029a9.46,9.46,0,0,0,12.7-.461l2.994,2.8C1748.465,266.864,1739.407,267.2,1734.455,262.317Z" transform="translate(-1709.78 -213.436)"/><path class="b" d="M1729.779,248.788l-4.023.144a5.083,5.083,0,0,1,2.02-4.473,5.421,5.421,0,0,1,5.979-.682,5.5,5.5,0,0,1,3.142,4.791c-1.313.047-2.555.1-3.8.122a.61.61,0,0,1-.462-.3c-.282-.7-.786-1.17-1.505-.931a5.789,5.789,0,0,0-1.449,1.066Z" transform="translate(-1709.016 -212.064)"/><path class="b" d="M1761.267,247.669l-3.931.141a5.466,5.466,0,0,0-.75-1.034,1.41,1.41,0,0,0-2.1.6,1.232,1.232,0,0,1-.8.576c-1.1.1-2.2.1-3.428.149a5.024,5.024,0,0,1,1.593-4.168,5.668,5.668,0,0,1,6.311-1.074A5.262,5.262,0,0,1,1761.267,247.669Z" transform="translate(-1711.164 -211.99)"/></g><g transform="translate(1628.48 441.491) rotate(-42)"><path class="b" d="M12.952,10.514a7.427,7.427,0,0,1,7.863-.83c.27-.8.486-1.575.786-2.313a11.838,11.838,0,0,1,22.62,2.323,2.132,2.132,0,0,1,.121.613c-.2,1.454.679,1.955,1.836,2.555A27.559,27.559,0,0,1,59.967,28.906a1.161,1.161,0,0,0,1.142.959,6.946,6.946,0,0,1,.73,13.593c-.743.167-1.233.414-1.308,1.268a11.417,11.417,0,0,1-.466,1.81,7.24,7.24,0,0,1,4.427,1.013,6.325,6.325,0,0,1,2.648,7.8,19.94,19.94,0,0,1-5.383,7.3c-1.064,1.005-2.208,1.926-3.341,2.855a2.127,2.127,0,0,1-3.08.154c-1.78-1.31-3.493-2.711-5.224-4.087a8.275,8.275,0,0,1-.765-.789c-1.025.6-1.955,1.186-2.927,1.7a26.381,26.381,0,0,1-16.77,2.857C18.289,63.506,10.753,56.992,6.9,46.2c-.214-.6-.59-.588-1-.661a6.963,6.963,0,0,1-.372-13.69c.53-.1.7-.3.851-.811a47.8,47.8,0,0,1,1.672-4.723,1.12,1.12,0,0,0-.378-1.561,19.311,19.311,0,0,1-4.749-5.566C.836,15.3,2.38,11.065,6.418,9.652A7.186,7.186,0,0,1,12.952,10.514ZM46.6,57.464c-1.643-2.741-2.057-5.492.061-8.06,2.254-2.733,5.21-3.126,8.438-1.993,5.556-11.543-.272-26.342-11.464-31.06A11.825,11.825,0,0,1,27.66,22.6l1.714-3.666c4.751,1.4,8.873-.276,10.247-4.133a5.659,5.659,0,0,0-.578-.2,22.807,22.807,0,0,0-14.236,1.054,1.375,1.375,0,0,0-.542.7,35.893,35.893,0,0,1-1.915,4.21,31.43,31.43,0,0,1-6.662,6.987c-1.208,1.024-2.388,1.57-3.808.483a23.689,23.689,0,0,0,6.447,27.906C26.846,63.106,38.96,62.852,46.6,57.464Zm16.744-4.172a2.33,2.33,0,0,0-1.857-2.448,2.689,2.689,0,0,0-3.03,1.175c-1.14,1.867-2.811,1.934-4.124.163a2.824,2.824,0,0,0-3.693-.658c-1.163.72-1.383,1.87-.622,3.279a5.749,5.749,0,0,0,.327.535A25.059,25.059,0,0,0,56.311,61.1a.805.805,0,0,0,.758-.006,23.058,23.058,0,0,0,5.668-6.283A9.736,9.736,0,0,0,63.342,53.292ZM8.738,13.569a2.257,2.257,0,0,0-2.086,3.489A6.358,6.358,0,0,0,7.7,18.61c1.338,1.364,2.69,2.72,4.118,3.987,1.492,1.323,1.552,1.3,3.068-.026a19.173,19.173,0,0,0,4.648-5.532,3.968,3.968,0,0,0,.415-2.121,2.1,2.1,0,0,0-2.046-1.7,2.638,2.638,0,0,0-2.8,1.333,2.217,2.217,0,0,1-3.979.159A2.582,2.582,0,0,0,8.738,13.569Zm31.289-3.3a7.573,7.573,0,0,0-8.871-5.924c-3.781.676-6.26,4.279-6.059,6.43,2.47-.317,4.938-.818,7.421-.9S37.494,10.121,40.027,10.272ZM61.411,34.481l.162,4.508C63.216,37.509,63.1,35.423,61.411,34.481Zm-55.763,6.5L5.483,36.4a2.684,2.684,0,0,0,.165,4.585Z"/><path class="b" d="M0,3.49,2.767.461A9.46,9.46,0,0,0,15.472,0l2.994,2.8C14.01,8.037,4.952,8.369,0,3.49Z" transform="translate(24.675 45.391)"/><path class="b" d="M4.032,5.608.009,5.752a5.083,5.083,0,0,1,2.02-4.473A5.421,5.421,0,0,1,8.008.6,5.5,5.5,0,0,1,11.15,5.388c-1.313.047-2.555.1-3.8.122a.61.61,0,0,1-.462-.3c-.282-.7-.786-1.17-1.505-.931A5.789,5.789,0,0,0,3.937,5.34Z" transform="translate(16.731 31.117)"/><path class="b" d="M11.033,5.326,7.1,5.467a5.466,5.466,0,0,0-.75-1.034,1.41,1.41,0,0,0-2.1.6,1.232,1.232,0,0,1-.8.576c-1.1.1-2.2.1-3.428.149A5.024,5.024,0,0,1,1.619,1.586,5.668,5.668,0,0,1,7.93.512,5.262,5.262,0,0,1,11.033,5.326Z" transform="translate(39.071 30.353)"/></g><g transform="translate(1006.413 171.367)"><path class="b" d="M1224.621,229.215a7.427,7.427,0,0,1,7.761,1.517c.494-.687.928-1.362,1.431-1.98a11.838,11.838,0,0,1,20.94,8.868,2.1,2.1,0,0,1-.065.621c-.621,1.331.075,2.068,1,2.982a27.56,27.56,0,0,1,8.463,19.386,1.164,1.164,0,0,0,.81,1.253,6.946,6.946,0,0,1-3.3,13.207c-.758-.057-1.3.034-1.623.828a11.407,11.407,0,0,1-.977,1.593,7.238,7.238,0,0,1,3.934,2.268,6.325,6.325,0,0,1,.239,8.237,19.936,19.936,0,0,1-7.292,5.4c-1.312.648-2.677,1.192-4.032,1.746a2.127,2.127,0,0,1-2.99-.757c-1.316-1.775-2.542-3.618-3.792-5.442a8.519,8.519,0,0,1-.5-.978c-1.154.268-2.216.558-3.3.759a26.379,26.379,0,0,1-16.869-2.2c-10.321-5.093-15.609-13.533-16.124-24.987-.028-.636-.391-.734-.76-.924a6.963,6.963,0,0,1,3.667-13.195.938.938,0,0,0,1.051-.525,47.517,47.517,0,0,1,2.987-4.022,1.121,1.121,0,0,0,.1-1.6,19.329,19.329,0,0,1-2.9-6.715c-.854-4.324,1.867-7.92,6.143-8.084A7.182,7.182,0,0,1,1224.621,229.215Zm18.365,54.765c-.765-3.1-.352-5.854,2.428-7.687,2.959-1.95,5.9-1.456,8.651.575,8.7-9.4,7.481-25.259-1.831-33.057a11.825,11.825,0,0,1-17.1,1.281l2.716-3c4.13,2.735,8.562,2.345,11.009-.939a5.531,5.531,0,0,0-.493-.364,22.809,22.809,0,0,0-13.916-3.177,1.371,1.371,0,0,0-.723.507,35.836,35.836,0,0,1-3.068,3.462,31.431,31.431,0,0,1-8.421,4.72c-1.455.624-2.744.8-3.782-.658a23.69,23.69,0,0,0-2.037,28.57C1222.448,283.568,1234.1,286.886,1242.986,283.979Zm17.231.932a2.33,2.33,0,0,0-1.055-2.886,2.687,2.687,0,0,0-3.241.234c-1.638,1.45-3.255,1.022-3.99-1.056a2.822,2.822,0,0,0-3.336-1.713c-1.323.346-1.871,1.381-1.558,2.951a5.824,5.824,0,0,0,.155.608,25.036,25.036,0,0,0,4.012,7.258.805.805,0,0,0,.726.217,23.064,23.064,0,0,0,7.264-4.34A9.709,9.709,0,0,0,1260.216,284.912ZM1219.7,230.9a2.258,2.258,0,0,0-3.02,2.722,6.345,6.345,0,0,0,.55,1.794c.878,1.7,1.772,3.39,2.765,5.021,1.036,1.7,1.1,1.7,2.939.876a19.157,19.157,0,0,0,6.07-3.922,3.984,3.984,0,0,0,1.02-1.906,2.1,2.1,0,0,0-1.457-2.225,2.636,2.636,0,0,0-3.072.45,2.218,2.218,0,0,1-3.851-1.017A2.583,2.583,0,0,0,1219.7,230.9Zm30.877,6.044a7.575,7.575,0,0,0-6.739-8.27c-3.812-.464-7.242,2.251-7.681,4.365,2.454.422,4.96.67,7.359,1.318S1248.2,236.051,1250.573,236.94Zm13.325,29.424-1.17,4.356C1264.734,269.788,1265.234,267.76,1263.9,266.364Zm-55.212-10.172,1.191-4.432a2.685,2.685,0,0,0-1.191,4.432Z" transform="translate(-1203.68 -224.417)"/><path class="b" d="M1226.56,273.45l3.534-2.081a9.46,9.46,0,0,0,12.279,3.293l2.04,3.558C1238.615,281.914,1229.859,279.57,1226.56,273.45Z" transform="translate(-1205.687 -228.534)"/><path class="b" d="M1226,259.157l-3.888-1.044a5.086,5.086,0,0,1,3.245-3.683,5.422,5.422,0,0,1,5.916,1.106,5.5,5.5,0,0,1,1.595,5.5c-1.268-.34-2.472-.651-3.666-1a.607.607,0,0,1-.351-.426c-.064-.752-.408-1.349-1.166-1.332a5.78,5.78,0,0,0-1.7.593Z" transform="translate(-1205.297 -227.011)"/><path class="b" d="M1256.432,267.34l-3.8-1.02a5.518,5.518,0,0,0-.413-1.208,1.411,1.411,0,0,0-2.179-.047,1.236,1.236,0,0,1-.937.315c-1.078-.224-2.137-.547-3.319-.865a5.024,5.024,0,0,1,2.747-3.516,5.67,5.67,0,0,1,6.349.827A5.264,5.264,0,0,1,1256.432,267.34Z" transform="translate(-1207.373 -227.57)"/></g></g></svg>