<svg xmlns="http://www.w3.org/2000/svg" width="66.877" height="69.076" viewBox="0 0 66.877 69.076"><defs><style>.a{fill:#fbd617;}</style></defs><g transform="translate(-132.788 -88.505)"><path class="a" d="M192.471,108.7h-.054a4.531,4.531,0,0,1-4.477-4.583l.131-11.134a4.53,4.53,0,0,1,9.059.106L197,104.222A4.529,4.529,0,0,1,192.471,108.7Z"/><path class="a" d="M166.493,111.816a4.525,4.525,0,0,1-3.8-2.066l-5.361-8.268a4.53,4.53,0,0,1,7.6-4.928l5.361,8.267a4.531,4.531,0,0,1-3.8,7Z"/><path class="a" d="M148.137,130.648a4.494,4.494,0,0,1-1.63-.306l-9.283-3.584a4.53,4.53,0,0,1,3.263-8.451l9.283,3.584a4.531,4.531,0,0,1-1.633,8.757Z"/><path class="a" d="M137.315,157.581a4.531,4.531,0,0,1-1.028-8.942l10.441-2.442a4.53,4.53,0,1,1,2.064,8.821l-10.442,2.443A4.544,4.544,0,0,1,137.315,157.581Z"/><path class="a" d="M166.881,153.616a4.532,4.532,0,0,1-4.24-2.933A25.53,25.53,0,0,1,196.993,118.4a4.53,4.53,0,1,1-3.72,8.261,16.472,16.472,0,0,0-22.155,20.824,4.533,4.533,0,0,1-4.237,6.129Z"/></g></svg>