<svg xmlns="http://www.w3.org/2000/svg" width="25.265" height="28.269" viewBox="0 0 25.265 28.269"><defs><style>.a{fill:#c4c4c4;}</style></defs><g transform="translate(-505.667 -316.88)"><path class="a" d="M518.3,318.205h.06a6.026,6.026,0,0,1,5.967,6.022,6.052,6.052,0,0,1-1.788,4.259,5.952,5.952,0,0,1-4.219,1.739h-.058a6.01,6.01,0,0,1,.037-12.02m-5.354,15.215a.918.918,0,0,1,.108.068,8.34,8.34,0,0,0,2.3,1.177,9.741,9.741,0,0,0,3.005.495,9.159,9.159,0,0,0,4.876-1.446c.163-.1.31-.2.42-.283l.01-.006h.014a.351.351,0,0,1,.05,0,7.6,7.6,0,0,1,3.893,1.782,7.842,7.842,0,0,1,1.9,2.393,13.974,13.974,0,0,1-3.274,3.555,12.689,12.689,0,0,1-3.391,1.848,13.5,13.5,0,0,1-4.516.818,13.127,13.127,0,0,1-7.121-2.029,13.472,13.472,0,0,1-4.157-4.136,8,8,0,0,1,1.671-2.246,7.889,7.889,0,0,1,2.588-1.58,8.729,8.729,0,0,1,1.183-.316c.141-.031.286-.062.432-.1m5.354-16.54a7.336,7.336,0,0,0-.049,14.671h.07a7.336,7.336,0,0,0,.052-14.671Zm-5.34,15.207a1.158,1.158,0,0,0-.267.032,14.576,14.576,0,0,0-1.833.475,9.013,9.013,0,0,0-5.1,4.721.806.806,0,0,0,.05.834,14.76,14.76,0,0,0,4.707,4.766,14.512,14.512,0,0,0,7.831,2.234,14.846,14.846,0,0,0,4.97-.9,13.956,13.956,0,0,0,3.744-2.042,15.19,15.19,0,0,0,3.726-4.121.782.782,0,0,0,.049-.825,9.2,9.2,0,0,0-2.35-3.056,8.964,8.964,0,0,0-4.552-2.086,1.64,1.64,0,0,0-.255-.02,1.334,1.334,0,0,0-.795.254c-.114.081-.229.161-.348.235a7.82,7.82,0,0,1-4.178,1.247,8.382,8.382,0,0,1-2.6-.43,7,7,0,0,1-1.937-.991,1.489,1.489,0,0,0-.869-.327Z" transform="translate(0)"/><path class="a" d="M512.942,368.814a.924.924,0,0,1,.108.068,8.339,8.339,0,0,0,2.3,1.177,9.741,9.741,0,0,0,3.005.495,9.159,9.159,0,0,0,4.876-1.446c.163-.1.31-.2.42-.283l.01-.006h.014a.351.351,0,0,1,.05,0,7.6,7.6,0,0,1,3.893,1.781,7.842,7.842,0,0,1,1.9,2.393,13.974,13.974,0,0,1-3.274,3.555,12.689,12.689,0,0,1-3.391,1.848,13.505,13.505,0,0,1-4.516.818,13.128,13.128,0,0,1-7.121-2.029,13.472,13.472,0,0,1-4.157-4.136,8,8,0,0,1,1.671-2.246,7.89,7.89,0,0,1,2.588-1.58,8.725,8.725,0,0,1,1.183-.316c.141-.031.286-.062.432-.1m.014-1.334a1.16,1.16,0,0,0-.267.032,14.57,14.57,0,0,0-1.833.475,9.013,9.013,0,0,0-5.1,4.721.806.806,0,0,0,.05.834,14.76,14.76,0,0,0,4.707,4.766,14.512,14.512,0,0,0,7.831,2.234,14.846,14.846,0,0,0,4.97-.9,13.955,13.955,0,0,0,3.744-2.042,15.19,15.19,0,0,0,3.726-4.121.782.782,0,0,0,.049-.825,9.194,9.194,0,0,0-2.35-3.056,8.964,8.964,0,0,0-4.552-2.086,1.64,1.64,0,0,0-.255-.02,1.334,1.334,0,0,0-.795.254c-.114.081-.229.161-.348.235a7.82,7.82,0,0,1-4.178,1.247,8.382,8.382,0,0,1-2.6-.43,7,7,0,0,1-1.937-.991,1.489,1.489,0,0,0-.869-.327Z" transform="translate(0 -35.393)"/><path class="a" d="M530.646,318.205h.06a6.026,6.026,0,0,1,5.967,6.022,6.051,6.051,0,0,1-1.788,4.259,5.951,5.951,0,0,1-4.218,1.739h-.058a6.01,6.01,0,0,1,.037-12.02m0-1.325a7.336,7.336,0,0,0-.049,14.671h.07a7.336,7.336,0,0,0,.052-14.671Z" transform="translate(-12.349)"/></g></svg>